<svg version="1.1" xmlns="http://www.w3.org/2000/svg" xmlns:xlink="http://www.w3.org/1999/xlink" x="0px" y="0px" viewBox="0 0 500 500" enable-background="new 0 0 500 500" xml:space="preserve" class="handfont">
<defs>
    <clipPath class="clip-path" id="clip-path-e3">
                <path d="M7.5,266c0,0.5,0,1-0.5,1C7,266.5,7,266.5,7.5,266z M10,257.5c0.5-0.5,0.5-1,0.5-1s0,0.5,0.5,1
            C10.5,257.5,10.5,258,10,257.5C10,258,10,257.5,10,257.5z M280,39.5c1.5,0,3-0.5,3.5-0.5c1-0.5,1.5,0,1.5,1c-0.5,0-1,0-1.5,0
            c-1.5,0-3,0.5-4.5,0.5c-1.5,0.5-3,0.5-4.5,1c-1,0-1.5,0.5-2,0.5c-0.5,0-1.5,0-2,0.5c-1,0.5-1.5,0.5-2,0.5s-1,0.5-2,0.5
            c-1.5,0-3,0.5-4.5,0.5c-1.5,0-3,0.5-4.5,1c-1,0.5-1.5,0.5-2,0.5c-0.5,0-1.5,0-2,0.5c-1,0-2,0-2.5,0.5c-1,0.5-1,0.5,0,1
            c1,0,1.5,0,2-0.5c0.5,0,1.5-0.5,2-0.5s1.5,0,2,0c1,0.5,1,0.5,0.5,1.5c0,0-0.5,0.5-1.5,0.5s-2,0-2.5,0.5c-1,0.5-1.5,0.5-2.5,0.5
            c-0.5,0-1,0.5-1.5,0.5c-0.5,0.5-1.5,0.5-2,1c-0.5,0.5-0.5,0.5,0.5,0.5c1,0,1.5,0,2,0s1,0,2-0.5c3-0.5,5.5-1.5,8.5-2
            c1.5,0,3-0.5,5-0.5c2,0,3,0,3,0.5c-1,0.5-2.5,1-4,1.5c-0.5,0-1.5,0.5-2,1c-2.5,0.5-2.5,1-2.5,1c-0.5,1-0.5,1.5,0,2s0,1-1,1
            c-0.5,0-1,0.5-1.5,0.5c-0.5,0.5-1,0.5-1.5,1c-1,0-1.5,0.5-1.5,0.5c-0.5,0.5-1,0.5-1.5,1c-0.5,0-1.5,0.5-2.5,0.5
            c-1,0.5-1.5,0.5-1.5,0.5c-1.5,0.5-3,0.5-4.5,1c-1.5,0.5-2.5,1-4,1c-0.5,0-1,0.5-1.5,1c-0.5,0.5-1,0.5-1.5,1c-0.5,0-1,0-1.5,0
            c-0.5,0-1.5,0-2,0.5l-1,1c-0.5,0-0.5,0-1,0c-0.5,0-0.5,0-1,0c-1,0.5-2.5,0.5-4,1c-1.5,0.5-2.5,1-3,2h-0.5l-0.5,0.5
            c0,0,0,0-0.5,0.5c-0.5,0-1,0.5-2,0.5c-1-0.5-1.5-0.5-2,0c-0.5,0.5-1,0.5-2,1c-1,0.5-1.5,0.5-2,0.5c-0.5,0-1,0-2,0.5
            c-1.5,0.5-3,1-4.5,1s-3,0.5-4.5,0.5c-3,0.5-5,1-6,2v1v0.5c1,1.5,2,1.5,3.5,0.5c1-1,2.5-1.5,4-1l4,0.5c1.5-0.5,3-1,4.5-1.5
            c1.5-0.5,3-0.5,4.5-0.5c0.5,0.5,1,0.5,1.5,1c0.5,0.5,1.5,0,2,0c0.5,0,0.5,0,1-0.5c0.5,0,0.5-0.5,1-0.5s0.5-0.5,1-1
            c1-0.5,1.5-0.5,2-1c0.5,0,1-0.5,2-0.5c1-0.5,1.5-0.5,2,0c0.5,0.5,1,0,2,0c1-0.5,1.5-0.5,2-1c0.5,0,1-0.5,2-1c0,0,0.5,0,1.5,0
            c0.5,0,1.5,0,2.5-0.5c0,0,0.5-0.5,1.5-0.5s1.5-0.5,1.5-0.5s-0.5,0.5-1,1c-0.5,0.5-1,0.5-1.5,1c-0.5,0-1,0-2,0s-1.5,0.5-2,0.5
            c-0.5,0.5-1.5,1-3,1.5s-3,1-4.5,1.5c-1.5,0.5-2.5,1-3.5,1.5c-1,0-1.5,0.5-1.5,0.5c-0.5,0-1,0.5-1.5,0.5c-1.5,0.5-3,0.5-4,1
            c-1.5,0.5-3,0.5-4,1c-1,0.5-1.5,0.5-1.5,1c-0.5,0.5-1,0.5-1.5,0.5c-1,0.5-1.5,0.5-1.5,0s-1,0-1.5,0c-1.5,0.5-3,0.5-4,1
            c-1,0-2.5,0.5-4.5,1c-0.5,0-1,0.5-2,1l-3.5,1.5h-0.5V85c-0.5,0-0.5,0.5-1,0.5c-0.5,0-0.5,0.5-1,0.5c-1,1-2.5,1.5-3.5,1.5
            s-1.5,0-2.5,1L186,89c0,0-0.5,0-0.5,0.5c-0.5,0-0.5,0.5-1,0.5c-1,0-1.5,0.5-2,0.5c-0.5,0-1.5,0-2,0.5c-0.5,0-0.5,0.5-1,0.5
            c-0.5,0-0.5,0.5-1,0.5c-0.5,0-0.5,0.5-1,0.5s-0.5,0-1,0c-1,0-1.5,0-2.5,0c-0.5,0.5-1.5,0.5-2,1c-0.5,0-1.5,0.5-2.5,0.5l-0.5,0.5
            c0,0,0,0.5-0.5,0.5s-1,0-1-0.5c-1.5,0-3,0-5,0c-1.5,0.5-3,0.5-4.5,1c-0.5,0.5-1.5,0.5-2.5,0.5l-0.5,0.5c0,0-0.5,0-0.5,0.5
            c-0.5,0-0.5,0.5-1,0.5s-0.5,0.5-1,0.5c0,0-0.5,0-0.5,0.5l-0.5,0.5c-0.5,1-0.5,1-1,0.5s-0.5-0.5-1,0c0,0,0,0-0.5,0s-0.5,0-1,0
            c-0.5,0.5-1,1-2,1c0,0-0.5,0-1-0.5c-0.5,0-0.5,0-0.5,0.5c0,0-0.5,0-0.5-0.5h-0.5h-1c-1-0.5-2-0.5-2-0.5C140,100,140,100,141,100
            c0.5,0,0.5,0.5,0,0.5c-0.5,0.5-0.5,0.5-1,0.5s0-0.5,0-1s0-1-0.5-1.5c-0.5,0-0.5-0.5-1-0.5s-0.5,0-1,0.5c-0.5,0.5-0.5,0.5-1,1
            c-1,0-2,0-2.5,0.5c-0.5,0.5-1,0-1.5-0.5c-0.5-0.5-1-0.5-2,0c-0.5,0.5-0.5,0.5-1,1c0,0-0.5,0.5-0.5,1c-0.5,0-0.5,0-1-0.5
            s-0.5-0.5-1-0.5c-1,0.5-2,1-3.5,1c0,0.5,0,1.5-0.5,2c0,0.5,0,0.5-0.5,1c-0.5,0.5-0.5,1.5-0.5,2s-0.5,0.5-0.5,1c0,0-0.5,0.5-1,1
            c0,0.5,0,1-0.5,1.5c0,0.5-0.5,0.5-0.5,1c0,1,0,1.5-0.5,2s-0.5,1.5-1,2c0,0.5-0.5,0.5-0.5,1c0,0.5-0.5,0.5-0.5,1c-0.5,0.5-1,1-1,2
            c0,0.5-0.5,0.5-0.5,1c0,0,0,0.5-0.5,1c-0.5,0.5-0.5,1.5-1,2c-0.5,0.5-0.5,1.5-1,2s-0.5,0.5-0.5,1c0,0.5,0,0.5-0.5,1l-0.5,0.5
            c0,0,0,0.5-0.5,0.5c0.5,0,1,0,1.5,0c0.5,0,1,0,2,0c0.5,0,0.5,0,1,0c0,0,0.5,0,1,0c1.5,0,3,0,3.5,0c1-0.5,1.5-0.5,2-0.5
            c0.5,0,1,0,2-0.5c0.5,0,0.5-0.5,1-0.5s0.5,0,1-0.5c0,0,0.5,0,1-0.5c0.5,0,0.5-0.5,1-0.5c1,0,2.5-0.5,3.5-1c1-0.5,2.5-1,3.5-1
            s2.5-0.5,3.5-0.5c1,0,1.5,0,2-0.5c0.5-0.5,1-0.5,2,0c1.5,0,2.5,0,4-0.5c1-0.5,2.5-0.5,4-0.5c1,0,2.5,0,4,0c1.5,0,2.5,0,4,0
            c0,0,0.5-0.5,1.5-0.5h2h3.5c0.5,0,0.5,0,1,0s0.5,0,1,0h2c0.5,0,1,0,1.5,0c0.5,0,1,0,2,0c1,0,1.5,0,2,0.5c0.5,0.5,1,0.5,1.5,0.5
            c0.5,0,1,0.5,2,0.5h2c0,0,0.5,0,1,0c0.5,0,0.5,0,0.5,0.5c0,0.5,0,1-0.5,1c-0.5,0-0.5,0-1,0c-0.5,0-0.5,0.5-1,0.5
            c-0.5,0-0.5,0-1,0.5c0,0,0,0.5,0.5,0.5c0.5,0.5,1,0.5,1,0c1,0,2.5-0.5,3.5-0.5s2.5,0,4-0.5c0.5,0,0.5,0,1,0c0.5,0,0.5,0,1,0
            l0.5-0.5h1c1-0.5,1.5-0.5,2-1c1,0,1.5,0,2,0c0.5,0,1,0.5,1.5,0.5c1,0,1.5,0,1.5,0.5c0,0.5,0,1-0.5,1c-0.5,0.5-0.5,1,0,1s1.5,0,2,0
            c2-0.5,3-0.5,4-0.5c3-0.5,5.5-0.5,8-1c2.5,0,5.5-0.5,8-1h5.5c1,0,2.5-0.5,4-0.5c1,0,2.5-0.5,4-0.5c1.5,0,2.5,0,3-0.5
            c0.5,0,1,0,2,0c1,0,1.5,0,2-0.5c0.5,0,1.5,0,2-0.5c0,0.5,0,0.5,0,0.5s0,0,0,0.5v0.5c-1.5,0.5-3,0.5-3.5,1c-0.5,0-1,0-1.5,0
            c-0.5-0.5-1,0-1.5,0c-1,1-2.5,1.5-3.5,1.5c-1,0-2,0-4,0.5c-0.5,0-0.5,0.5-1,0.5c-0.5,0-0.5,0-1,0.5c-0.5,0-0.5,0,0,0.5
            c0.5,0,0.5,0.5,0.5,1H226c0,0-0.5,0-1-0.5c0,0,0-0.5,0.5-0.5c0,0,0-0.5-0.5-0.5c0,0-0.5,0-1.5,0s-1.5,0-2,0c-2,0-2.5,1-2,2
            c-0.5,1-1.5,1.5-3.5,1c-1.5,0-3,0-4.5,0.5c-0.5,0-1.5,0.5-3,0.5s-2.5,0.5-2.5,1.5c0,0.5,0,1-1,1c-1,0-1.5,0-1.5,0
            c-0.5,0.5-1.5,0.5-2,0.5c-0.5,0-0.5,0.5-1,0.5c-1,0-1.5,0-2,0.5c-0.5,0-1,0.5-1.5,0.5c-1.5,0.5-2.5,0.5-3,1c-1,0.5-2,0.5-4,0.5
            c-0.5,0-0.5,0-1,0.5c-0.5,0-0.5,0.5-1,0.5c-0.5,0.5-0.5,0.5-0.5,1s0,1-0.5,1c-0.5,0-0.5,0.5,1,1c0.5,0,0.5,0,1-0.5
            c0.5,0,0.5,0,1,0c0,0,0,0.5-1,1s-1.5,0.5-2,0.5c-0.5,0-0.5,0.5-1,0.5c0,0-0.5,0-1,0.5c-0.5,0-1,0-2,0.5c-0.5,0-1.5,0.5-2,0.5
            s-1.5,0-2,0.5c-1,0-1.5,0-2,0.5c-0.5,0-0.5,0-1,0.5c-0.5,0.5-0.5,0.5-0.5,0.5c1,0,1.5,0,2,0c0.5-0.5,1-0.5,2-0.5c1,0.5,2,0,3-0.5
            c0,0,0.5,0,1,0.5l0.5,0.5c0.5-0.5,0.5-0.5,1,0c0,0.5,0.5,0,1,0c0.5,0,0.5,0,1,0c0,0,0.5,0,1,0c1,0,1.5,0,2-0.5c0.5,0,1,0,1-0.5
            c0,0,0.5,0,0.5-0.5h2c0.5,0,0.5,0,1,0c0,0,0.5,0,1,0l0.5-0.5h1c0.5,0,0.5-0.5,1-0.5c0.5,0,0.5,0,1-0.5c1.5-0.5,3-0.5,4-0.5
            c1,0,2.5,0,4-0.5c1.5-0.5,3-0.5,4-0.5c1.5,0.5,1,0.5-1,1l-0.5,0.5h-1c-0.5,0-1,0.5-2,0.5c-1.5,0.5-3,0.5-4,1c-1.5,0-2.5,0.5-4,0.5
            c-0.5,0-0.5,0.5-1,0.5s-0.5,0-1,0.5H196c0,0,0,0-0.5,0c-0.5,0-1,0.5-2,0.5c-0.5,0.5-0.5,0.5-1,1c0,0.5-0.5,0.5-1,0.5
            c-1,0.5-1.5,0.5-2-0.5c-0.5-0.5-1-0.5-2,0.5c-1,0.5-2,0.5-3.5,0.5c-1,0.5-1,1-0.5,1.5c0.5,0,0.5,0.5,0.5,1s0.5,1,1,1
            c1-0.5,1.5,0,1.5,0.5c0,1-0.5,1.5-1,2c0,0,0,0-0.5,0c-0.5,0-0.5,0-1,0.5c0,0-0.5,0-1,0.5c-0.5,0.5-0.5,0.5-1,0.5
            c-0.5,0-1.5,0-2,0.5c-0.5,0-1.5,0.5-2,0.5c-1,0-1.5,0.5-2,0.5c-0.5,0-0.5,0-1,0.5h0c-0.5,0-0.5,0-1,0c0,0-0.5,0-1,0
            s-0.5,0.5-1,0.5c-0.5,0-0.5,0-1,0.5c-1,0.5-2.5,0.5-3.5,1c-1,0.5-2.5,0.5-3.5,1c-1,0.5-2.5,1-3.5,1c-1,0.5-2,0.5-3,1.5
            c-0.5,0.5-1,0.5-1.5,1c-0.5,0-1,0.5-2,1c-0.5,0.5-0.5,0.5-1,0.5c0,0-0.5,0-1,0.5c-0.5,0-1,0-1.5,0.5s-1,0.5-1.5,1c0,0-0.5,0-1,0.5
            c-0.5,0.5-0.5,0.5-1,0.5c-0.5,0.5-0.5,0.5-1,0.5s-0.5,0-1,0l-0.5,0.5c0,0,0,0-0.5,0.5c0,0-0.5,0.5-1,0.5s-1.5,0.5-3.5,1.5
            C139,172,138,172,138,172c-0.5,0-1,0.5-1.5,0.5c-1,0.5-2,1-3.5,1s-2.5,0-4,0.5c-0.5,0-1.5,0.5-2,0.5c-0.5,0-1,0-2,0
            c-0.5,0-0.5,0-1,0c-0.5,0-0.5,0-1,0c0,0-0.5,0.5-1,0.5h-1h-2h-1h-0.5H117c-1.5,0-2.5,0.5-4,0.5c-1,0-2.5,0-4,0.5
            c-0.5,0-1.5,0.5-2,0.5c-0.5,0-1.5,0-2,0.5c-0.5,0-1,0-2,0c-1,0-1.5,0-1.5,0c-1,0-2.5,0-3.5,0c-1.5,0-3,0-4,0c-0.5,1-0.5,1.5-1,2.5
            s-1,1.5-1.5,2.5s-1.5,1.5-2,2c-0.5,0.5-1,1-2,2c0,0.5,0,1,0,1s0,0.5,0,1c-0.5,1-0.5,2-1,2.5c0,0-0.5,0.5-1,1.5s-1,2-1.5,2.5
            c-1,2-1.5,3-2.5,3.5c-0.5,0.5-1,1.5-1.5,2.5v2c-0.5,1-1,2-1.5,2s-0.5-0.5-0.5-2c0.5-0.5,0.5-1,0.5-1s0-0.5-0.5-1
            c-0.5,0.5-0.5,1.5-1,2.5c-0.5,1-1,1.5-1.5,2c-0.5,0.5-1,0.5-1,1c0,1,0,2-0.5,3c0,1-0.5,1.5-1,1.5c-1,0.5-1.5,1-1.5,2s0,1.5-0.5,2
            c0,0.5,0,0.5,0,1s0.5,1,0.5,1.5c0.5,0,0.5,0,1-0.5c0,0,0-0.5,0.5-0.5h0.5l1-2.5c0.5-1,0.5-1.5,1-2.5c0.5-0.5,0.5-1,1-0.5
            c0,0.5,0,1.5,0,2.5s-0.5,1.5-0.5,1.5c0,0.5,0,0.5-0.5,0.5c0.5,0,0.5,0,1-0.5c0.5,0,1,0,2,0.5c0,0,0.5,0,1,0s0.5,0,1-0.5
            c0.5-0.5,1-1,1.5-0.5c0.5,0.5,1.5,0,2,0s1.5,0,2,0.5c1,0,2.5,0,3.5,0c1,0,2.5,0,3.5,0c0.5,0,0.5-0.5,1-0.5c0.5,0,0.5,0,1-0.5h1
            c0,0,0.5,0,0.5-0.5c1-0.5,2-0.5,3.5-0.5c1.5,0,2.5,0,4-0.5c1,0,2.5,0,3.5-0.5c1-0.5,2.5-0.5,3.5-0.5c0.5,0,1-0.5,1.5-1h1
            c1,0,1.5,0,1.5-0.5c2-1,3.5-1.5,4.5-1c1.5,0,3-0.5,4.5-1h4.5c0.5,0,1,0,1.5,0c0.5,0,1,0,1.5-0.5l1.5-0.5c1.5-0.5,3-0.5,4.5-0.5
            s3,0,4.5-0.5c1.5,0,3-0.5,4.5-0.5s3,0,4.5,0.5c1.5,0,3,0,4,0c1.5-0.5,2.5,0,3.5,0c1-0.5,1.5-0.5,2-0.5c0.5,0,1,0,2,0.5
            c0.5,0,1.5-0.5,2-1c0.5-0.5,0.5-0.5,0.5,0c0-4.5,0-4.5,0-4c0,0,1,0,2,0c0.5,0,1.5,0,2.5-0.5c1-0.5,1.5-0.5,2-0.5
            c1.5-1,3-1.5,4-1.5c1.5,0.5,3,0,4.5,0c1,0,1.5-0.5,2-0.5c0.5,0,1-0.5,2-0.5c0.5-0.5,1-0.5,1.5-1s1-0.5,2-0.5c1,0.5,1.5,0.5,2.5,1
            c0.5,0.5,1.5,0,2-0.5c0.5-1,1-1.5,2-1.5c0.5,0,1.5,0,2.5,0c0.5,0,1.5-0.5,2.5-0.5c1,0,1.5,0,2,0c0.5,0.5,1.5,0.5,2,0.5
            c1,0,1.5,0,3,0c1-0.5,1-1,1-1.5c0-0.5,0-0.5,1,0c0.5,0.5,1,0.5,1.5,1c1,0.5,1.5,0,2-0.5c0.5-0.5,2-1,3-1c0.5,0,1-0.5,1-1
            c0.5-0.5,1-1,1.5-1.5c0.5,0,1,0,1.5,0.5c0.5,0.5,1,0.5,1.5,1c0.5-0.5,0.5-0.5,1-0.5c0,0,0.5,0,1,0c0,0.5,0,0.5-0.5,0.5
            c-0.5,0-1,0.5-1,0.5c0.5,1,0.5,2,0,2c-0.5,0.5-1,0.5-1.5,0.5c-0.5,0-0.5,0-1-0.5l-0.5-0.5c-1-0.5-1.5-0.5-2,0.5c-0.5,1-1.5,1-3,1
            c-1-0.5-1.5-0.5-2-0.5c-0.5,0-1,0.5-2,0.5c0,0-0.5,0.5-1,1c-0.5,0.5-1.5,0.5-2,0.5c-1,0-1.5,0-1.5,0.5c-0.5,0.5,0,1,1,1.5
            c0.5,0,0.5,0.5,1,1c0,0.5,0,1-1,1.5c0,0-0.5,0-0.5,0.5c0,0.5,0,0.5,0.5,1c1,0,1.5-0.5,1.5-1c0.5-0.5,1-0.5,1.5-0.5l1.5,0.5
            c1,0,1.5,0,2,0c0.5,0,1-0.5,2-1c0,0,0.5,0,1.5,0s1.5-0.5,1.5-0.5c0.5-0.5,0.5-1,0.5-2s0.5-1.5,1.5-1.5c1,0,1.5,0,1,1
            c0,0.5-0.5,1-1.5,1.5c-0.5,0.5-0.5,1-0.5,1.5s0,1.5,0.5,2c0,0,1-0.5,2-2c1-0.5,1.5-0.5,2-0.5s1,0,2-0.5c1-0.5,1.5-0.5,2,0
            c0.5,0.5,1,0,2-1c0.5-0.5,0-1-0.5-1.5c-0.5-0.5-1.5-0.5-2-0.5c-1,0.5-1.5,0.5-2.5,0.5s-1.5,0-1.5,0c-0.5-0.5,0-1,1-1.5
            c1-0.5,1.5-0.5,2,0c0.5,0.5,1.5,0,2-0.5c0.5-0.5,1-1,1.5-1.5c-0.5-0.5-0.5-0.5-1-0.5c0,0-0.5,0-1-0.5c-0.5-1-1-1.5-1.5-1
            c-0.5,0-1.5,0-2-1c2-0.5,2.5-0.5,2.5-0.5s0.5,0,0.5-0.5c0,0,0.5-0.5,1-1c0.5-0.5,1-0.5,2-1c2-0.5,3,0,3.5,1s1,1.5,1,1.5
            s0.5,0,0.5-0.5c0.5-0.5,0.5-0.5,0.5-0.5c1-1,2.5-1,3.5,0s1,1.5-0.5,1.5c-1,0-1.5,0.5-2,1c-0.5,0.5-1,0.5-2,0.5c0,0,0-0.5-0.5-0.5
            s-1,0-1.5,0.5c0,0.5-0.5,0.5-0.5,1v1c0,0.5,0,1-0.5,1c-0.5,0.5-0.5,1,0,2c0.5,1.5,1,1.5,2,1s1-1,1-1c-0.5-0.5-0.5-1.5,0.5-2
            c0.5,0.5,0.5,1,0.5,1c0,0.5,0,1,0.5,1c0.5,0,1,0.5,1.5,1l1,0.5l0.5-0.5c1.5-1,2.5-1.5,3-1c0.5,0.5,1.5,1,2.5,0.5
            c0.5-0.5,1-0.5,1-0.5s0.5,0,1-0.5c1,0.5,1.5,0.5,2,0c0.5-0.5,1-0.5,2,0c0.5,0,1.5,0.5,2,1c0.5,0.5,1,0.5,1-0.5c0.5-0.5,1-1,1.5-1
            c0.5,0,1,0.5,1,1.5c0,0.5,0,1,0,1s0,0.5-0.5,1c-0.5,0-1-0.5-1-0.5s-0.5,0-1-0.5c-0.5,0.5-1,1-1,1.5c0,0.5-0.5,1-1.5,1
            c-1,0.5-1.5,0.5-2,0c-0.5-0.5-1,0-1.5,0c-1,0.5-1.5,0.5-2,1c-0.5,0-1,0.5-2,0.5c-0.5,0-1,0-1.5,0c-0.5,0-1.5,0.5-2,0.5
            c-0.5,0-1,0-1.5,1c-0.5,0.5-0.5,0.5-0.5,0.5s-0.5,0.5-1,0.5c0,0-1,0.5-2,0.5c-0.5,0-1,0-1.5-0.5c-1,0-1.5,0-2,1
            c0,0.5-0.5,1-0.5,1.5c-1,1-1,1.5-0.5,1.5c0.5,0,1.5,0,2,0c0.5,0,1,0,1.5-0.5c0.5-0.5,1.5-0.5,2.5-0.5c2,0,3,0,4-0.5
            c1-0.5,2-0.5,2.5-0.5c-0.5,0.5-0.5,0.5-0.5,1s0,0.5,0,1c-0.5,0.5-1,0.5-1.5,0.5c-0.5,0-1.5,0-2.5,0c-0.5,0-1.5,0.5-1.5,1
            c-0.5,0.5-1,0.5-2,0.5c-1.5-0.5-2.5-0.5-3.5,0.5c-0.5,0.5-1,0.5-1.5,1c-0.5,0.5-1,0.5-1.5,0.5c-0.5-0.5-1-1.5-0.5-2
            c0-0.5,0-1,0.5-1.5c0-0.5,0-1,0.5-1.5c0-0.5,0-1-0.5-1c-1,0.5-1.5,0.5-2,1c-0.5,0.5-1,0.5-2,1c-1,0-2,0-2,0.5c-0.5,1-1,1-1,1
            c-1.5-0.5-2-0.5-3-0.5l-0.5-0.5c-0.5-0.5-1-1-1-1c-0.5,0-1.5,0.5-2,1.5c-0.5,0.5-0.5,1.5-0.5,2c0.5,0.5,0.5,1,1,1.5
            c1,0.5,1,1,0.5,1c-0.5,0-1,0.5-1,1c-1,1.5-2,2-3.5,2c0,0-0.5-0.5-1.5-1c-1-0.5-1.5-0.5-2,0c-1,1-2,1.5-4,1.5c-0.5,0-1,0-1,0
            c-0.5,0.5-0.5,0.5-0.5,0.5c-0.5,0-1,0-1,0s-0.5,0-1-0.5c-0.5,0.5-1.5,0.5-1.5,1c-0.5,0.5-1,0.5-1,1c-1,0.5-2,1-1.5,1
            c0,0,0.5,0.5,1.5,0.5s1.5-0.5,2-0.5c0.5-0.5,1,0,2,0c0.5,0.5,0.5,1,0,1.5c-0.5,0.5-0.5,1.5-1,2c-0.5,0-1,0.5-2,0.5s-1.5,0.5-2,0.5
            C195,227,195,227,195,227s-0.5,0-0.5,0.5c0,1-0.5,1.5-1,2c-0.5,0.5-1,0.5-1.5,0c-0.5-0.5-1-1-1.5-1.5c-0.5-0.5-1-0.5-1.5-1
            c-0.5,0-1,0.5-1,0.5s-0.5,0-1,0.5c-1,0-1.5,0.5-1.5,1c-0.5,0.5-1,1-1.5,1.5c-1,0-1.5,0-1.5,0c0,0.5-0.5,0.5-1.5,1
            c-1,0.5-1.5,0.5-2,1c-0.5,0-0.5-0.5-1-1.5c-0.5-0.5-1-1-1.5-0.5c-0.5,0.5-1,1-1.5,1.5c0,0.5-0.5,0.5-0.5,1c0,0,0,0.5-0.5,0.5
            c-0.5,1-0.5,1.5-0.5,2c0,0,0.5,0,1.5,0c0.5,0,1-0.5,1.5-1.5c0.5-0.5,1.5-0.5,1.5,0c0.5,1,1,1.5,1,1.5s0.5,0,0.5,0.5
            c0.5,0.5,0,0.5,0,1c-0.5,0-1,0-1,0s-0.5,0-1,0c-0.5,0.5-1,1-1.5,1c-0.5,0-1,0-2,0c-0.5,0-1.5,0.5-2,1l0.5,1c-1,0-1.5,0.5-1.5,1.5
            s0,1.5-0.5,2.5c0,0,0,0.5-0.5,0.5c0,0.5-0.5,0.5-0.5,1c0.5,0,1,0.5,1,1c-0.5,1-1,1.5-1.5,1.5c-0.5,0-1.5,0-2,0.5c0,0-1,0-2,0.5
            c-1,0.5-2,0.5-2.5,1c-2,0.5-3.5,1-5,1.5c-1.5,0.5-3,1-4.5,1l-5,1c-1,0-2,0.5-2.5,0.5c-1,0-1.5,0-2,0.5c-0.5,0.5-1,0.5-2,1
            c-1,0-2,0.5-2,0.5c-1,0.5-2.5,0.5-4.5,1s-3.5,0.5-5,1c0,0-0.5,0-1.5,0.5c-1,0-2,0.5-2.5,1l-2.5,0.5l-1,0.5L122,261h-0.5l-1-1
            c-0.5,0-1.5,0.5-2,0.5c-0.5,0-1,0.5-2,0.5c-1,0.5-2.5,0.5-3.5,0.5c-1,0-2,0.5-3.5,0.5c-0.5,0-1.5,0-2,0s-1,0.5-1.5,1s-1,0.5-1.5,1
            c-0.5,0-1,0.5-1.5,0.5c-0.5,0-0.5,0-1,0.5c-0.5,0-0.5,0-1,0c0,0-0.5,0-1.5,0.5c-1.5-0.5-2.5-0.5-3.5,0c-1,0.5-1.5,0.5-2,0.5
            c-0.5,0-1,0-1.5,0.5c-0.5,0-1,0.5-2,0.5c-0.5,0-0.5,0-1,0s-0.5,0.5-1,0.5c-0.5,0.5-1,0.5-1.5,0.5c-0.5,0-1.5,0-2,0.5
            c-0.5,0.5-1.5,0.5-2,0.5c-0.5,0-1,0-1.5,0.5c0,0-1,0.5-2,0.5c-0.5,0.5-1,0.5-1.5,0.5s-1,0.5-1.5,0.5s-0.5,0.5-1,0.5s-1,0-1.5,0.5
            c-0.5,0.5-1.5,0.5-2.5,0.5s-1.5,0-2,0c-1.5-0.5-3-0.5-4.5,0c-1.5,0.5-3,0.5-4.5,0.5c-1.5,0-3,0.5-4,0.5c-1.5,0-3,0-5,0
            c-1,0-1.5-0.5-2-0.5c-0.5,0-1,0-2-0.5L46,272c-0.5-0.5-1-0.5-1-0.5s-0.5,0-1-0.5c-0.5,0-0.5-0.5-0.5-0.5s-0.5,0-0.5-0.5
            c0,0.5,0,1.5,0,2c0,0.5,0,1.5-0.5,2c0,0.5,0,1,0,1s0,0.5-0.5,1c-0.5,1-0.5,2-1,2c-1,0-2,0-2,0.5s-0.5,1-1,2
            c-0.5,0.5-0.5,1.5-1,2.5s-0.5,1.5-1,1.5c-1,1-1.5,1.5-2,2s-0.5,0-1-1c0-0.5,0-1,0-1s0,0,0.5-0.5c0.5-0.5,0.5-1,0.5-1.5
            c0-0.5,0-0.5,0.5-1c0.5-0.5,1-1.5,1-2c0-0.5,0.5-1,1-1.5c0.5-0.5,1.5-0.5,2-0.5S39,277,38,276c-1-0.5-1.5-1-2-1s-1,0.5-1.5,1.5
            c-0.5,1-0.5,1.5-1,2.5c-0.5,1,1.5-0.5,1,0.5c-0.5,2-1.5,3-3,4c-1,0.5-1.5,1.5-2,2.5c0,2-0.5,3-1,3.5c-0.5,1-1.5,1.5-1.5,1.5
            c-0.5,0-0.5-0.5,0-1.5c0,0,0-0.5-0.5-1c0,0-0.5,0-0.5-0.5c-0.5,1.5-1,2-1,1.5s0.5-2,1-3.5c1-1.5,1.5-3,2.5-4.5c1-1.5,1-3,0.5-4
            c-1,0.5-2,1-3,2c-1,1-2,2.5-2.5,4c-0.5,1-0.5,1.5-1,2s-1,1-2,1c-1-0.5-1.5-1-1.5-1.5c0-1,0-1.5-0.5-1.5c-1-1-1-2.5,0-4
            c0.5-0.5,0.5-1,0.5-1.5s0.5-1,0.5-1.5s0-0.5,0-1V275c0,0,0-0.5,0.5-0.5c0.5-0.5,0-1,0-1s-0.5-0.5-0.5-1v-2c0,0,0.5-0.5,1-1.5
            s1-1.5,0.5-2c0-0.5-0.5-1-0.5-1.5c-0.5-0.5,0-1.5,0.5-2l0.5-0.5l0.5-0.5c0,0,0-0.5,0.5-1c0.5-1,0.5-2,0.5-2c0.5-1,0.5-2,1-2.5
            c0.5-0.5,0-1-1-1.5c-0.5-0.5-0.5-1,0.5-1.5c1-0.5,2-1,2.5-1.5c0.5-1,0.5-1.5,0-2s-1.5-1-2-1c-2-0.5-3,0-3.5,1c0,0.5-0.5,1.5-1,2.5
            c-0.5,1-1,1.5-1,1.5V251c-0.5-0.5-0.5-1.5-0.5-2c0-0.5,0.5-1.5,0.5-2c0-1,0-1.5,0-2c0-0.5,0.5-1,1-2s0.5-1.5,1-2.5
            c-1-1-0.5-2-0.5-3c0,0-0.5-0.5-1-1.5s0-1.5,0.5-2c1,0,1.5-0.5,1.5-1c0.5-0.5,0.5-1,0.5-1.5c0-1,0-1.5,0.5-2c0.5-0.5,1-1,1-2
            c0-1,0.5-1.5,0.5-2c1,0,1.5-1,1.5-1.5c0-1,0.5-1.5,0.5-2.5c0.5-0.5,0.5-1.5,0-2c0-0.5,0-1,0-1.5c0.5-0.5,0.5-1.5,0.5-2
            c0-0.5,0-1.5,0-2c0-0.5-0.5-1-1-1.5c-1-0.5-1.5-1-1.5-2s-0.5-1-0.5-1c-1,0.5-1.5,1-1,1.5c0,0.5,0,0.5-0.5,1.5c-0.5,1-1,1.5-1,2.5
            c0,0.5,0,1.5,0,2c0,0.5,0,1-0.5,2c0,1,0,2-0.5,3c-0.5,1-0.5,1.5-1,2.5c0,1-0.5,1.5-0.5,2c0,1-0.5,2-0.5,2.5s0,1-0.5,2
            c0,1-0.5,2-1,3c0.5,0.5,0,1-1,1v-2.5V232v-0.5V231c-0.5-1.5-1-2-1.5-2.5c-0.5,0-0.5-1,0-2c0.5-1,0.5-1.5,1-2c0.5-0.5,1-1,1.5-1
            c0,0,0.5-0.5,0.5-1.5v-1c-0.5-0.5-0.5-0.5-1-1c0,0-0.5-0.5-0.5-1c0-1,0.5-1.5,1-2.5s1-1.5,1-2.5c0-2,0.5-3.5,1-4.5
            c0.5-1,1-2.5,1-4.5c0-1.5,0.5-3,1-4c0.5-1.5,1-3,1.5-4.5c0.5-1,0.5-2,0.5-2.5c0-0.5,0-1.5,0.5-2c0.5-0.5,0.5-1.5,1-2.5
            c0.5-1,0.5-2,0.5-2c0-0.5,0-1.5,0.5-2c0.5-1,0.5-2,0.5-2.5c0.5-1,0.5-2,1-2c0.5-0.5,0.5-1,1-2c0-1,0-2,0.5-2.5
            c0.5-0.5,0.5-1,1-1.5c0.5-1,0.5-1.5,0.5-2c0-0.5-0.5-1-0.5-2c-0.5-1-0.5-1.5,0.5-2c0.5-0.5,0.5-1.5,0.5-2.5c0-0.5,0-1.5,0.5-2.5
            c0-2,0-2.5,0-3c0-0.5,0-1.5,0.5-2c0.5-1,1-2,1-3c0.5-1,0.5-1.5,1-2.5c0.5-1,0.5-1.5,1-2.5c0.5-2,1-3.5,2-5s1.5-3,1.5-4
            s0.5-2.5,1.5-4.5c0.5-0.5,0.5-0.5,0.5-1c0.5-0.5,1-1,1-1.5l0.5-1l0.5-0.5c0.5-0.5,1-1,1.5-2c0-0.5,0-0.5,0.5-0.5
            c0,0,0.5-0.5,0.5-1c0.5-1,1-2,2.5-3.5c0.5-0.5,1-1,1.5-2c0.5-1,0.5-2,0.5-2c0-0.5,0.5-1,1-1.5c0-0.5,0-1,0.5-1.5
            c0-0.5,0.5-0.5,0.5-1c0-1,0-1.5,0.5-2c0-0.5,0.5-1.5,1-2c0.5-3.5,1.5-6.5,2.5-9c1-3,1.5-6,2.5-8.5s1.5-5.5,2.5-8.5
            c0-1,0-1.5,0.5-2c0.5-0.5,1-1.5,1-2s0.5-1.5,1-2c0,0,0-0.5,0.5-1c0,0,0-0.5,0.5-0.5v-0.5L63,80c0-1-0.5-2-1-2
            c-1-0.5-1.5-1-1.5-1.5s0-1,1-1.5c1-0.5,1.5-0.5,1.5-1c-0.5-0.5-0.5-0.5-1-1c-0.5-1-0.5-1.5,0.5-2c0.5-0.5,1-0.5,1.5-0.5
            c0.5-0.5,1-0.5,2,0l1,0.5c0-0.5-0.5-1-1.5-2.5s-2-2.5-2-2.5c0-0.5,0.5-1,1-1.5s1-0.5,1.5-1s1-0.5,1.5-1C68,62,68,61.5,68,61
            c0-0.5,0-1,0-1.5c0-0.5,0.5-1.5,1.5-2c1-0.5,1.5-1,2.5-2c0.5-0.5,1-0.5,1.5,0c0.5,0.5,1.5,0,2,0c0.5-0.5,1.5-0.5,2-1
            C78,54,78.5,54,79,54c1-0.5,1.5-0.5,2-1c0.5,0,1-0.5,2-1c0,0,0.5-0.5,1-0.5l1.5-1.5c-1,0-0.5,0,0-0.5c0.5,0,1-0.5,1.5-1
            c0.5-0.5,1-1,1.5-1.5c0.5-0.5,1-1,1.5-1c0.5-0.5,1-1,2-1c0.5-0.5,1-0.5,1-0.5c-0.5-1-0.5-1.5,0-2c0.5-0.5,0.5-1,1-2
            c0.5-0.5,1-1,1.5-1s1,0,2-0.5c0.5,0,1,0,2,0s1,0,0,0.5c-1,0.5-1,1.5-0.5,1.5c0.5,0.5,1,0.5,2,0.5c0,0,0-0.5,0.5-0.5
            c0,0,0.5,0,0.5-0.5l0.5-0.5c0.5-0.5,1-0.5,1-0.5s0.5,0,1,0.5c1,0,1.5,0.5,1.5,0.5s1,0,1.5,0.5c2,0,2.5,1,3,2.5c0,0.5,0.5,1,1,1.5
            c0.5,0.5,1.5,0.5,2.5,0.5c0,0,0.5,0,0.5-0.5c0.5,0,0.5,0,0.5,0c-1-0.5-1.5-1-2-1.5c0-0.5,0.5-1,1-1c1,0,1.5,0,2,0.5c0,0,0,0.5,0,1
            c0,0.5-0.5,1-0.5,1.5c0.5,0,1,0.5,1.5,1l4.5-1.5c1.5,0,3,0,4.5,0c1,0,1.5,0,2-0.5c0.5-0.5,1.5-0.5,2-0.5c3,0,6-0.5,9-1.5
            c3-0.5,6-1.5,8.5-2.5c2.5,0,4-0.5,5.5-0.5s3-0.5,4.5-1s3-0.5,4.5-1c1.5,0,3-0.5,4.5-1c1-0.5,2-0.5,2.5-0.5c1-0.5,1.5-0.5,2-0.5
            c0.5,0,1.5,0,2-0.5c4.5-0.5,8.5-1.5,12.5-2s8-1,12-1.5c1.5-0.5,3-0.5,4.5-1c1.5,0,3-0.5,4.5-0.5c2.5,0,3.5-0.5,5.5,0
            c1,0.5,1.5,0.5,2,0c0.5-0.5,0.5-0.5,1-0.5c1,0,1.5,0,2,0c0.5,0,1,0.5,1.5,0.5c0.5,0,1,0,2,0s1.5,0,1.5,0c2,0.5,3.5,0.5,4.5,0.5
            c1.5,0,3-0.5,4.5-0.5c0.5,0,0.5,0,1,0c0.5,0,1,0,1,0c0.5,0,1,0,1.5-0.5c0.5,0,1.5-0.5,2-0.5c1,0,1.5,0,2.5,0c1,0,2,0,4-0.5
            c2,0,3-0.5,4-0.5c1.5,0,3-0.5,4.5-0.5c1.5-0.5,3,0,4,0c1,0,1,0,1,0.5s0,0.5,1,1c1,0.5,1.5,0.5,2,0c0.5-0.5,1-0.5,2,0
            c2,0.5,2.5,1,2,1c-0.5,0.5-1,0.5-2,0.5s-1.5,0-2.5,0.5c-0.5,0-1,0.5-0.5,1.5c0.5,0,1-0.5,1.5-0.5c1,0,2,0,2.5-0.5c1,0,1.5,0,2,0.5
            s1,0.5,1.5,1c0,1,0,1.5-1,1c-1,0-1.5,0-2,1c0,0.5-0.5,0.5-1,1s-1.5,0.5-2,0.5c-1,0-2.5,0-3.5,0.5s-1.5,0.5-2,0.5c-0.5,0-1,0-2,0
            c-1,0.5-1.5,0.5-2,0.5c-0.5,0-1,0.5-2,0.5c-1,1-2,1.5-2.5,1.5c-0.5,0-1.5,0-2,0s-1,0.5-0.5,0.5s1,0,2,0c1,0,1.5,0,2.5,0
            c1,0,1.5,0,2,0c0.5,0,1,0.5,2,0.5s1.5,0.5,1.5,0.5c0.5,0,1,0,2-0.5c1,0,1.5-0.5,2.5-0.5s1.5,0,2,0c0.5,0,1,0,2,0.5
            c0.5,0,1,0,1.5-0.5c0.5-0.5,1.5-0.5,2-0.5c1.5,0,2.5,0,3,0.5c1,0.5,1.5,0.5,2,0.5c0.5,0,1,0,2-0.5c0.5,0,0.5,0,1,0
            c1-0.5,1.5-0.5,1.5-0.5h1.5c1,0,1.5,0,1.5,0S279.5,39.5,280,39.5z M15.5,252.5c-1,0.5-2,0.5-1.5-0.5c0-0.5,0.5-1,1.5-1
            C15.5,251.5,15.5,252,15.5,252.5z M22.5,241l-0.5-0.5c0,0-0.5,0-1,0.5l1,1.5c0.5,0.5,0.5,0.5,1-0.5v-1H22.5z M22.5,245.5
            c-0.5-1-1-1.5-1.5-0.5C21,246,21.5,246,22.5,245.5z M22,218.5c-0.5-0.5,0-0.5,1-0.5v0.5C22.5,219,22,219,22,218.5z M22.5,246.5
            c0.5,0.5,1,0.5,1.5-1V245C22.5,245.5,22,246,22.5,246.5z M24,207.5c0.5,1,1,1.5,1,1c0.5-0.5,1-0.5,2,0c0.5-0.5,1-1,1.5-1.5
            c0.5-0.5,1-1.5,1-2.5c0-0.5,0-1,0.5-2c0-1,0-2,0-2c-0.5-1-0.5-1.5-1-1.5c-0.5-0.5-1,0-1,1s-0.5,1.5-0.5,2c-0.5,0.5-0.5,1.5,0,2.5
            c-0.5,1-1,1.5-1.5,1.5C25,206,24.5,206.5,24,207.5z M24.5,234.5C24.5,234,24.5,234,24.5,234.5L24.5,234.5z M30.5,195.5
            c-1-0.5-1.5,0-1.5,1.5C30.5,197.5,31,196.5,30.5,195.5z M80,191.5c0,0.5,0.5,0.5,1,1c0.5,0.5,1-0.5,1-2c0-0.5-0.5-0.5-1.5-1
            C80,189.5,80,190,80,191.5z M147.5,203.5c-0.5,0.5-0.5,0.5-0.5,1s0.5,0.5,1,0C149,204,148.5,203.5,147.5,203.5z M156,201.5
            c0,0,0,0.5,0,1c0,0.5,0,0.5,0.5,1c1,0,1.5,0,1.5-1C157.5,201.5,157,201,156,201.5z M156,242.5v2c0,0.5,0.5,1,1.5,1s2-0.5,2.5-0.5
            c1-0.5,1-1,1-1c-0.5,0-1,0-1.5,0c-1,0-1.5,0-1.5-1c-0.5-1-1-1-1.5-0.5v0H156z M165.5,242C165,242.5,165.5,242.5,165.5,242
            C166.5,242,166.5,242,165.5,242z M167,214c0,0.5,0.5,0.5,1,0.5c1,0,1.5-0.5,1-0.5C168.5,213.5,168,213.5,167,214L167,214z
             M170.5,197c0.5,0.5,0.5,1,0.5,1h-0.5c-0.5,0-0.5,0-0.5-0.5C169.5,197.5,170,197.5,170.5,197L170.5,197z M183,240.5
            c0.5,0,0.5,0,1,0c0.5,0,1,0.5,2,0.5c0.5,0,0,0-1,0.5c-1,0-1.5,0.5-2,0.5s-0.5,0.5-1,0.5c-0.5,0-0.5,0.5-1,0.5
            c-0.5,0.5-1,0.5-1.5,0.5c-1,1-2.5,1.5-3.5,2c-1,0.5-2,0.5-3,0.5c-1,0-1.5-0.5-1-1.5c0-0.5,0.5-1,1-1.5c0.5-0.5,1-1,1.5-0.5
            c0,0,0.5,0,1.5,0s2,0,3-0.5c1,0,1.5-0.5,2-0.5C182,241,182.5,240.5,183,240.5z M179.5,205.5c0,0.5-0.5,0.5-0.5,1
            c0,0.5,0.5,1,1.5,1c0.5,0,0.5-0.5,0.5-1C180.5,206,180,205.5,179.5,205.5z M182,224.5c-1,0.5-1,1.5-1,1.5c0.5,0.5,1,0.5,1.5-0.5
            l0.5-0.5c0.5,0,0.5-0.5,0.5-0.5c0,0.5,0.5,0.5,2,0.5c1-0.5,1.5-1,2-1s1,0,2-0.5c0,0,0-0.5-0.5-1c-0.5-0.5-1-1-2-0.5l-0.5,0.5
            c0,0-1,0.5-2,1C184.5,223.5,183.5,224,182,224.5z M184.5,236c-0.5,0-0.5,0-0.5,0c0-0.5,0-0.5,0-0.5c0.5-0.5,0.5-0.5,1,0
            C185,235.5,185,235.5,184.5,236z M186,209.5c0,0,0.5,0,1.5-0.5s1-0.5,1-0.5c-0.5,0-1.5,0-2.5,0.5V209.5z M186.5,241L186.5,241
            C187,241,187,241,186.5,241z M192.5,214.5c0.5-0.5,0.5-1.5,0.5-2c0-0.5-0.5-0.5-2,0l-0.5,0.5c-0.5,0.5-0.5,1-0.5,1
            s0.5,0.5,0.5,1.5c0,0.5,0,1,0,1.5c0,0.5-0.5,0.5-1,0l-0.5-0.5c0-0.5-0.5-0.5-1,0c0,0.5,0,1-0.5,1.5c-0.5,0.5-0.5,1,0,1.5
            c0.5,0,1,0,1.5-0.5c0.5,0,1-0.5,1.5-0.5c0.5,0,0.5-0.5,0.5-1.5C192,216,192.5,215.5,192.5,214.5z M191,200.5c-0.5,0.5-1,0.5-1.5,1
            c-1,0.5-1,0.5-1,1c0,0.5,0.5,1,1.5,1s1.5,0,1.5-1c0-0.5,0.5-1,1-1.5c0.5-0.5,0.5-1,0-1C192,200.5,191.5,200.5,191,200.5z M189,234
            c1,0.5,1,0.5,0.5,1C188.5,235.5,188,235,189,234z M191,137.5c0.5,0,0.5,0,0.5,0c0,0.5,0,0.5-0.5,0.5h-0.5
            C191,138,191,138,191,137.5L191,137.5z M193.5,222.5c0-1-0.5-1.5-1-1c-0.5,0.5-0.5,0.5-1,1c0,0-0.5,0.5-1,0.5c0,0,0.5,0,1,0.5
            l0.5,0.5C193,224,193.5,223.5,193.5,222.5z M194.5,206.5c-0.5,0.5-0.5,0.5-0.5,1c0,0.5,0.5,0.5,0.5,0.5c0.5,0,0.5,0,1,0
            c0.5,0,0.5,0,0.5-0.5c1-2,0.5-2.5-1.5-1.5C194.5,206.5,194.5,206.5,194.5,206.5z M195.5,200.5c0,1,0,1.5,1,2c1,0,1.5,0,1.5-1
            c0-0.5-0.5-1-1-1.5c-0.5-0.5-1-1-1.5-0.5V200.5z M201.5,214c-0.5,0.5-0.5,0.5-1,1c-0.5,0-0.5,0.5-1,1c0.5,0,0.5,0,1,0
            c0.5,0,1,0,1,0c1.5-0.5,2.5-1,4-1c1.5,0,3-0.5,4-1.5c0,0,0-0.5-0.5-1.5c-0.5-1-1-0.5-1.5,0.5c0,0.5-0.5,0-1-0.5
            c-0.5-0.5-1-1-2-1.5c-0.5,0.5-0.5,0.5-0.5,1c0,0,0,0.5-0.5,0.5c-1,0-1.5,0.5-2,1C202,213.5,202,214,201.5,214z M201,200.5
            c-0.5,0.5-0.5,1.5,0.5,2c0,0,0.5,0.5,1,0.5c0.5-0.5,0.5-1,0.5-1.5C202.5,200.5,202,200,201,200.5z M208,220.5c1,0,1.5,0.5,1,2
            c-1,2-2.5,2.5-3.5,1c0-1,0-1.5,0.5-2C206.5,221.5,207.5,221,208,220.5z M207,204c-1,0.5-1,0.5-1,1c0.5,0.5,1,0.5,2,0
            c0.5,0,0.5-0.5,1-0.5c0,0,0.5,0,1-0.5c0.5-0.5,1-0.5,0.5-0.5c-0.5,0-1,0-2,0C207.5,204,207.5,204,207,204
            C207.5,204,207.5,204,207,204z M214.5,138.5c0,0-0.5,0-1,0c-0.5,0-0.5,0-1,0c0,0,0.5,0,1,0S214,138.5,214.5,138.5z M214.5,197.5
            l0.5-0.5h1c0.5,1,0,1.5-0.5,1.5C214.5,198.5,214.5,198,214.5,197.5z M216.5,218c1,0,1,0,0.5,0.5c-0.5,0.5-1,0.5-1.5-0.5h0.5H216.5
            z M222.5,211.5c1,0,1.5,0.5,1.5,1c0,0.5-0.5,0.5-0.5,1c-0.5,0.5-1,1-1.5,1.5c-0.5,0.5-1.5,1-2.5,1c-0.5,0-1,0-1.5,0
            c-1,0-1.5,0-1.5,0c-0.5-1-0.5-1.5,0-1.5c0.5-0.5,1-0.5,2-1c0.5-0.5,0.5-0.5,1-0.5C220,212,221,212,222.5,211.5z M220,217
            c0.5-0.5,1-0.5,2-0.5c1,0,1,0.5,1,1.5c0,0.5-0.5,0.5-1.5,0.5C220.5,218,220,217.5,220,217z M226.5,216l1-0.5
            C227.5,216,227,216,226.5,216s-0.5,0.5-1,0.5C226,216,226.5,216,226.5,216z M241,189.5c0.5-0.5,0.5-0.5,1,0
            C242.5,189.5,242,189.5,241,189.5z M243.5,189c0.5-0.5,1-0.5,2-0.5c0.5,0,1,0.5,1,1.5c0,0-0.5,0-1,0
            C244.5,189.5,244,189.5,243.5,189z M244,208c0,0,1-0.5,2-0.5s1.5,0,0.5,1c-0.5,0.5-0.5,0.5-1,0.5s-1,0-1.5,0c-0.5,0-1,0-1,0
            C243.5,208.5,243.5,208.5,244,208z M256,196.5c0.5-1,1-1,2-0.5c-0.5,1-1,1.5-1.5,1.5C256,198,256,197.5,256,196.5z"/>
        <path d="M472,64c0.5,1.5,0.5,2.5,0.5,4s0.5,2.5,0.5,3.5c0,0.5,0.5,1,0.5,1.5s0,1-0.5,2l-1,1c-0.5,0.5-1,1-2,1.5
            c-0.5,0.5-1,1-1.5,1.5c-0.5,0.5-1,1-1,1c-1,1-2,2-2,3c0,1-1,1.5-2,2.5c-2,2-4.5,3.5-6.5,4.5s-4.5,2.5-7,4c-1,1-2.5,1.5-4,2
            c-1.5,0.5-2.5,1-4,2c-1.5,0.5-3,1.5-4,2.5s-2.5,1.5-3.5,2v0.5H434c-1,0.5-2.5,1.5-3,1.5s-2,1-2.5,1.5c-0.5,0.5-1,0.5-1,0.5
            c-0.5,0-0.5,0.5-1,0.5c-0.5,0.5-1.5,1-2,1.5c-1,0.5-1.5,0.5-2.5,1c-0.5,0.5-0.5,0.5-1,1c-0.5,0-1,0.5-1.5,0.5c-0.5,0-1,0-1,0.5
            c0,0.5-0.5,0.5-1,0.5c-1,0.5-1.5,1-2.5,1.5c-0.5,0.5-1.5,1-2.5,1.5c-1,0-2,0.5-2.5,1c-0.5,0.5-1.5,1-2,1.5c-0.5,0-0.5,0-0.5,0
            s0,0-0.5,0h-0.5c0,0.5-0.5,0.5-0.5,0.5s0,0-0.5,0.5L405,119h0c-0.5,0-0.5,0.5-1,0.5c-0.5,0-0.5,0.5-1,0.5h-0.5
            c7.5,2.5,14.5,5.5,21.5,9.5c4,2.5,7.5,5.5,11.5,8.5c3.5,3.5,7,7.5,9.5,12c0.5,1,1,2.5,1.5,3.5c0.5,1,1,2,1.5,3.5l1.5,3.5l0.5,2
            l0.5,1l0.5,1c0.5,2,1.5,4,2,6.5l1,3c0,1,0.5,2,0.5,3.5c0.5,4.5,0.5,9,0.5,14s-1,9.5-2,14c-2.5,9-6,17-11,23c-5,6-10,11.5-15,16.5
            s-10.5,9-16,12.5c-1,0.5-2,1-3,1.5c-1,0.5-1.5,1-2.5,1.5c-0.5,0.5-1.5,1-2,1.5c-1.5,1-2.5,2-3.5,2c-1,0.5-2,1-3.5,2
            c-0.5,0.5-0.5,0.5-1,0.5c-0.5,0-0.5,0.5-1,0.5c-3.5,2-7.5,4-11,5c-3.5,1-7,2.5-10.5,4.5c-1,0.5-2,1-3,1.5c-1,0.5-2,0.5-3,1
            c0,0-1,0-2,0.5c-1,0.5-2,0.5-3,1c-2,0.5-4,1.5-6,2c-1,0.5-2,0.5-2.5,0.5s-1.5,0.5-2.5,0.5c-2,0.5-4,1-6,1.5c-2,0.5-4,1-6,1.5
            c-0.5,0-1,0.5-2,0.5c-1,0-2,0-2,0.5c-0.5,0-1,0.5-2.5,1c-1,0.5-2.5,0.5-3,0.5c-2,0-3,0-4.5,0c-1,0-2,0-3.5,0.5c-1,0-2,0-2,0
            c-0.5,0.5-1,0.5-2,0.5c-1,0-1.5,0-2.5,0.5c0,0-1,0-2,0.5c-1,0.5-2,0-2.5,0c-0.5,0-1,0-2,0s-2,0-3,0.5c-1,0-2,0-3,0
            c-1,0-1.5,0-2.5,0c-3.5,0.5-7,0.5-10.5,0.5c-3.5-0.5-7-0.5-11,0c-2,0.5-4,0.5-5.5,0.5c-2,0-3.5-0.5-5.5-1h-2c-0.5,0-1,0-1.5,0
            s-1,0-1.5,0c-1,0-2,0-2.5,0s-1.5,0-2.5-0.5c-2-0.5-4-0.5-5.5-0.5c-1.5,0-3.5-0.5-5.5-1c-0.5,0-1.5-0.5-3-0.5c-1-0.5-1.5-0.5-1-0.5
            c2,0,4,0,6,0c2,0.5,3.5,0.5,5,0.5c1,0,2,0,2.5-0.5c0.5-0.5,0-0.5-1-1c-0.5-0.5-1-0.5-1.5-1c-0.5-0.5-1-0.5-1.5-0.5h-2
            c-1,0-2-0.5-2-0.5c-0.5-0.5-1-0.5-2-0.5c-0.5,0-0.5,0-1,0.5l-0.5,0.5c0,0-0.5,0-0.5,0.5c-1,0.5-2,0.5-2,0.5c-0.5,0-1-0.5-2-1
            c-0.5,0-1.5-0.5-2-1c-0.5-0.5-1-1-1.5-1c-1-0.5-2-1-2-0.5c-0.5,0.5-1,0.5-2.5,0.5c-0.5-0.5-1-0.5-1-0.5s-0.5,0-1-0.5
            c-1,0-1.5-0.5-2-1c-0.5-0.5-0.5-0.5-1-1c0.5,0.5,0.5,0.5-0.5,0.5c-0.5,0-1,0-1.5-0.5c0.5-0.5,0-1.5-0.5-1.5c-0.5-0.5-1.5-1-2-1
            c-1-0.5-1.5-1-1.5-1.5s1-1,2-1c1-1,2-1,2.5-1c0.5,0,1.5,0,2.5,0c1,0,2,0.5,3,0.5c1,0,1.5,0,2,0.5c0.5,0,1.5,0,2.5,0
            c1,0,1-0.5,0.5-1.5c-0.5-0.5-1.5-1-2-1c-0.5,0-1.5-0.5-2-1c-0.5,0-1-0.5-1.5-0.5c-0.5,0-1,0-1.5-0.5c-0.5,0-0.5-0.5-0.5-0.5
            s-0.5,0-0.5-0.5h-0.5c-0.5-1-1-2-0.5-2c0.5-0.5,1-0.5,2,0c1,0,2,0.5,2.5,0.5s1.5,0,2.5,0.5c1,0,2,0.5,2,0.5c0.5,0.5,1,0,2,0
            s2,0,2.5,0s1.5,0,2.5-0.5c0,0,0.5,0,0.5,0.5c0.5,0.5,0.5,0.5,1,0.5c0.5,0.5,1,1,1.5,1c1-0.5,1.5-1,1.5-1.5c0-1,0-1.5-0.5-1.5
            c-1-1-1-1.5-0.5-1.5s1-0.5,1.5-0.5s1-0.5,2-0.5c0.5,0,1.5,0,2.5,0c1,0,2,0,3,0c1,0,2,0,2-0.5c0.5-0.5,1.5-0.5,3,0
            c1.5,0.5,1.5,0,1.5-1c0-0.5,0.5-1,1.5-1s1.5,0.5,2,1c0,0.5,0.5,0.5,0.5,0.5c0.5,0,0.5,0,1-0.5c0.5-0.5,0.5-0.5,0.5-1
            c0,0,0.5-0.5,1-0.5c1,0,1.5,0.5,2.5,0.5s1.5,0,2.5-0.5c0-1-0.5-1.5-1.5-1.5c-0.5,0-1.5,0-2,0c-1,0-1.5,0-1.5,0
            c-0.5,0,0-0.5,0.5-1.5c0-0.5,0.5-0.5,1-1c0.5-0.5,1-1,1-1.5c-1-1-1.5-1.5-1.5-1.5c0-0.5,0.5-0.5,1.5-0.5s1.5,0,2,0s1,0,2-0.5
            c1,0,1.5,0,1.5-0.5s0.5-1.5,1-2.5c0.5-0.5,2-0.5,4-0.5c2,0,4-0.5,5.5-0.5c2,0,3-0.5,4.5-0.5c1,0,2.5-0.5,4.5-1c2-0.5,3.5-0.5,5-1
            c1.5,0,3.5-0.5,5-1c1,0,2-0.5,2-1c0.5-0.5,1-0.5,2-1c1,0,1.5,0,2,0s1-0.5,2-1c1-0.5,1.5-0.5,2.5-0.5s1.5-0.5,1.5-0.5
            c0.5-0.5,1-0.5,1-0.5s0.5-0.5,1-0.5c0.5-0.5,0.5-1.5,0.5-2c0-1,1-1.5,3-1.5c0.5,0,1.5-0.5,2.5-1c1-0.5,1.5-1,1.5-1
            c0.5-0.5,1-0.5,1.5-1c0.5-0.5,1.5-0.5,2-1c0.5-0.5,1.5-0.5,2-1c1-0.5,1.5-0.5,1.5-0.5c3-1,6-2,9-3.5s6-3,8.5-4.5c1-0.5,2-1,3-1.5
            c0.5,0,0.5-0.5,1-1c0.5-0.5,1-1,2-1.5c1-0.5,1.5-0.5,1.5-1s1-1,1.5-1s1,0,1.5-0.5c0.5-0.5,1-0.5,1.5-1l1-0.5l1-0.5
            c0.5,0,1.5-0.5,2.5-1.5c1-0.5,1.5-0.5,2.5-1c0.5-0.5,1.5-1,2-1.5c2-1.5,3.5-2.5,5-3c1.5-0.5,3-2,4-3c0,0,0.5-0.5,1.5-1
            c1-1,1.5-1.5,2-2c0.5-0.5,1.5-1,2-1.5s1-1,1.5-1.5c2.5-2.5,4-4.5,4-6.5c0-0.5,0-1,0-1.5c0-0.5,0-0.5,0.5-1c0-0.5,0.5-1,0.5-2
            c0,0-0.5-0.5-0.5-1l0.5-0.5V188c0,0,0-0.5-0.5-1.5c0,0-0.5,0-0.5-0.5c0,0,0-0.5-0.5-0.5V185v-0.5V184v-0.5V183c-0.5-1-1.5-2-3.5-3
            c-0.5,0-0.5-0.5-1-0.5c-0.5,0-0.5,0-1-0.5c-0.5,0-0.5-0.5-1-0.5c-0.5,0-0.5,0-1-0.5c-0.5,0-1-0.5-1-0.5s-1,0-1-0.5c-0.5,0-1,0-1,0
            c-0.5,0-1,0-1.5,0c-1,0-1.5-0.5-2-0.5c-0.5,0-1,0-2,0c-1,0-1.5-0.5-2.5-0.5c-0.5,0-1.5,0-3,0c-1,0-2-0.5-2.5-0.5c-0.5,0-1.5,0-3,0
            c-1,0-2,0.5-2.5,0.5c-1,0-2,0-3,0c-1.5,0-3,0-4.5,0.5c-1.5,0-3,0.5-4.5,1c-1,0-1.5,0.5-2,0.5c-0.5,0-1,0-2,0.5
            c-1,0-1.5,0.5-2.5,0.5c-1,0-1.5,0-2.5,0.5c-3.5,0.5-6.5,0.5-9,1c-2.5,0-6,0-9.5,0h-5H316h-2c-1,0-2,0-2.5,0c-0.5,0-1.5,0-2.5,0
            c-1-0.5-2-1-3-1.5c-1-1-2-1.5-3-2c-0.5,0-1-0.5-2-1c-1-0.5-1.5-0.5-1.5-0.5c-1-0.5-1.5-0.5-2-0.5c-0.5,0-1,0-2-0.5
            c-0.5,0-1-0.5-1-1.5c0-0.5-0.5-1.5-0.5-2.5c-0.5-0.5-1-1.5-1.5-2c-0.5-0.5-1-1-1-1L291,167c0,0,0-0.5-0.5-0.5c0,0-0.5,0.5-1,0.5
            c-1,0.5-2,0.5-2.5,0c0.5,0.5,0.5,0.5,0.5,1c0,0-0.5,0.5-1,0.5c0-0.5-0.5-1-1-1c-0.5,0-1,0-1.5,0.5c-1,0-1.5,0-1.5-0.5
            c0-0.5,0-1,0.5-1.5c1-0.5,1.5-0.5,1.5-1c0-0.5,0.5-0.5,1.5-1c0.5,0,0.5-0.5,1-0.5c0.5-0.5,1-0.5,1-1c-0.5-0.5-1-1-1-2
            c-0.5,0-0.5,0-0.5,0.5c-0.5,0-1,0.5-2,1l2.5-2h-0.5c-1-0.5-1-0.5-1-1s0.5-1,1-1.5c1-0.5,1.5-0.5,1.5-1c0.5-0.5,1-0.5,1.5-1
            c-0.5-0.5-0.5-1.5-0.5-2s0-1.5,0-2s0.5-1,0.5-1.5c0-1,0-1.5-0.5-2.5c0-3.5,0.5-6.5,1-9c0-1,0-2-0.5-2.5s0-1,1-2c0,0,1-0.5,2-1
            s2-1,3-1.5c1,0,1.5-0.5,2.5-1s1.5-1,1.5-1c1-0.5,2-1,2.5-1.5s1-1,1.5-1.5c0.5-0.5,1-1,1.5-1.5c0.5-0.5,1-1,2-1c2.5-1,4.5-1.5,7-2
            s4.5-1,7-1.5l0.5-0.5c1.5-1,2.5-1.5,3.5-1.5c1-0.5,2-1,3.5-2c1-0.5,2.5-1.5,3.5-2s2.5-1.5,4-2c0.5-0.5,1-0.5,1.5-1
            c0.5-0.5,0.5-1,1.5-1s2-0.5,3-1.5c0.5-0.5,1.5-1,2-1c0.5,0,1-0.5,1.5-1c0.5-0.5,0.5-0.5,0.5-0.5s0-0.5,0.5-0.5c0-0.5,0-1.5,0-2
            c0-0.5,0.5-1,2-2c0.5,0,0.5-0.5,1-0.5s0.5-0.5,1-1s1-0.5,1.5-1c0.5-0.5,1.5-1.5,3-2.5c0.5,0,0.5-0.5,1-0.5c0.5,0,0.5-0.5,1-1
            s1-0.5,1.5-1c2.5-1.5,5-3,7.5-4.5c2.5-1.5,5-3,7-4.5c0.5,0,0.5-0.5,0.5-0.5s0.5,0,0.5-0.5h-1.5c-2,0-4,0.5-6,1c-2,0.5-4,1-6,1
            c-2,0-4,0-6,1c-2,0.5-4,1-6.5,1c-1,0.5-2,0.5-2.5,0.5s-1.5,0-2.5,0.5c-1,0-2,0-3,0.5c-1,0-1.5,0.5-2.5,0.5c-1.5,0-3,0.5-5,0.5
            c-1.5,0-3.5,0.5-5,1c-0.5,0-1.5,0.5-2,0.5s-1,0-2,0.5c-0.5,0.5-1.5,0.5-2,0.5c-0.5,0-1.5,0-2,0.5c-0.5,0-1,0-1,0c-0.5,0-1,0-1,0
            H316c-1,0-2.5,0-3.5,0c-1.5,0.5-2.5,0.5-4,0.5H305c-0.5,0-1,0-1,0c-0.5,0-1,0-1,0h-1.5c-0.5,0-2,0-3.5-0.5c0,0-0.5,0-1.5-0.5
            c-0.5,0-0.5-0.5-1-1c-1-1-0.5-2,1-2.5c0.5-0.5,0.5-0.5-0.5-1c-1,0-1.5-0.5-1.5-0.5c-0.5-0.5-0.5-1-1-1.5c-0.5-0.5-0.5-1-0.5-1.5
            c-0.5-1-1.5-1-3-1c-0.5,0.5-1,0.5-1.5,1c-0.5,0-1,0-1.5-0.5c0,0,0-0.5-0.5-1.5c-0.5-0.5-0.5-1.5-0.5-2c-0.5-0.5-0.5-1-1-1
            s-0.5-0.5-0.5-1.5c0,0,0.5-0.5,1-0.5c0.5,0,0.5-0.5,0.5-1.5c0,0-0.5-0.5-1-1s-1-1-1-1c-0.5-0.5-0.5-1,0-1.5c0.5-0.5,0.5-1,0-1.5
            s-0.5-1-1-1.5c-0.5-0.5-0.5-1,0-1.5s0.5-1,0.5-1.5s-0.5-0.5-1-1.5c0-0.5,0-0.5,0-1c0.5-0.5,0-1,0-1.5c-0.5,0-0.5,0-0.5,0
            s0,0-0.5,0H281c-0.5-0.5-0.5-0.5-0.5-1c0-0.5,0-0.5,0-0.5c0.5-0.5,0.5-1,0-2c-0.5-0.5-0.5-1,0-1.5c0.5-1,0.5-1.5,0.5-2
            c-0.5-0.5,0-0.5,1-1s2-1,2.5-1.5c0-2,0.5-3,1.5-3s2-0.5,3.5-1c1-0.5,1.5-0.5,1.5-1c0.5-0.5,1-0.5,1.5,0c1.5-0.5,2-1,2.5-1.5
            c0.5-0.5,0.5-1,1-1.5c0-0.5,0-0.5,0-0.5s0,0,0-0.5c-1-0.5,0-1,1,0c1,0,2,0,3-0.5c1.5-0.5,2.5-0.5,3.5-1c1-0.5,2-0.5,3.5-1
            c3-0.5,5.5-1,8-1.5h0.5l1.5-0.5c0.5,0,1,0,1,0c0.5,0,1,0,1,0c4-0.5,8-1,11.5-1.5c4-0.5,7.5-1,11.5-2c1,0,2-0.5,3-0.5s2-0.5,3-0.5
            c1,0,2,0,3-0.5c1-0.5,2,0,3,0h1c0.5,0,0.5,0,1,0c0,0,0.5,0,1,0s1,0,1.5,0c0.5,0,1,0,1.5,0c1.5,0,2.5,0,3-0.5c0.5,0,1,0,1.5,0
            l0.5,0.5c0.5,0,0.5,0,1-0.5c0.5-0.5,0.5-0.5,1.5-0.5h0.5c0,0,0.5,0,1,0c0.5-0.5,0.5-0.5,1-0.5c0.5,0.5,1,0.5,1,0.5
            c0.5,0,0.5-0.5,1-0.5h2.5h0.5h0.5h1.5c1.5-0.5,2.5-0.5,3,0l0.5,0.5L381,35c0.5,0,1,0,1.5,0c0,0,0-0.5,0.5-0.5c0.5-0.5,0.5,0,0,1
            c0.5,1,0.5,1,1,0.5c0.5-0.5,0.5-1,1-0.5c0,0,0.5,0.5,1,0.5c0.5,0,0.5,0,1-0.5c0.5-0.5,0.5-0.5,0.5-1s0.5-0.5,0.5-1
            c1,0,2,0,2.5,0.5l0.5,0.5c0,0,0,0.5,0.5,0.5c0.5,0,0.5-0.5,0.5-1.5c0.5,0,0.5,0,0.5,0.5c0,0,0,0.5,0.5,0.5c0.5,0,0.5,0,1,0
            c0,0,0.5,0,1,0c1,1,1.5,1,2.5,0c0,0,0-0.5,0.5-1c0.5-0.5,1-0.5,1,0.5c1,1,1.5,0.5,1.5-1c0-1,0.5-1.5,1.5-1.5s1.5,0,1.5,0
            S404,31,405,31c1,0.5,1.5,1,0.5,1c-0.5,0-1,0.5-1.5,1c-0.5,0.5-1,1,0,1c1,0,1.5,0,2-0.5c1.5,0,2.5-0.5,2.5-1.5c0-1,0-1.5,0.5-1.5
            c0.5,0,0.5,0,1,0.5c0.5,0,0.5,0.5,1,0c0.5-0.5,0.5-0.5,0.5-0.5s0.5,0,0.5-0.5c0.5,0,0.5,0,1,0c0.5,0,0.5,0,1,0
            c0.5,0.5,0.5,0.5,1,1c0.5,0,1,0.5,1.5,1h1.5c0.5,0,0.5,0,1,0s1,0,1,0c0.5,0.5,1,0.5,1,1s0.5,0,1-0.5c0.5,0,0.5-0.5,1-0.5
            s1,0,1.5-0.5c1,0,1.5-0.5,1.5-0.5c0.5,0,1,0.5,1.5,1c0,0,0,0.5,0.5,0.5c0,0,0.5,0.5,1,0.5c0.5,0,0.5-0.5,0.5-0.5s0.5,0,0.5-0.5
            c1,0,1.5,0.5,2,0.5c0.5,0,1,0,1,0c0.5,0,1-0.5,1.5-1c0.5-0.5,1-0.5,1.5,0.5c0,0,0.5,0,1.5,0c1,0,1.5,0,2-0.5c0.5,0,1.5,0,2,0
            s1,0.5,1.5,0.5c0.5,0.5,1.5,0.5,1.5,0c0.5-0.5,1-0.5,1.5-0.5c1,0.5,2,0,3-0.5c1-0.5,2.5-0.5,3.5,0c1,0.5,2.5,0.5,3.5,0.5
            c1.5-0.5,3-0.5,3.5,0c0.5,0,0.5,0,1,0c0,0,0.5-0.5,1-0.5c1,0,1.5,0,1.5,0.5c1,0.5,1.5,0.5,2,0c0.5-0.5,1-0.5,1.5-1
            c1.5-0.5,2-0.5,2.5-0.5s1.5,0,2,0c0,0.5,0,1-1,1.5c-0.5,0.5-1.5,0.5-2,0h-0.5c-0.5,0-0.5,0-0.5,0c-0.5,0.5-1,1-1.5,1
            c-1-0.5-2-0.5-3-0.5c-1,0.5-2,1-2.5,1c-1,0-1.5,0-2,0s-1,0.5-1.5,0.5c-1,0-1.5,0.5-2,0.5s-1,0.5-0.5,1c0,1-0.5,1.5-1,1.5
            s-1,0-1.5-0.5c-0.5,1-1.5,1.5-2,1.5c-0.5-0.5-0.5-1,0-1s1-0.5,1-1.5c0,0,0,0-0.5-0.5c0,0.5-0.5,0.5-1.5,0.5s-1.5,0.5-1.5,1
            s0.5,1,1,1c0.5,0,0.5,0.5,0.5,1.5c0.5,1,1,1.5,1.5,1.5h3c0-1,0.5-1.5,0.5-2s0.5-0.5,1-0.5c1,0,1.5,0,2,0c0.5,0,0.5,0,1,0
            c0.5,0,1,0.5,1,1c1,0,1.5,0,1.5-0.5c1-0.5,1.5-1.5,1.5-3c0-1,0.5-1.5,1.5-1.5c1,0.5,2,1.5,2,3c-0.5,1-1,1.5-1.5,1.5s-1,0-2,0.5
            c0,0-0.5,0.5-1,1c-0.5,0.5,0,0.5,1,0.5c0.5,0,0.5,0,0.5,0.5c-0.5,0.5-0.5,1-0.5,1s0,0.5,0,1c-0.5,0.5-1,0.5-1.5,0
            c0-0.5-0.5-1-1-0.5l-0.5,0.5c-0.5,0-0.5,0-1-0.5c-0.5-0.5-1-1-1.5-1c-1,0-1.5,0-1.5,0.5c-0.5,0.5-1,0.5-1.5,0.5
            c-0.5,0-1.5,0-2,0.5s-1,0.5-1.5,0c-1-0.5-1.5-0.5-2,1c0,1-0.5,1-1,0.5s-1-1-1-1c-0.5,0-1,0-2,0c-0.5,0-1,0-1.5,0
            c0,0-0.5,0-1.5,0.5c-0.5,0.5-1,0.5-1.5,1.5c0,0.5,0.5,0.5,0.5,1c0,0.5,0,0.5,0.5,0.5c0,0,0,0.5,0.5,0.5c0,0,0.5,0,0.5,0.5h0.5h0.5
            c0,0,0.5,0,1,0l1.5-0.5c1-0.5,1.5-0.5,2-0.5c0.5,0,1,0,2-0.5c0.5,0,1,0,2,0c0.5,0,1.5,0.5,2,0.5c0,0,0.5,0,1-0.5c-1-1-0.5-1,0-1
            c0.5,0,1,0,1.5,0c1,0.5,2.5,0.5,4-0.5c0.5,0.5,0.5,0.5,1,0.5s0.5,0.5,1,1.5c0.5,1,0.5,1.5,0.5,1.5l1,1.5c0.5,0.5,0.5,0.5,1,1
            c0,0,0.5,0.5,1,0.5c1,0,1.5,0.5,2,1s0,1,0,1.5c0.5,1,0.5,1.5,1,1.5c0,0,0.5,0,0.5,0.5h0.5c0.5,0,1,0.5,1,1c0.5,0.5,1,1,1,1.5
            c0.5,0.5,0.5,1.5,1,2c0.5,0.5,0.5,1,1,2h0.5c1,0,1.5,0,1.5,0.5c0,0.5-0.5,0.5-1,1H473C471.5,63,472,63.5,472,64z M248.5,277
            c0,0-1-0.5-2-1c-0.5-0.5-1-0.5-1-0.5s-0.5,0-1-0.5c-1.5-0.5-2,0-2,0.5c0,0.5,0,1,0.5,1.5c1,0.5,1.5,1,2.5,1s1.5,0,2.5,0h0.5
            C248.5,277.5,248.5,277,248.5,277z M250.5,269.5c1-0.5,1-1,0-2c-1-0.5-1.5-0.5-2.5,0c0,0.5-0.5,0.5-0.5,0.5s0,0,0.5,0.5
            c0,0,0.5,0.5,1,0.5C249.5,269.5,250,269.5,250.5,269.5z M250.5,259.5c-1,0.5-2,0-1.5-0.5C250,258.5,250.5,258.5,250.5,259.5z
             M258.5,260.5H258c-0.5,0-1,0-2,0s-2,0-3,0c-1,0-2-0.5-2.5-0.5c0.5-1,1-1,2-1c1,0,2,0,2.5,0c1,0,1.5,0,2.5,0.5c0.5,0,1.5,0,2,0.5
            c1.5,0,2,0,1,0.5S259.5,260.5,258.5,260.5z M256,253.5l-0.5,0.5c-0.5,0-1,0-1.5-0.5c-0.5-0.5-0.5-0.5,0.5-0.5
            C255.5,253,256,253.5,256,253.5z M261.5,287.5l0.5-0.5c-0.5-0.5-0.5-0.5-1-0.5C260.5,286.5,261,287,261.5,287.5z M261.5,269.5
            c0.5-0.5,0.5-0.5,0-0.5S261.5,269.5,261.5,269.5z M267,288.5c1-0.5,1-1.5,0.5-1.5c-0.5-0.5-1-0.5-2,0s-1,1-1,1.5
            C264.5,288.5,265.5,289,267,288.5z M266.5,259.5c0,0.5-0.5,0.5-1,0.5s-0.5-0.5-1-1.5s0-1.5,1-1S267,258.5,266.5,259.5z M269.5,281
            c0.5,0,1-0.5,1-1c0,0-0.5-0.5-1-0.5c-0.5-0.5-1-0.5-1.5-0.5c-1,1-1,1.5-0.5,1.5C268,281,268.5,281,269.5,281z M288,258.5
            c0-0.5,0.5-1,0.5-2s-0.5-1.5-1-2c-1,0-1.5-0.5-2.5-0.5c-1,0-1.5,0-2.5,0c-0.5,0-1.5,0-2.5,0c-1,0-1.5,0-1.5,0.5
            c-1.5,0.5-3,0.5-5,0.5H273l-1,0.5c0,0,0,0.5,0,1s0,0.5,0.5,1c0,1,0,1.5,0.5,1.5s1,0,1.5-0.5c0.5-0.5,1.5-0.5,2-1
            c0.5-0.5,1-0.5,1.5-0.5c0,0,0.5,0.5,0.5,1c0,0.5,0.5,1,0.5,1c1-0.5,1-1,0-1.5c1-0.5,1.5-0.5,1.5,0s0.5,1.5,1.5,1.5
            c0.5,0,1,0,1.5-1c0.5-0.5,0.5-1,1-1.5s0.5,0,1,0.5C286.5,258,287,258,288,258.5z M278,260c-1,0.5-1,0.5-0.5,1s1.5,0,2.5,0
            c0,0,0,0,0-0.5S279.5,260,278,260z M279,281l0.5-1c-1-0.5-2-0.5-2,0C277.5,281,278,281,279,281z M284,250.5c0,0-0.5,0-1.5,0.5
            s-1.5,0.5-2,1l0.5,0.5l1.5,0.5c0.5,0,1-0.5,1.5-0.5c0.5,0,1,0,1.5-0.5C285.5,251.5,285,251,284,250.5z M282,281v-1l-0.5-0.5
            c-0.5,0.5-1,1-1.5,1c-0.5,0,0,0.5,0,0.5S281,281.5,282,281z M287,251c-0.5-0.5-1,0-1.5,0.5c-0.5,0.5,0,1,1.5,0.5
            C287.5,251.5,287.5,251.5,287,251z M286.5,69.5c0.5,0.5,1,0,1.5-0.5c0-0.5,0-1-1-0.5C286.5,69,286.5,69,286.5,69.5z M291.5,256.5
            C291.5,256.5,292,256,291.5,256.5c0-0.5,0-1,0-1.5c-0.5-0.5-0.5-0.5-1,0s-0.5,0.5-0.5,1s0,0.5,0.5,1C291,257,291,257,291.5,256.5z
             M297.5,255.5c0.5,0,0.5-0.5-0.5-1.5c-0.5-0.5-1-1-2-0.5c0,0,0,0.5,0.5,1.5S296.5,256,297.5,255.5z M300,255v-0.5c0,0-0.5,0-1,0
            v0.5C299,255.5,299.5,255.5,300,255z M385,45.5l-0.5,0.5c0,0.5,0,0.5,0.5,1c0.5-0.5,0.5-0.5,0.5-1C386,45,385.5,45,385,45.5z
             M388.5,35c-0.5,0.5,0,0.5,0.5,0.5c0.5,0,1,0,0.5-0.5S389,34.5,388.5,35z M399,50.5c-0.5,0.5-0.5,1,0.5,1c0.5,0,1-0.5,1-1
            s-0.5-1-1-0.5C399,50,399,50,399,50.5z M403.5,50.5c0,0,0,0,0-0.5s-0.5-0.5-0.5-0.5C403,50.5,403.5,50.5,403.5,50.5z M404.5,50
            c-0.5,0.5-0.5,0.5,0.5,1c0.5,0,1-0.5,1-1C406,49.5,405.5,49.5,404.5,50z M408,38.5c-0.5,0.5-0.5,0.5-0.5,1c0,0.5,0.5,0.5,1.5,0
            c1,0,1,0,1-1C410,38,409,38,408,38.5z M412,32c0.5,0.5,1,0.5,1.5,0C413.5,32,413,31.5,412,32L412,32z M413.5,48l-0.5,0.5
            c-0.5,0.5,0,0.5,1,0.5c1,0.5,1,0,1-0.5C415,48,414.5,47.5,413.5,48z M415.5,40.5c0,0.5,0.5,1,1.5,0.5c0.5-0.5,0.5-1,0.5-1.5
            s-0.5-1-1.5-1V39C415.5,39.5,415.5,40,415.5,40.5z M418.5,38c0,0.5,0.5,1,1,1.5s1,0,1.5,0c0-0.5-0.5-1.5-1-1.5
            C419.5,37,419,37,418.5,38z M427.5,46c0.5-1,0.5-1-0.5-1c-0.5,0-1.5,0-2.5,0.5c0,0,0.5,0,1,0.5s1,0.5,1,1c0,0.5-0.5,1-0.5,1
            c0,0.5,0.5,0.5,1.5,0v-0.5C427.5,47.5,427.5,46.5,427.5,46z M429,36.5c-0.5,0.5-0.5,1.5-0.5,2C429,39,430,39,430,39s1-0.5,1,0
            c0,0,0.5,0,1.5-0.5c1,0,1.5-0.5,1.5-1c0.5-0.5,1-0.5,1.5,0c0.5,0.5,1,0.5,1,1c1-0.5,1.5-0.5,1.5,0c0.5,0.5,0.5,0,1.5-0.5
            c0.5,0,0.5-0.5,1-0.5s0.5-0.5,0-1s-1-0.5-1-0.5s0.5,0-0.5,0.5c-1,0-1.5,0-2,0s-1,0-1.5,0.5c0,0-0.5,0.5-1,0.5s-1,0-1.5,0.5
            c-1,0-1.5,0-2-0.5C430.5,37,430,36.5,429,36.5z M433,46c0.5-0.5,1.5-1,2-0.5c0.5,0,1,0.5,1.5,1c1,0,1.5-0.5,0.5-1.5h-0.5
            c0,0,0,0-0.5,0c-0.5,0-0.5,0-0.5-0.5c-1,0-1.5,0-1.5,0c-0.5,0-1,0-1.5,0l-1,0.5C432,46,432.5,46.5,433,46z M444,36
            c-0.5,0.5-0.5,1,0,1.5c0.5,0.5,1,0,1.5,0c0-0.5,0-1-0.5-1C445,36,444.5,36,444,36z M452,35.5c0,0-0.5,0-0.5,0.5
            c0.5,0.5,0.5,0.5,0.5,0S452,35.5,452,35.5z M456.5,46.5L456.5,46.5V47h0.5C457,46.5,457,46.5,456.5,46.5z M458,35.5
            c0.5-0.5,0.5,0,1,0.5c0,1-0.5,1-1,1C457.5,36.5,457.5,36,458,35.5z M464.5,40.5c-0.5,0.5-0.5,0.5-1,0.5c-0.5-0.5-1-1-0.5-1
            s0.5,0,1,0C464.5,40,464.5,40,464.5,40.5z M468,46c0,0-0.5,0-1,0.5c-0.5,0-1,0.5-1.5,0.5s-1,0-1.5-0.5c-0.5,0-0.5-0.5,0-1.5
            l0.5-0.5c0.5-0.5,2-0.5,3-0.5c0.5,0,0.5,0.5,1,0.5C468.5,45,468.5,45.5,468,46z M470,36.5c0.5,1,0.5,1.5,0,2s-1,1-1,1
            c-0.5,0.5-0.5,0.5-1,1c-0.5,0.5-0.5,0.5-1,0c-0.5,0-0.5-0.5,0-1c0.5-0.5,0.5-1,1-1l0.5-0.5l0.5-0.5c-0.5-0.5-1-1-1-1.5
            c0.5-0.5,0.5-0.5,0.5-1s0.5-1,0.5-1.5c0-0.5,0.5-0.5,0.5,0C468.5,34,469,35,470,36.5z M481.5,46.5c0.5,0,0.5,0.5,1,1
            c0.5,0.5,0,1-1,0.5c-0.5,0-1.5,0-2.5,1c-0.5,0.5-1,1-1.5,1.5c-0.5,0.5-1,0-1-0.5c0-1-0.5-1-1-1s-1,0.5-1,1c0,1-0.5,1.5-1,1
            c-0.5,0-0.5,0-0.5-0.5c0-0.5,0-1-1-0.5c-0.5,0.5-1,0.5-1.5,1c-1,1-2,1-3,0.5c-1-0.5-1-1.5,0.5-2.5c1,0,1.5,0,2,0
            c0.5,0,1-0.5,1.5-0.5c0,0,0.5,0,1.5-0.5c0.5,0,1,0,1.5,0c1,0,1.5,0.5,1.5,0.5s0.5,0,1-0.5s1-1,1.5-1c0.5,0,1,0,1.5-0.5
            C481,46.5,481.5,46.5,481.5,46.5z M470,43.5l-0.5,0.5h-1C469,43.5,469.5,43.5,470,43.5z M472.5,55.5c-1,0.5-1.5,1-1.5,1
            c-0.5,0-1,0-1-0.5c0-0.5,0.5-1,1-1.5l0.5-0.5c0.5,0,1,0,1,0S473,55,472.5,55.5z M475,36c0,0-0.5,0.5-1.5,0.5s-1.5,0-1.5,0
            c-0.5-0.5-0.5-0.5,0-1s1-0.5,1.5-0.5c1-0.5,1.5-0.5,1.5,0C475.5,35.5,475.5,35.5,475,36z M472,44.5h-0.5H472
            C472,44.5,472.5,44.5,472,44.5z M473.5,31.5c0,0-0.5,0-1-0.5c-0.5-0.5-1-1-0.5-1.5h0.5h0.5c0,0,0,0,0.5,0c0,0,1,0,1.5,0.5
            c1,0,1,0.5,0,0.5C474.5,30.5,474,31,473.5,31.5z M476,54c0.5-0.5,1-0.5,1,0c0,0.5-0.5,0.5-0.5,0.5C475.5,54.5,475.5,54.5,476,54z
             M479,44.5c-0.5,0-0.5,0-0.5,0s-0.5,0-1,0c-0.5-0.5-0.5-1,0.5-1.5c0,0,0.5,0,1-0.5c0.5,0,1.5-0.5,2-0.5c0.5,0,1,0,1.5,1
            c0,0-0.5,0-1,0.5C480.5,44,479.5,44,479,44.5z M478,60c0.5,0,0.5,0,0.5,0S478.5,60.5,478,60z M479.5,30.5c-1,0.5-1,0-1-0.5
            s0.5-1,0.5-1.5l0.5-0.5c0,0,0,0,0.5-0.5c1,0,1,0.5,1,1C481,29,480,30,479.5,30.5z M479,34c0.5-0.5,0.5-0.5,1,0.5
            c0,0.5-0.5,0.5-1,0.5C478.5,34.5,478.5,34.5,479,34z M484.5,28c0.5-0.5,1-0.5,1.5,0c0.5,0.5,0,1-0.5,1C484.5,29,484.5,29,484.5,28
            z M487.5,45.5c0.5-0.5,1.5-0.5,2-0.5s0.5,0,0,0.5c0,0.5-0.5,0.5-0.5,0.5s-0.5,0-0.5,0.5c-0.5,0-0.5,0-1,0
            C487.5,46.5,487,46,487.5,45.5z M489,34c-0.5,0-0.5,0-0.5-0.5h1C489.5,34,489.5,34,489,34z"/>
        <path fill="#ED1D24" d="M156.5,441.5c1,0,2,0,2.5,0s1,0,1,0.5c-0.5,0-1,0.5-1,0.5c-1,0-2,0-3,0c-1,0-2,0.5-3,0.5c-0.5,0-1,0-1.5,0
            c-0.5,0-1,0-1.5,0s-1,0-1,0.5c-0.5,0-0.5,0-1.5,0.5c-1,0-2,0-3,0s-2,0-3,0.5c-0.5,0-1,0.5-1.5,0c-0.5,0-1,0-1.5,0s-1,0-1.5,0.5
            c-0.5,0-0.5,0.5,0,0.5c0.5,0,1,0,1.5,0c0.5,0,1,0,1.5,0s1,0,1.5,0s0.5,0.5,0,1c0,0-0.5,0-1,0c-0.5,0-1,0-1.5,0.5c-0.5,0-1,0-1.5,0
            s-1,0-1,0.5c-0.5,0-1,0.5-1.5,0.5s-0.5,0.5,0,0.5c1,0,2,0,2.5,0c2-0.5,3.5-1,5.5-1c1,0,2,0,3,0s1.5,0,1.5,0
            c-0.5,0.5-1.5,0.5-2.5,1c-0.5,0-1,0-1.5,0.5c-0.5,0.5-0.5,0.5-1,0.5c0,0.5,0,1,0,1.5c0,0.5,0,0.5-0.5,1c-0.5,0-1,0-1,0.5
            c0,0-0.5,0.5-1,0.5c-0.5,0-1,0-1,0.5c0,0-0.5,0.5-1,0.5s-1,0-1.5,0.5c-0.5,0-1,0-1,0c-1,0-2,0.5-2.5,0.5c-1,0-2,0.5-2.5,0.5
            c0,0-0.5,0.5-1,0.5c-0.5,0-0.5,0.5-1,0.5c0,0-0.5,0-1,0s-1,0-1.5,0c0,0-0.5,0-0.5,0.5l-0.5,0.5h-0.5H124c-1,0-1.5,0-2.5,0.5
            c-1,0-1.5,0.5-2,1l0,0H119c-0.5,0-1,0.5-1,0c-0.5,0-1,0-1.5,0c-0.5,0-1,0.5-1.5,0.5c-1,0-2,0.5-2.5,0.5c-1,0.5-2,0.5-3,0.5
            s-2,0-3,0.5c-2,0-3,0.5-4,1v0.5c0,0,0,0,0,0.5l0,0c0-0.5,0.5-0.5,0.5-1c0-0.5,0.5-0.5,1-0.5c0,0,0.5,0,1,0c0.5,0,1,0,1.5,0
            c0.5,0,1-0.5,1.5-0.5c0.5,0,0.5-0.5,1-0.5s0.5,0,0.5,0s0.5,0,1.5,0c0,0,0,0-0.5,0.5c-0.5,0-1,0.5-1,0.5c-0.5,0-1,0.5-1.5,0.5
            s-1,0.5-1,0.5l0,0l0,0c0.5,0,0.5,0,1,0h1.5c1,0,2-0.5,3-0.5c1-0.5,2-0.5,3,0c0,0,0.5,0.5,1,0.5s1,0,1.5,0c0.5,0,1,0,1.5-0.5
            c0.5,0,0.5-0.5,1-0.5c0.5,0,1,0,1-0.5c0.5,0,0.5,0,1.5-0.5c0.5,0,1,0,1.5,0s1,0,1.5,0s1-0.5,1-0.5c0.5,0,0.5-0.5,1-0.5h1
            c0.5,0,1,0,1.5,0c0,0,0.5,0,1,0c0.5,0,1,0,1,0s-0.5,0-1,0.5c-0.5,0.5-1,0.5-1,0.5c-0.5,0-1.5,0-2.5,0.5c-0.5,0.5-1,0.5-2,1
            c-1,0-2,0.5-2.5,1c-1,0.5-2,0.5-2.5,1c-0.5,0-1,0-1,0.5h-1c-1,0-2,0.5-2.5,0.5c-1,0-2,0.5-2.5,0.5s-1,0.5-1,0.5s-0.5,0.5-1,0.5
            c-0.5,0-1,0-1,0s-0.5,0-1,0c-1,0-2,0.5-2.5,0.5c-1,0-1.5,0.5-3,0.5H104h-0.5H103h-0.5l0,0l0,0H102c0,0-0.5,0-0.5,0.5
            c-1,0.5-2,0.5-2.5,0.5s-1,0-1,0.5l-0.5,0.5H97c-0.5,0-1,0-1.5,0c-0.5,0-0.5,0-1,0.5H94h-0.5c0,0-0.5,0-0.5,0.5h-0.5
            c-0.5,0-1,0-1.5,0s-1,0.5-1,0.5c-0.5,0-0.5,0-1,0l-0.5,0.5H88l0,0c-1,0-1.5-0.5-2.5,0c-1,0-2,0.5-3,0.5c-0.5,0-1,0.5-1,0.5H81
            h-0.5c0,0,0,0-0.5,0c0,0,0,0-0.5,0H79c0,0.5-0.5,0.5-0.5,0.5c0-0.5-0.5,0-0.5,0h-0.5H77l-0.5,0.5H76h-0.5H75c0,0,0,0-0.5,0
            c0,0,0,0-0.5,0c-0.5,0-0.5,0-0.5,0c-0.5-0.5-1-0.5-1,0v0.5c0.5,0,0.5,0.5,0,0.5H72V474c0-0.5,0-0.5-0.5-1s-0.5,0-0.5,0h-0.5
            l-0.5,0.5c-0.5,0-1,0-1.5,0.5c-0.5,0-0.5,0-1-0.5c-0.5-0.5-0.5-0.5-1,0L66,474c0,0,0,0.5-0.5,0.5H65l0,0h-0.5c0,0,0,0-0.5,0h-0.5
            c-0.5,0-1,0-1.5,0c0,0-0.5,0-1,0c-0.5,0-0.5,0-1,0c-0.5,0-0.5,0.5-1,0h-0.5c0,0,0,0-0.5,0c0,0-0.5,0-1,0c-0.5,0-0.5,0-1,0
            c-0.5,0-0.5,0.5-1,0c-0.5,0-0.5,0-0.5,0.5c0,0-0.5,0-1,0c0,0-0.5,0.5-1,0.5l0,0l0,0c0,0-0.5,0-1.5,0.5h-0.5c-0.5,0-0.5,0-1,0h-1
            c-1,0-2-0.5-3,0c-1,0-2,0-3,0c-1,0-1.5,0-2.5,0c-1,0-2,0-3,0c-0.5,0-1-0.5-1-0.5c-0.5,0-0.5,0-1-0.5h-0.5H34l0,0
            c-0.5,0-0.5-0.5-0.5-0.5s-0.5,0-0.5-0.5c-0.5,0-1-0.5-1-1s-0.5-0.5-0.5-1c-0.5,0-0.5-0.5-1-0.5s-1,0-1.5,0c0,0-0.5,0-1-0.5
            c-0.5,0-1-0.5-1-0.5c-0.5-0.5-1-1-1.5-1.5c-0.5,1.5-1,1-1,1s0,0-0.5-0.5V469l-0.5-0.5c0-0.5-0.5-0.5-0.5-1.5c0-0.5,0-1-0.5-1
            c0-0.5-0.5-1-0.5-1c-0.5,0-0.5-0.5-0.5-1s0-1,0-1.5c0,0,0,0-0.5,0c-0.5,1-1,1.5-1.5,1.5s-1,0.5-1,0c-0.5,0,0-0.5,0.5-0.5
            c0,0,0,0,0-0.5c0,0,0,0,0-0.5c-1,0-1,0-1,0c0.5-0.5,1-0.5,1.5-1c0,0,0.5,0,1,0s0.5,0,1-0.5c0-0.5,0-1,0-2c-0.5,0-1,0.5-1.5,1
            c-0.5,0-1,0.5-1,0.5c-0.5,0-0.5,0-1,0c0-0.5,0-1,0-1c0-0.5,0-0.5,0-1c0-1,0.5-1.5,1.5-1.5l0.5-0.5c0-0.5,0-1,0-1s0.5,0,0.5-0.5
            l0,0c0-0.5,0-0.5,0-0.5s0,0,0-0.5c0,0,0-0.5,0.5-1h0.5c0-0.5,0.5-0.5,0-1c0-0.5,0-0.5,0-1c0,0,0-0.5,0.5-1
            c0.5-0.5,0.5-0.5,0.5-0.5c0.5-0.5,0.5-0.5,1-0.5s1-0.5,1.5-0.5c0-0.5,0.5-1,1-1.5c0,0,0,0,0.5,0c0,0,0,0,0.5,0l0.5-0.5L28,445h0.5
            H29c0,0,0,0,0.5,0l0,0v-0.5c-0.5-0.5-1.5-1-2-0.5c-0.5,0-0.5,0.5-1,1c-0.5,0-1,0-1,0s0.5-0.5,0.5-1c0.5-0.5,0.5-0.5,0.5-1
            s0.5-1,1.5-1.5c0.5-0.5,0.5-1,0.5-1s0.5-0.5,1-0.5c0.5,0,1,0,1.5-0.5c0.5,0,0.5-0.5,1-1c0,0,0-0.5,0-1c0-0.5,0.5-0.5,1-0.5
            s1,0,1,0c0.5,0,0.5-0.5,0.5-0.5c0-0.5,0.5-0.5,1-1c0.5,0,0.5-0.5,1-0.5c0.5-0.5,0.5-0.5,1-0.5c0,0,0.5,0,1-0.5s0.5-0.5,1-1
            c0.5-0.5,0.5-0.5,0.5-1s0.5-0.5,1.5-1c1-0.5,1-1,0.5-2c0-0.5,0-1,0-1c0-0.5,0-0.5,0-0.5c-0.5,0-1,0-1,0.5s-0.5-0.5-1,0
            c-0.5,0-1,0.5-1,1c0,0.5-0.5,0.5-0.5,1c0,0-0.5,0.5-1,1c-0.5,0.5-1,0.5-1.5,1c-0.5,0-1,0.5-1,1c-0.5,0.5-0.5,0.5-1,1
            c-0.5,0.5-0.5,1-1,1c0,0-0.5,0.5-1,1c-0.5,0.5-0.5,0.5-1,1c-0.5,0.5-1,0.5-1,0c0,0,0-0.5,0.5-0.5L31,436c0.5-0.5,0.5-1,0.5-1
            c0-0.5,0-1,0-1.5s0-0.5,0.5-1c0.5,0,1-0.5,1-0.5s0.5,0,1,0c0,0,0.5,0,0.5-0.5c0,0,0,0,0-0.5s0-1,0-1.5c0.5-0.5,1-0.5,1-0.5
            c0.5,0,1-0.5,1-1c0.5-1,1.5-1.5,2-1.5c0.5-0.5,1.5-1,2-1.5c0.5-0.5,1-1,1.5-1.5c0.5-0.5,1-1,2-1.5c1-1.5,1.5-2,1.5-2s0.5-0.5,1-1
            c0,0,0.5-0.5,1-1c0.5-0.5,1-0.5,1-0.5s0.5-0.5,1-1c0.5-0.5,0.5-0.5,1-1c0.5-0.5,1-0.5,1-0.5c0.5,0,0.5-0.5,1-0.5
            c0.5-0.5,0.5-0.5,1-1c0.5,0,0.5-0.5,1-0.5c0.5-0.5,1-0.5,1-1s0-0.5,0-1c0-0.5,0.5-1,1-1s0.5-0.5,1-1c0-0.5,0.5-1,1-1
            c0.5-0.5,0.5-0.5,1-1c0,0,0.5-0.5,1-1c0.5-0.5,1-0.5,1-1c0.5-0.5,1-0.5,1-1s0.5-0.5,1-1c0.5-0.5,1.5-1,2.5-1.5c1-0.5,1.5-1,2-1.5
            s1-1,2-1.5h0.5H71l0.5-0.5l0.5-0.5l0.5-0.5c1-0.5,2-1,2.5-1.5c0.5-0.5,1.5-1,2.5-2c0.5-0.5,1.5-1,1.5-1.5c0.5-0.5,1-1,2.5-1.5
            c1.5-1,3.5-2.5,5-3.5c1.5-1,3.5-2.5,5-4c1-0.5,2-1,2.5-2c1-0.5,1.5-1.5,2.5-2c1-0.5,1.5-1.5,2.5-2.5c1-1,1.5-1.5,2-1.5
            c0-0.5,1-1,2-1.5c1-0.5,1.5-1.5,2-2c1-1,1.5-1.5,2.5-2c1-0.5,1.5-1.5,2-2c0.5-1,1.5-1.5,2-2c0.5-0.5,1.5-1.5,2-2l1-1l0,0l0.5-0.5
            c0.5-0.5,1-1,1-2c0-0.5,0-1,0-1l-0.5-0.5c0,0,0-0.5-0.5-0.5c-0.5-0.5-1-1-2-1l0,0l0,0h-0.5H112c-0.5,0-1,0-1.5,0c-0.5,0-1.5,0-2,0
            c-5.5,0-12,1.5-19,4c-2,0.5-3.5,1.5-5.5,2c-2,0.5-3.5,1.5-5.5,2.5c-1,0.5-2,1-2.5,1.5c-0.5,0.5-1.5,0.5-2.5,1c-0.5,0-1,0.5-1,0.5
            c-0.5,0-0.5,0.5-1,0.5c-0.5,0-0.5,0.5-1,0.5c-0.5,0-0.5,0.5-1,0.5c-3.5,1.5-6,2.5-7,3c-0.5,0-1,0-1,0.5c-0.5,0-0.5,0-0.5,0
            s0,0-0.5,0c-0.5,0-0.5,0.5-1,0.5c-0.5,0-1,0-1,0c-1.5,0.5-3,0.5-4,0.5c-0.5,0-0.5,0-1,0c-0.5,0-0.5,0-1,0c-1-0.5-1.5-0.5-2-0.5
            s-0.5,0-1,0s-0.5,0-1,0c-0.5,0-1,0-1,0c-0.5,0-0.5,0-0.5,0c0,0.5-0.5,1-0.5,1s-0.5,0.5-1,0.5s-0.5,0-1,0c0,0-0.5-0.5-1-0.5
            c0,0-0.5-0.5-1-0.5c-0.5,0-0.5-0.5,0-0.5c0.5,0,1-0.5,0.5-0.5c0-0.5-0.5-0.5-1-0.5h-1.5c-0.5,0-0.5,0-0.5,0s0-0.5-0.5-0.5
            C39,372,39,372,39,372s0,0-0.5-0.5c-0.5-0.5-1-0.5-1-1s0-0.5,0-1c0,0,0-0.5,0-1s-0.5-1-1-1c0,0,0,0-0.5,0l0,0c0,0.5,0.5,1,0.5,1
            c0,0.5-0.5,0.5-1,0c-0.5,0-0.5-0.5-1-1c0,0,0,0,0-0.5l0.5-0.5c0,0,0,0,0-0.5v-0.5c0,0,0-0.5,0.5-1s0-0.5-0.5-1c0,0-0.5-0.5-0.5-1
            s-0.5-1-0.5-1c0-0.5-0.5-1,0-1.5c0.5-0.5,0-0.5,0-1c0-1,0-1.5,0-2c0.5-0.5,0.5-1.5,1-2.5V354v-0.5c0-0.5,0-1,0-1
            c0-0.5,0.5-1,0.5-1c0-0.5,0.5-0.5,0.5-1s0.5-1,0.5-1s0.5-0.5,0.5-1c0-0.5,0.5-1,1-1.5c0.5-0.5,1.5-1.5,2.5-2c1-0.5,1.5-1.5,2.5-2
            c1,2,2,1.5,2.5,1l1-0.5l1.5-1c0.5-0.5,1-0.5,1.5-1c0.5-0.5,1-0.5,1-1l0,0l0,0L51,340l0,0l0,0h0.5H52h0.5c1-1,2-1.5,3-1.5
            c0.5,0,1.5-0.5,3-1.5c1-0.5,2.5-1,3.5-1.5c1-0.5,2.5-1,3.5-1.5c2.5-1,4.5-2,7-3c2.5-1,5-2,7.5-2.5c1.5-0.5,3-1,4-1.5
            c1.5-0.5,2.5-0.5,3.5-1c0,0,0.5,0,1,0s1-0.5,2-0.5S92,325,93,325c1,0,1.5-0.5,2-0.5c1.5-0.5,3-0.5,3.5-0.5s1.5,0,3,0
            c1.5,0,3-0.5,4.5-0.5c1.5,0,3,0,4.5,0c1,0,1.5,0,2.5,0c1,0,1.5,0,2.5,0l2.5,0.5h0.5c0,0,0.5,0,1,0l1.5,0.5c1,0,2,0.5,3,1
            s2,1,3.5,1c0,0,0.5,0,1,0.5c0.5,0,0.5,0,1,0.5c0,0,0.5,0,0.5,0.5c0,0,0.5,0,0.5,0.5c0.5,0.5,1.5,0.5,2,1c0,0,1,0.5,1.5,1
            c0.5,0,1,0.5,1,0.5c0.5,0.5,1,0.5,1.5,1c1,0.5,2,1.5,3,2s2,1.5,2.5,2c1.5,1.5,3,2.5,4.5,4c1.5,1.5,2.5,3,3.5,4.5
            c0.5,0.5,0.5,1,1,1s0.5,0.5,1,1c0,0.5,0.5,1,0.5,1c0,0.5,0.5,1,1,1c0,0.5,0.5,1,0.5,1.5c0,0.5,0.5,0.5,0.5,1s0.5,1,0.5,1.5
            c0,0.5,0.5,1,0.5,1.5c0,1,0.5,2,0.5,3c0,1,0,2,0,3c0,0.5,0,1,0,1.5c0,0.5,0,1,0,1.5v1l-0.5,1.5c-1,3.5-2.5,7-5,10.5
            c-2.5,3.5-5,6.5-7.5,10c-0.5,0.5-0.5,0.5-1,1s-0.5,0.5-1,1c-0.5,0.5-0.5,1-1,1c-0.5,0.5-0.5,0.5-1,1s-1,1-1.5,1.5
            c-0.5,0.5-1,1-1.5,1c-1,1-1.5,1.5-2.5,2.5c-1,1-1.5,1.5-2,2c0,0-1,1-2,2c-1,1-2,2-3,2.5c-0.5,0.5-1,1-2,1.5c-0.5,0.5-1.5,1-2,2
            c-2,1.5-3.5,2.5-4.5,4c-1.5,1-3,2.5-5,4c-2,1.5-3.5,2.5-5.5,4c-1.5,1.5-3.5,3-5,4.5l-5.5,4c-0.5,0.5-1,1-1.5,1
            c-0.5,0.5-1,0.5-1.5,1l-1,0.5l-0.5,0.5l0,0l-1,0.5c0,0-0.5,0.5-1,0.5c-0.5,0-1,0.5-1,0.5c-0.5,0-1,0.5-1,1c-0.5,0.5-0.5,0.5-1,1
            c-1,0.5-1.5,1-2,1.5c-0.5,0.5-1.5,1-2.5,1.5c-0.5,0-1,0.5-1.5,0.5s-1,0.5-1.5,0.5l-0.5,0.5c0,0,0,0.5-0.5,0.5
            c-0.5,0.5-0.5,0.5-1,1c0,0-0.5,0-1,0.5c-0.5,0.5-1,0.5-1.5,0.5c0,0,0,0-0.5,0c0.5,0,0.5,0,1,0c0.5,0,0.5,0,1,0s1,0,1.5,0s1,0,1,0
            c1,0,2-0.5,3-0.5s2,0,3-0.5c1,0,2,0,2.5-0.5c1,0,2,0,2.5,0.5c0.5,0,1.5,0,2,0s1.5,0,2,0l4-0.5L99,437l0,0l4.5-0.5
            c0.5-0.5,1-0.5,2-0.5c0.5,0,1.5,0,2,0c0.5,0,1,0,1.5,0c0.5,0,0.5-0.5,1-0.5c0,0,0.5,0,1,0s0.5-0.5,1-1c0.5-0.5,0.5-0.5,1,0
            c0.5,0,1,0.5,1.5,0.5s1,0,1.5-0.5c0.5-0.5,0.5-1,1-1c0.5,0,1,0,1.5,0h3c0.5,0,1,0.5,1.5,0c0.5,0,1,0,1.5,0c0.5,0,0.5-0.5,0.5-1
            c0-0.5,0-0.5,0.5,0c0,0,0.5,0.5,1,0.5c0.5,0,1,0,1,0c0.5-0.5,1-0.5,2-0.5l0.5-0.5c0-0.5,0.5-0.5,1-1c0.5,0,1,0,1,0.5
            c0,0.5,0.5,0.5,1,0.5c0-0.5,0.5-0.5,1-0.5c0,0.5,0,0.5-0.5,0.5c0,0-0.5,0-0.5,0.5c0.5,0.5,0.5,1,0,1.5c-0.5,0.5-0.5,0.5-1,0.5
            s-0.5,0-0.5,0s0,0,0-0.5c-0.5-0.5-1.5,0-1.5,0c-0.5,0.5-1,0.5-2,0.5c-0.5-0.5-1-0.5-1.5-0.5c0,0-0.5,0-1,0.5c0,0,0,0.5-0.5,0.5
            s-1,0-1,0c-1,0-1.5,0.5-1,1c0.5,0,0.5,0,1,0c0.5,0,0.5,0,1,0s1,0,1.5,0c0.5,0,1,0,1,0c0.5,0,1,0,1.5,0c0.5,0,1,0,1.5,0h1l0.5-0.5
            c0.5,0,1,0,1,0.5c0.5,0,0.5,0,1,0s0.5,0,0.5,0s0.5-0.5,1-0.5s1,0,1,0c0.5,0,1,0,1-0.5c0.5-0.5,0.5-0.5,1-1c0-0.5-0.5-0.5-0.5-0.5
            s-0.5,0-0.5-0.5s-0.5-0.5-1-0.5c-0.5,0-1,0-1.5-0.5c0-0.5,0.5-0.5,0.5-0.5s0,0,0.5-0.5l0.5-0.5c0,0,0.5-0.5,1.5-0.5s2,0,2,0.5
            c0.5,0.5,0.5,1,1,1l0.5-0.5l0.5-0.5c1-0.5,1.5-0.5,2.5,0c0.5,0.5,0.5,1,0,1s-1,0.5-1.5,0.5c-0.5,0.5-1,0.5-1.5,0H141
            c0,0-0.5,0-1,0v0.5c0,0,0,0,0,0.5l0,0v0.5c0,0,0,0.5,0,1c0,0,0.5,0,1.5,0.5c0,0,0-0.5,0.5-1c0,0,0.5,0.5,0,0.5c0,0.5,0,0.5,0,0.5
            s0,0,0.5,0s0.5,0,0.5,0h0.5h0.5c1-0.5,1.5-0.5,2,0c0.5,0.5,1,0.5,1.5,0.5c0.5,0,0.5-0.5,0.5-0.5s0,0,0.5-0.5c0.5,0,1,0.5,1.5,0
            c0.5,0,1,0,1.5,0c0.5,0,1,0,1,0.5c0.5,0.5,0.5,0,0.5-0.5c0.5-0.5,0.5-0.5,1-0.5s0.5,0.5,0.5,1c0,0.5,0,0.5,0,0.5s0,0.5-0.5,0.5
            s-0.5-0.5-0.5-0.5s0,0-0.5-0.5c-0.5,0.5-1,0.5-1,1s-0.5,0.5-1,1c-0.5,0-1,0-1.5,0s-0.5,0-1,0s-1,0.5-1,0.5s-0.5,0-1,0
            c0,0-0.5,0.5-1,0.5s-0.5,0-1,0.5c0,0-0.5,0.5-1,0.5s-1,0.5-1.5,0.5l0,0c0,0,0,0-0.5,0l0,0c0,0-0.5,0-1.5,0c-0.5,0-0.5,0-1,0
            s-0.5,0-0.5,0s-0.5,0.5-0.5,1s0,0.5,0,0.5s-0.5,0-0.5,0.5c0,0.5,0,0,0,0.5h0.5c0.5,0,0.5,0,1,0s1,0,1.5,0s0.5,0,1,0h0.5
            c1,0,1.5,0,2-0.5c0.5-0.5,1,0,1.5,0l0,0l0,0h1l0.5-0.5c0,0,0.5,0,1-0.5c0.5,0,1,0,0.5,0.5c-0.5,0.5-0.5,0.5-1,0.5
            c0.5,0,1,0.5,1.5,0.5s1,0,1.5,0s1,0,1.5,0c0.5,0,1,0,1,0c0.5,0,1,0,1,0C155.5,441.5,156,441.5,156.5,441.5z M17.5,447
            C17.5,447.5,17.5,447.5,17.5,447C17,447,17.5,447,17.5,447z M21.5,444.5L21.5,444.5C21.5,444,22,444,21.5,444.5L21.5,444.5z
             M25.5,443.5c-0.5,0-1-0.5-0.5-0.5C25,442.5,25,442.5,25.5,443.5L25.5,443.5z M30.5,443c0-0.5,0-1-0.5-0.5
            C29.5,442.5,30,442.5,30.5,443z M30.5,443.5c0,0.5,0.5,0.5,1,0l0,0C30.5,443,30,443,30.5,443.5z M31,440c0,0.5,0,1,0,1v0.5
            c0,0,0,0,0.5,0C32,441,32,440.5,31,440C31.5,440,31.5,440,31,440z M35,438.5L35,438.5C34.5,438.5,34.5,438.5,35,438.5z M36.5,365
            c0.5-0.5,1-0.5,1-1c0.5,0,0.5-0.5,0.5-1s-0.5-0.5-1-0.5s-1,0-1,0.5v0.5c0,0.5,0,0.5,0,1S36,365.5,36.5,365z M37,359
            c0,0.5,0.5,0.5,0.5,1c0.5,0,0.5,0,1-1c0-0.5,0-0.5-0.5-1s-0.5,0-1,0.5V359L37,359z M39,430.5L39,430.5c-0.5,0.5-0.5,0-0.5,0
            S38.5,430.5,39,430.5z M39,358C39,358,39.5,358,39,358c0.5,0,0.5,0,0.5,0C39.5,357.5,39.5,357.5,39,358z M42.5,361c0-0.5,0-1,0-1
            c-0.5,0-0.5,0-1,0.5L41,361c0,0-0.5,0.5-1,1c-0.5,0.5-0.5,1,0,1s0.5,0,1,0l0.5-0.5c0,0,0-0.5,0.5-0.5C41.5,361.5,42,361,42.5,361
            C42,361,42,361,42.5,361z M42.5,426.5c0,0.5,0,1,0,1c0.5,0,0.5,0,1,0.5c0,0,0.5,0,1-0.5c0.5-0.5,1-0.5,1-1l2-1.5c0-0.5,0-1,0-1
            c0-0.5-0.5-0.5-1,0c0,0.5-0.5,1-1,1c0,0-0.5,0.5-0.5,1c-0.5,0.5-1,0.5-1,0.5C43.5,426,43,426,42.5,426.5z M48,423.5
            c0.5,0.5,0.5,0.5,1,0l0,0C48.5,422.5,48,423,48,423.5z M72.5,436c0,0,0,0.5,0,1s0.5,0,1-0.5c0,0,0-0.5-0.5-1
            C73,435,73,435,72.5,436z M103,433c0.5,0.5,0.5,0.5,0.5,0.5s0,0-0.5,0C102.5,434,102.5,434,103,433
            C102.5,433.5,102.5,433.5,103,433L103,433z M112,461C112.5,461,112.5,461,112,461C112.5,461,112.5,461,112,461z M137.5,441.5
            C138,441.5,138,441.5,137.5,441.5c0.5-0.5,0.5-0.5,0-1c-1,0-1.5,0.5-2,0.5L137.5,441.5z M147,429.5c0-0.5,0.5-0.5,0.5,0
            C148,429.5,147.5,429.5,147,429.5z M148.5,429c0.5,0,0.5-0.5,1-0.5c0.5,0,0.5,0,1,1c0,0,0,0-0.5,0
            C149.5,429.5,149,429.5,148.5,429z M157.5,434c0,0.5-0.5,1-1,1s-0.5,0-0.5-1C156.5,433.5,157,433.5,157.5,434z"/>
        <path fill="#ED1D24" d="M288,388.5L288,388.5c0,0.5,0,1-0.5,1l0,0c0,0,0,0,0,0.5c-0.5,0-0.5,0.5-0.5,0.5s0,0,0.5,0c0,0,0,0,0.5,0
            v0.5h-0.5c0,0-0.5,0-0.5,0.5l0,0l0.5,0.5c0,0,0,0.5,0,1c0,0,0,0.5-0.5,0.5s-0.5,0.5-0.5,0.5l0.5,0.5v0.5c0,0-0.5,0-0.5,0.5
            s0,1.5-0.5,2c0,0.5-0.5,1.5-0.5,2c0,0.5-0.5,1-0.5,2c0,0.5-0.5,0.5-0.5,1c0,0,0,0.5,0,1c0,0,0,0,0,0.5v0.5L284,405
            c0,0,0,0-0.5,0.5c0,0.5,0,0.5-0.5,1c0,0.5-0.5,1-0.5,1c-0.5,1-1,2.5-1.5,3.5c-0.5,1-1,1.5-1,2l-0.5,0.5c0.5-0.5,0.5,0,0.5,0.5
            s-0.5,0.5-0.5,0.5s0,0.5-0.5,1c0,1,0,1.5,0,1.5c0,0.5-0.5,0.5-1,1.5c0,0.5,0,1,0,1.5v0.5v0.5c-0.5,1-0.5,1.5,0,2
            c0.5,0.5,1,1,1.5,1.5v0.5c0,0,0,0.5,0.5,0.5c0,0,0.5,0,0.5-0.5s0.5,0,0.5,0.5c0,0.5,0,1.5,0,2c-0.5,0.5-0.5,1-0.5,2
            c0,0,0,0.5-0.5,1.5c-0.5,1-0.5,1.5-1,2c-0.5,0.5-0.5,1.5-1,2c-0.5,0.5-0.5,1.5-1,2c-0.5,1.5-1,2.5-2,3.5c-1,1-2,2.5-2.5,3.5
            c-0.5,0.5-1,1-1.5,2c-0.5,0.5-1,1-1,1.5c0,0.5-0.5,1-1,2c-0.5,1-1,1.5-1,1.5c-0.5,0.5-0.5,1-1,1.5c-0.5,0.5-1,1-1.5,1.5
            c-0.5,0.5-1,1.5-1.5,2s-1,1.5-1.5,2c0,0,0,0.5-0.5,0.5s-0.5,0.5-0.5,1L260,459l-1.5,1.5l-1,1L257,462l-1,0.5c-0.5,0.5-1,1-2,1.5
            c-1,0.5-1,1-2,1.5c0,0-0.5,0-0.5,0.5c0,0-0.5,0-0.5,0.5l-1,1l-2,1c-3,2-6,3.5-9,4.5c-1.5,0.5-3,1.5-4.5,2c-1.5,0.5-3.5,1-5,1.5
            c-3,0.5-6.5,1-10,1.5c-3.5,0-7,0-10.5-0.5c-3.5-0.5-7-1.5-10.5-2.5c-3.5-1-6.5-2.5-10-4.5c-2-1-3.5-2-5-3.5c-1.5-1-3-2.5-4.5-4
            c-1.5-1.5-3-3-4.5-4.5c-1.5-1.5-2.5-3-4-4.5c-2-3-3.5-5.5-5-8c0-0.5-0.5-1-0.5-1c0-0.5-0.5-0.5-0.5-1s-0.5-1-0.5-1
            c0-0.5-0.5-0.5-0.5-1c0-0.5-0.5-1-0.5-1c0-0.5,0-1-0.5-1.5c-0.5-1-0.5-2-1-2.5l0.5-2c0,0,0-0.5-0.5-1c0-0.5,0-1,0-1c0-0.5,0-1,0-1
            c-0.5-1.5-0.5-3-0.5-5c0-1,0-1.5,0-2c0-0.5,0-1,0-1.5s0-1,0-1.5c0-0.5,0-1.5,0-2v-2.5c0-0.5,0-1,0-1c0-0.5,0-0.5,0-1s0-1.5,0-2
            c0-0.5,0-1.5,0-2c0-0.5,0-1.5,0-2s0-1.5,0-2s0-1.5,0-2s0-1.5,0.5-2.5c0-1.5,0.5-3,1-4.5c0.5-1.5,0.5-3,1-4.5c0-1,0.5-1.5,0.5-2.5
            c0-0.5,0.5-1.5,1-2l1.5-4.5v-0.5V384v-0.5V383c0-0.5,0.5-0.5,0.5-1s0.5-0.5,0.5-1c0.5-0.5,0.5-1.5,1-2c0.5-0.5,0.5-1.5,1-2
            s0.5-1,1-2c0.5-1,1-1.5,1.5-2.5c0.5-1,1-1.5,1-2c0.5-0.5,0.5-1,0.5-1c0.5-1,1.5-2.5,2-3.5c0.5-1,2-2.5,2.5-4c0.5-0.5,1-1,1.5-2
            c0.5-0.5,1-1,1.5-2c1-1,2-2.5,3-3.5c2-2.5,4-4,6-6c2-1.5,4-3.5,6-5.5c0.5-0.5,0.5-0.5,1-1c0.5-0.5,0.5-0.5,1-0.5
            c0.5,0,0.5-0.5,1-0.5c0.5,0,0.5-0.5,1-0.5c0.5-0.5,1-1,1.5-1c0.5-0.5,1.5-0.5,2-1c0.5-0.5,1-1,1.5-1c0.5-0.5,1-1,1.5-1
            c0.5-0.5,1-0.5,2-1c0.5-0.5,1-0.5,1.5-1c0.5,0,0.5-0.5,1-0.5c0.5,0,0.5-0.5,1-0.5l0.5-0.5c0.5,0,0.5,0,0.5-0.5
            c0.5,0,0.5-0.5,1-0.5c0.5,0,0.5-0.5,1-0.5c0.5-0.5,1-0.5,2-1c1-0.5,1.5-0.5,1.5-0.5c1.5,0,2.5-0.5,4-1c1-0.5,2.5-1,4-1.5
            c0.5,0,1-0.5,2-0.5c0.5,0,1-0.5,2-0.5c0.5,0,1-0.5,1.5-0.5c0.5,0,1.5-0.5,2-0.5c1,0,1.5,0,1.5,0s1,0,1.5,0h1c0.5,0,1,0.5,1,0
            c0,0,0.5,0,1,0c1,0,1.5,0.5,1.5,0.5c0.5,0.5,0.5,0.5,1,0.5s1,0.5,1.5,0.5c0.5,0,1,0,1.5,0c0,0,0.5,0,1.5,0s1.5,0,1.5,0.5
            c1,0.5,1.5,1,2,2c0.5,0.5,0.5,0.5,0.5,0.5s0.5,0,0.5,0.5c0,0,0.5,0,0.5,0.5s0.5,0.5,0.5,0.5c0.5,0.5,0.5,1,0.5,1.5
            c0,0.5,0.5,1,0.5,1.5c0.5,0.5,1,1,1,1c0.5,0.5,0.5,0.5,1,1.5c0,0.5,0,1,0.5,2s0.5,1,0.5,2c0.5,1,0.5,2,0.5,3.5c0,1,0,2,0,3l0,0
            c0.5,0,1,0.5,1,1s0.5,1,0.5,1.5c0,0.5,0.5,0.5,0,1s0,0.5,0,1c0,0.5,0.5,0.5,0.5,1s0.5,0.5,0.5,1c0,0,0.5,0.5,0.5,1s0,0.5,0.5,1
            l0,0c0,0,0-0.5,0-1s0-0.5-0.5-1c0-0.5,0-0.5,0-1c0,0,0-0.5,0-1c0-0.5,0-0.5,0-0.5s0-0.5,0-1c0-0.5-0.5-0.5-0.5-1s0-0.5,0-1
            s0-0.5,0-1c0,0,0-0.5-0.5-0.5l-0.5-0.5c0-0.5-0.5-1-0.5-1c0-0.5,0-0.5,0-1c0,0-0.5-0.5-0.5-1c0,0-0.5-0.5-0.5-1c0-0.5,0-0.5,0-1
            s0-0.5-0.5-0.5c0,0,0,0-0.5-0.5c-0.5-0.5-0.5-1-1-1.5c0-0.5,0-0.5,0-1c0,0,0.5,0.5,0.5,1s0.5,1,1,2c0.5,0.5,0.5,1,1,2
            c0,0.5,0.5,0.5,0.5,1s0.5,0.5,0.5,1c0,0.5,0.5,0.5,0.5,1c0,0,0.5,0.5,0.5,1c0.5,0.5,0.5,1,0.5,2c0,0.5,0.5,1,1,2
            c0,0.5,0.5,0.5,0.5,1s0,0.5,0.5,1c0,0.5,0.5,0.5,0.5,1c0,0.5,0.5,0.5,0.5,0c0-0.5-0.5-0.5-0.5-1s0-0.5-0.5-1c0,0-0.5-0.5-0.5-1
            c0-0.5,0-0.5,0.5-0.5l0.5,0.5v0.5v0.5c0,0,0.5,0.5,0.5,1s0.5,0.5,0.5,0.5l0.5,0.5l0,0c0-0.5,0-1,0-1c0-0.5,0-0.5-0.5-0.5L262,349
            c0-0.5-0.5-1.5-0.5-2c-0.5-1-0.5-1,0-1l0.5,0.5c0,0.5,0.5,0.5,0.5,1s0.5,0.5,0.5,1c0,0,0.5,0,0.5,0.5c0.5,0,0.5,0,1,0
            s0.5,0,0.5,0.5s0.5,0.5,0.5,0.5l0.5,0.5c0,0.5,0,0.5,0.5,0.5c0,0,0.5,0,0.5,0.5s0.5,0.5,0.5,1c0,0.5,0,0.5,0,0.5
            c0.5,0.5,0.5,1,1,2c0.5,1,0.5,1,1,2l0.5,0.5c0,0.5,0.5,0.5,0.5,0.5v0.5c0,0.5,0,0.5,0.5,1l0.5,0.5c0,0.5,0,0.5,0,1s0.5,1,0.5,2
            c0,0.5,0.5,1,1,1.5l0,0l0,0l0,0c0,0,0.5,0.5,0.5,1s0,0.5,0,1c0,0,0.5,0.5,0.5,1s0.5,1.5,0.5,2c0.5,0.5,0.5,1.5,0.5,2
            c0,0.5,0,1.5,0.5,2c0,0.5,0.5,1.5,0.5,1.5c0,0.5,0.5,1,0.5,1h0.5h0.5c0.5,0,0.5-0.5,0.5-0.5s0-0.5,0-1c0-0.5-0.5-0.5-0.5-1
            s0-0.5,0-1V372v-0.5V371c0-1-0.5-1.5-0.5-2c-0.5-0.5-0.5-1.5-0.5-2c0,0,0-0.5,0.5-0.5c0.5,0,0-0.5,0-1c0,0,0,0,0-0.5v-0.5
            l-0.5-0.5c-0.5-0.5-0.5-1-1-1.5c0-0.5-0.5-0.5,0-1c0-0.5,0-0.5,0-1s-0.5-0.5-0.5-1c0,0-0.5-0.5-0.5-1V358v-0.5V357
            c0,0,0-0.5-0.5-0.5c0-0.5,0-0.5,0-1c0,0,0,0.5,0.5,0.5c0.5,0,0.5,0.5,0.5,0.5s0,0.5,0.5,1c0.5,0.5,0.5,0.5,0.5,1c0,0,0.5,0.5,1,1
            c0.5,0.5,0.5,1,1,2c0.5,0.5,0.5,1,0.5,1.5c0,0.5,0.5,0.5,0.5,1c0,0,0,0.5,0,1s0.5,1,0.5,2c0,0.5,0.5,1.5,1,2
            c0,0.5,0.5,0.5,0.5,0.5s0.5,0.5,0.5,1s0,0.5,0,1v0.5c0,1,0.5,1.5,0.5,2c0,0.5,0.5,1.5,0.5,2v0.5v0.5v0.5v0.5l0,0c0,0,0,0,0,0.5
            c0,0,0,0,0,0.5s0.5,1,0.5,1c0,0.5,0,0.5,0.5,1l0,0l0,0c0,0,0,0,0,0.5c0,0.5,0,1,0,1.5v0.5c0,0,0,0,0,0.5v0.5c0,0,0,0,0,0.5
            s-0.5,0.5,0,1c0,0.5,0,0.5,0.5,1v0.5v0.5l0.5,0.5c0,0,0,0,0,0.5s-0.5,1-0.5,1.5s0,1,0,1.5v0.5c0,0,0,0,0,0.5v0.5c0,0,0,0,0,0.5
            v0.5c0,0,0,0,0,0.5c0.5,0,0.5,0.5,0,0.5c0,0,0,0,0,0.5l0,0l0,0C288,387.5,288,388,288,388.5C288,388,288,388,288,388.5z M258,375
            c-0.5,0-0.5-0.5-0.5-1c0.5,0,0.5,0,0.5,0s0,0.5,0.5,0.5c1,0,1.5,0,1.5,0c0,0.5,0,0.5,0.5,1c0,0.5,0,1-0.5,1c-0.5,0.5-0.5,1,0,1.5
            c0.5,0.5,0.5,1,0.5,2c-0.5,0.5-1,1-1,1s0,0.5,0,1c0,0,0,0.5,0,1c0,0.5,0,1,0,1c0,0.5,0,1,0,1c0.5,0.5,1,0.5,1,0c0,0,0.5-0.5,1-0.5
            s0.5,0.5,1,1c0,0,0.5,0,1,0V385c0-0.5,0-0.5,0-0.5V384l0,0c0-0.5-0.5-0.5,0-1c0-0.5,0-0.5,0-1s0-0.5,0-1c0-0.5,0-0.5,0-1l0,0l0,0
            c0,0,0-0.5,0-1l0,0c-0.5,0-0.5,0-1-0.5c-0.5-0.5-0.5-0.5-1-1c0-0.5,0.5-0.5,1-0.5s0.5,0.5,1,1l0,0c0-0.5,0-1,0-1.5V376v-0.5
            c-0.5,0-1,0-1-0.5c0-0.5,0-1,0-1c0-0.5,0-1,0-1c-0.5-0.5-0.5-0.5-1-1c-1.5-1.5-1.5-1.5-1.5-1.5s0,0-0.5,0.5c-0.5,0-1,0.5-1,1
            s-0.5,0.5-1,1c-0.5,0-1-0.5-1-0.5s0,0-0.5-0.5c0,0-0.5,0-0.5-0.5c-0.5,0-0.5-0.5-0.5-1c0-1,0-1.5,1-2c0.5-0.5,1-0.5,1.5-1L257,367
            c-0.5-0.5-1-1,0-1.5c0.5-1,1-1,1.5,0c0,0.5,0.5,0.5,1,1c0.5,0,0.5,0.5,0,1v0.5c0,0,0,0.5,0.5,0.5h1h0.5c0.5,0,0.5,0,1,0
            c0-0.5,0-0.5,0-1c0-0.5,0-0.5,0-1l0,0l0,0V366c0,0,0,0,0-0.5s-0.5-1,0-1.5c0-0.5,0-0.5,0-1l-0.5-0.5c0-0.5,0-0.5,0-0.5v-0.5V360
            c0-0.5,0-1.5,0-2s-0.5-1-0.5-1.5c0,0-0.5-0.5-0.5-1s-0.5-0.5-0.5-0.5c0-0.5-0.5-1-0.5-1.5s0-1-0.5-2l0,0c-0.5,0.5-1,1-1.5,1
            s-1,0.5-1.5,1c-0.5,1-0.5,2-1,2.5c-0.5,0.5-1,1-2,1.5c-1,0.5-1.5,1-2,2c-0.5,0.5-1.5,1.5-2,2c-0.5,0-1,0.5-1.5,0.5
            c-0.5,0-0.5,0.5-1,0.5c-1,0.5-1.5,1-2.5,1c-0.5,0-1,0.5-1,0.5c-0.5,0-0.5,0.5-1,0.5c-1,0.5-2,1-3,1.5c-0.5,0.5-1,0.5-1,1
            c-0.5,0.5-0.5,0.5-1,0.5c-1,0.5-1.5,1-2.5,1.5c-0.5,0.5-1.5,1-2.5,1.5c-1.5,1-3,2-4.5,3c-1.5,1-2.5,2-3,2.5c0,0-0.5,0.5-1,1
            c-1,0.5-1.5,1-2,2c-0.5,0.5-1,1.5-2,2c-0.5,0.5-1,1-1.5,1.5c-0.5,0.5-0.5,1-1,1.5c-0.5,1-1,1.5-1.5,2c-0.5,0-0.5,0.5-1,1
            c-0.5,0.5-0.5,0.5-1,1c0,0-0.5,0.5-1,1.5c-0.5,1-1,1.5-1,1.5c0,0.5,0,0.5-0.5,1c0,0.5-0.5,0.5-0.5,1c0,0.5-0.5,1-0.5,1
            c0,0.5-0.5,0.5-0.5,1c0,0.5-0.5,0.5-0.5,1s-0.5,0.5-0.5,1c0,0.5-0.5,1-0.5,1c0,0.5,0,0.5-0.5,1c0,0.5-0.5,1-0.5,1c0,0.5,0,0.5,0,1
            c0,0-0.5,0.5-0.5,1s0,0.5-0.5,1c-0.5,1.5-0.5,3-1,4.5c-0.5,1.5-0.5,3-0.5,5c-0.5,3.5-0.5,6.5,0,9.5c0.5,1,1,2.5,1,3.5
            c0,0,0,0.5,0.5,1c0,0.5,0,0.5,0.5,1l0.5,1c0,0,0.5,0.5,0.5,1l0.5,0.5c0,0,0,0.5,0.5,0.5c0.5,0.5,1,1,1.5,1.5c0.5,0.5,1,1,2,1
            c1,0.5,1.5,1,2.5,1s2,0.5,3,0.5c1,0,2.5,0,3.5,0c1,0,2.5-0.5,3.5-1c1-0.5,2.5-1,3.5-1.5l1.5-1l0.5-0.5c0,0,0-0.5,0.5-0.5
            c0,0,0.5,0,0.5-0.5c0,0,0.5-0.5,1-0.5c0.5,0,0.5-0.5,1-0.5c0,0,0.5,0,0.5-0.5l0,0c0-0.5,0.5-1,1-1c0.5-0.5,0.5-0.5,1-0.5
            c0.5-0.5,0.5-0.5,1-1c0.5-0.5,0.5-0.5,0.5-1c0.5-0.5,0.5-0.5,1-0.5c0,0,0.5-0.5,1-1c0.5,0,0.5-0.5,1-1c0.5-0.5,0.5-1,0.5-1
            c0.5-0.5,0.5-0.5,1-1c0.5-0.5,0.5-0.5,1-1c0.5-0.5,0.5-0.5,1-1c0.5-0.5,0.5-0.5,1-1c0.5-0.5,1-1.5,1.5-2c0.5-0.5,1-1,2-1.5
            c0.5-0.5,1-1.5,1.5-2c0.5-1,1-1.5,1.5-1.5c0-0.5,0.5-1,0.5-1s0.5-0.5,1-1c0-0.5,0-1,0-1.5c0-0.5,0-0.5,0,0l0.5,0.5
            c0,0,0.5-0.5,0.5-1s0.5-1,0.5-1.5c0.5-0.5,0.5-1,0-1c0-0.5,0-1,0-1.5c0-0.5,0.5-1,0.5-1c0-0.5,0.5-1,0.5-1c0.5-0.5,0.5-1,0.5-1.5
            c0-0.5,0.5-1,0-1c0,0,0-0.5,0-1s0-1,0-1c-0.5-0.5,0-0.5,0-1c0.5-0.5,1-0.5,1.5-1c0.5-0.5,0.5-0.5,0-1s-1-1-1-1.5s0-1,0.5-1.5
            c0,0,0-0.5,0.5-0.5c0-0.5,0-0.5,0.5-0.5c0-0.5,0.5-1,0.5-1c0.5-0.5,0.5-0.5,0.5-1c0-0.5,0.5-1,0.5-1.5c0-0.5,0-1-0.5-1
            c-0.5,0-0.5,0,0-0.5c0,0,0.5-0.5,1-1c0.5-0.5,0.5-1,0-1c-0.5-0.5-0.5-1-0.5-2L259,379c-0.5,0-0.5-0.5-1-1c0-0.5,0.5-0.5,0.5-1
            C258.5,376.5,257.5,375.5,258,375z M245.5,417c0,0.5,0,0.5,0.5,0.5s0.5,0,0.5-0.5C246.5,416.5,246,416.5,245.5,417z M249,412.5
            c0.5-0.5,0.5-1,0-1c-0.5,0-1,0-1,0.5c0,0,0.5,0,0.5,0.5C248.5,412.5,249,412.5,249,412.5z M250.5,403c0.5,0,0.5,0,0.5,0s0,0,0,0.5
            h-0.5C250.5,403.5,250.5,403.5,250.5,403L250.5,403z M257.5,362L257.5,362c-0.5,1-0.5,1-0.5,1.5l-0.5-0.5
            C256.5,363,256.5,362,257.5,362z M257.5,364.5C257,364.5,257,364,257.5,364.5C257.5,364,257.5,364,257.5,364.5z M259,401.5
            c0,0,0,0.5,0.5,0.5l0,0c0-0.5,0-0.5,0-1C259.5,401,259.5,401,259,401.5z M260.5,392.5c-0.5-0.5-0.5-0.5-0.5,0s0,0.5,0,1
            c0,0,0,0.5,0,1s0,1,0.5,1s1,0,1-0.5c0-0.5,0-1-0.5-1.5C261,393.5,260.5,393.5,260.5,392.5z M262,389c-0.5,0-1,0-1.5,0
            c-0.5,0-1,0-1,0.5l0,0c0,0,0.5,0,1,0.5s1,0.5,1.5,0C262.5,390,262.5,389.5,262,389z M261,396.5L261,396.5L261,396.5z M262,387.5
            c0.5,0.5,1,0.5,1,0.5s0-0.5,0.5-0.5c0-0.5-0.5-0.5-1-0.5S261.5,387,262,387.5z M263,378.5c0,0.5-0.5,0.5-1,0.5v-0.5V378
            C262.5,378,263,378,263,378.5z M275.5,430.5c0-1,0-1.5,0-1.5s-0.5,0.5-1,1c0,0.5-0.5,0.5-0.5,0.5c-0.5,0-0.5,0-1,0s-0.5,0-1,0
            l-0.5,0.5c0,0,0,0,0.5,0c0.5,0,0,0.5,0.5,0.5c0,0,0.5,0.5,0.5,1c0.5,0,1,0,1.5-1C275,431.5,275.5,431,275.5,430.5z M276.5,425.5
            L276.5,425.5C277,425.5,277,425,276.5,425.5c0.5-0.5,0.5-0.5,0-0.5C277,425,277,425,276.5,425.5z M277.5,415.5
            C277.5,416,277.5,416,277.5,415.5C277.5,416,277.5,416,277.5,415.5C277.5,416,277.5,416,277.5,415.5
            C277.5,416,277.5,416,277.5,415.5z M283.5,412c0-0.5,0-0.5,0-0.5s0.5-0.5,1-1.5c0,0,0,0,0,1c0,1-0.5,1.5-0.5,1.5c0,0.5,0,1.5,0,2
            c0,1,0,1,0,1.5c0,0.5,0,1.5,0,1.5c0,0.5,0,1-0.5,1.5c0,1-0.5,1.5-1,2s-1,0.5-1.5,0c0-0.5-0.5-1-0.5-1.5s0-1,0-1s0.5-0.5,1-1.5
            s0.5-1.5,1-2c0-0.5,0.5-1,0.5-2C283.5,412.5,283.5,412,283.5,412z M285.5,410C285.5,409.5,285.5,409.5,285.5,410
            C285.5,409.5,285.5,409.5,285.5,410z"/>
        <path fill="#ED1D24" d="M361,339.5c0,1-0.5,2,0,2.5c0,1,0,1.5-0.5,2.5c-0.5,1-0.5,2-1,2.5s-0.5,1.5-1,2.5c0,0.5-0.5,1-0.5,1
            c0,0.5,0,0.5,0,1l0,0l0,0c0,0.5-0.5,1-0.5,1.5s0,1-0.5,1.5l-1,3c0,0.5-0.5,1-0.5,1.5s-0.5,1-1,1.5c-0.5,0.5-0.5,1,0,1.5v0.5
            c0,0-0.5,0.5-0.5,1c0,0.5,0,0.5-0.5,1c0,0.5-0.5,0.5-0.5,0.5s0,0.5,0,1c0,0.5-0.5,1-1,1.5v0.5c0,0.5,0,0.5,0,1c0,0.5,0,1-0.5,1.5
            c-0.5,0.5-0.5,1-1,1.5c0,0.5,0,0.5-0.5,1s-0.5,0.5-0.5,0.5c-0.5,1-1,2-1.5,3c-0.5,1-1,2-1.5,3c0,1-0.5,1.5-0.5,1.5v0.5v0.5v0.5
            c0,1-0.5,2-1,3c-0.5,1-1,2-1.5,3c0,0.5-0.5,1-0.5,2c0,0.5-0.5,1-0.5,1.5c-0.5,1.5-1,3-1.5,4c-0.5,1.5-1,2.5-1.5,4
            c0,0.5-0.5,1-0.5,2c0,0.5-0.5,1.5-0.5,2c0,0.5-0.5,1-0.5,1s-0.5,0.5-0.5,1c0,0.5-0.5,1-0.5,1c0,0.5,0,0.5-0.5,1
            c0,0.5-0.5,1.5-0.5,2c0,0.5-0.5,1.5-0.5,2c-0.5,0.5-0.5,1.5-1,2c-1.5,4-3,7.5-4,11c-0.5,1-1,2.5-1.5,3.5c-0.5,1-1,2.5-1.5,3.5
            c-0.5,1-0.5,1.5-1,2.5c-0.5,1-0.5,2-1,2.5s-0.5,1.5-1,2c-0.5,0-0.5,0.5-0.5,1v0.5c0,0.5-0.5,1-0.5,1c-0.5,0-0.5,0.5-0.5,1
            c0,0,0,0-0.5,0.5l-0.5,0.5c0,0,0,0.5-0.5,0.5c0,0.5,0,0.5-0.5,0.5c0,0.5-0.5,0.5-0.5,1c-0.5,0.5-1,1.5-1.5,2.5c0,0.5,0,1,0.5,1
            c0.5,0,0.5,0.5,0,0.5c-0.5,0-1,0.5-1,1v0.5v0.5c0,0.5,0,1-0.5,2c0,0.5,0,0.5,0,1c0,0.5,0,0.5,0,1s-0.5,0.5-1,0.5
            c-0.5,0-0.5,0-1,0.5c0,0.5,0,1,0,1s-0.5-0.5,0-0.5c0,0,0-0.5,0-1h-1c0,0.5,0,0.5-0.5,1c0,0,0,0.5-0.5,0.5c-0.5,0.5-0.5,1-0.5,1.5
            l0.5-0.5c0,0,0.5-0.5,1-0.5c0,0.5,0.5,0.5,0.5,0.5v0.5c0,0,0,0.5,0,1c0,0.5,0,1,0,1.5c-0.5,1-1,1.5-1.5,1.5c-0.5,0-1,0-1,0v1
            c0,1,0,1.5-1,2s-1,0-1-0.5s0.5-1,0-1.5c0-0.5,0-1,0.5-1.5l0,0l0.5-0.5c0,0,0,0,0,0.5c-0.5,0.5-0.5,0.5-0.5,0.5c0-0.5-0.5,0-1,0
            c-0.5,0.5-0.5,1-0.5,1c0,0.5,0,0.5-0.5,1s-0.5,0.5-0.5,0s0-1,0.5-1.5c0-0.5,0.5-1,0.5-1.5c0-0.5,0-0.5-0.5-0.5c0,0,0,0.5-0.5,1
            c-0.5,0.5-0.5,1-0.5,1.5c-0.5,1-1,1-1.5,1l-0.5,0.5c0,0.5,0,0.5,0,0.5v0.5c-0.5,0.5-0.5,1-0.5,1s-0.5,0.5-0.5,1c0,0-0.5,0.5-1,0.5
            s-0.5,0.5,0,0.5c0,0.5,0,1,0,1c-0.5,0.5-0.5,0.5-1,0c-0.5,0-0.5-0.5-0.5-0.5s0,0-0.5-0.5c0.5,0,0.5-0.5,0.5-0.5s0,0,0.5-0.5
            c0-0.5,0-1-0.5-1c0,0-0.5-0.5,0-1c0-0.5,0.5-1,0.5-1s0.5-0.5,0.5-1s0.5-1,0.5-1c0-0.5,0-0.5,0.5-1c0,0,0.5-0.5,0.5-1
            c0-0.5,0-0.5,0.5-1c0.5,0,0.5-0.5,0-1c0,0,0,0,0,0.5c0,0,0,0.5-0.5,0.5c0,0.5-0.5,0.5,0,1c0,0.5,0,0.5-0.5,1c-0.5,1-0.5,1.5-1,1.5
            c-0.5,0.5-0.5,0.5-1,1c0,0.5-0.5,0.5-0.5,1c0,0.5-0.5,0.5-0.5,1.5c-2,4.5-2,4.5-2,4.5c-0.5,0.5-0.5,0.5-0.5,1c0,0,0,0.5,0,1
            c-0.5,1-0.5,1.5-1,2c-0.5,0.5-0.5,0.5-1,0.5c0-0.5,0-1,0.5-1c0.5-1,1-1.5,1-2.5c0.5-1,0.5-2,1-3c0-0.5,0.5-1,0.5-1.5
            c0-0.5,0.5-1,0.5-1.5c0-0.5,0.5-1,0.5-1c0-0.5,0-0.5,0.5-1c0.5-1,0.5-2,1-2.5c0.5-1,1-1.5,1-2.5c0-0.5,0.5-1.5,0.5-2
            c0,0-0.5,0-0.5,0.5c0,0.5-0.5,0.5-0.5,1c0,0,0,0.5-0.5,1c-0.5,0.5-0.5,1-0.5,1.5c-0.5,1-1,1.5-1,2.5S301,465,301,465
            c0-0.5,0-0.5-0.5-0.5c0,0-0.5,0-0.5-0.5c0,0,0-0.5,0-1c0.5-0.5,0.5-1,0.5-1.5c0-0.5,0-1,0-1c0-0.5,0-0.5,0-1l0.5-0.5
            c0,0,0,0,0.5,0c0,0,0,0-0.5-0.5c0,0,0-1,0.5-2c0-0.5,0-1,0.5-1c0-0.5,0-1,0.5-1c0-0.5,0-0.5,0-1c0-0.5,0-1,0-1.5s0-0.5-0.5,0
            c0,0.5-0.5,1-0.5,1c0,0.5-0.5,0.5-0.5,1c-0.5,2-1,3.5-1.5,5c-0.5,1-0.5,2-1,3c-0.5,1-0.5,1.5-1,1.5c0-0.5,0-1.5,0.5-2.5
            c0-0.5,0.5-1,0-1.5c0-0.5,0-1,0-1c-0.5-0.5-0.5-0.5-1-0.5s-0.5-0.5-0.5-1c0-0.5,0-1,0-1c0-0.5,0-0.5,0-1s0-1,0-1s0-0.5,0-1
            c0-0.5,0-1,0.5-1.5c0-0.5,0-1,0-1c0.5-1,0.5-1.5,0.5-2.5c0-1,0.5-1.5,0.5-2.5c0,0,0-0.5,0-1c0-0.5,0-1,0-1s0-0.5,0.5-1
            c0-0.5,0.5-0.5,0.5-1l0,0V441v-0.5V440c0,0,0-0.5,0.5-0.5c0-0.5,0.5-1.5,1-2.5c0.5-1,0-1.5-0.5-2v0c0,0,0,0,0-0.5s0-0.5,0.5-1
            c0.5-0.5,0.5-1,0.5-1c0-0.5,0-0.5,0-1s0.5-1,0.5-1c0-0.5,0-0.5,0-1c0-0.5,0.5-1.5,0.5-2c0.5-0.5,0.5-1.5,1-2V425v-0.5l0,0
            c0-0.5,0-1,0-1l0.5-0.5v-0.5c0,0,0,0,0-0.5l0,0c0,0,0,0,0-0.5c0,0,0,0,0-0.5v-0.5l0,0l0,0l0,0c-0.5,0-1,0-1,0.5c0,0.5,0,0.5,0,1
            s0,1,0,1c0,0.5,0,1-0.5,1c0,0,0,0.5-0.5,0.5c0,0.5-0.5,0.5-0.5,1l0,0v0.5c0,0,0,0,0,0.5c-0.5,1-0.5,2-1,2.5c0,1-0.5,1.5-1,2.5
            c-0.5,0-0.5,0.5-1,0.5s-0.5,0.5-0.5,1s0,1,0,1.5c0,0.5,0,1,0,1c0,0.5,0,1,0,1c0,0.5,0,0.5-0.5,1c0,0.5-0.5,1-0.5,1s-0.5,0.5-0.5,1
            s-0.5,1,0,1c0,0.5,0,0.5,0,1l-0.5,0.5c0,0,0,0.5-0.5,0.5c0,0.5,0,0.5,0,0.5s0,0.5-0.5,1c0,0.5-0.5,1-0.5,1s0-0.5,0-1v-0.5V443
            c0.5-0.5,1-1.5,1-2.5c0-0.5,0-1,0-2c0.5-1,0.5-2,0.5-2.5c0-2,0.5-3,0.5-3l0.5-1c0-1,0.5-1.5,0.5-2.5c0.5-1,0.5-1.5,0.5-2.5
            c0-0.5,0-1,0-1c0-0.5,0-0.5,0-1c0-0.5,0.5-1,0.5-1s0.5-0.5,0.5-1c0-1,0.5-1.5,0.5-2.5c0-1,0.5-1.5,1-2.5c0-0.5,0-1,0.5-1
            c0-0.5,0-1,0-1c0-1,0.5-2,0.5-3s0.5-2,1-2.5c0.5-0.5,0.5-1.5,0.5-2c0-0.5,0-1,0-1c0-0.5,0-0.5,0-1s0.5-1.5,0.5-2
            c0-0.5,0.5-1,0.5-1.5c0-0.5,0-0.5,0-1c0-0.5,0-0.5,0-1s0.5-0.5,0-1c-0.5-0.5,0-0.5,0-1c0.5-0.5,1-1.5,1-2c0-0.5,0.5-1.5,0.5-2
            c0-0.5,0-0.5,0.5-1c0-0.5,0.5-0.5,0.5-1c0-0.5,0-0.5,0-1c0,0,0-0.5,0.5-0.5s0,0,0-0.5c0.5-1,1-2,1.5-3.5l0,0l0,0
            c0.5-1.5,0.5-3.5,1.5-5c0.5-1.5,1-3,1.5-4.5l0,0l0,0l0,0c-0.5-0.5-0.5-1,0-1s0.5-0.5,0-1v-0.5c0-0.5,0.5-0.5,0.5-1
            c0-0.5,0-0.5,0-1c0,0,0-0.5,0.5-1l0.5-0.5v-0.5c0,0,0,0,0-0.5s0-0.5,0-1c0-0.5,0-0.5,0.5-1v-0.5c0,0,0-0.5,0.5-0.5l0,0
            c0-1,0-1,0.5-1v-0.5c0.5-0.5,0.5-1,1-1.5c0.5-0.5,0.5-1,0.5-1.5s0.5-1,0.5-1.5c0-0.5,0.5-1,0.5-1.5c-0.5,0-0.5,0-1,0.5
            c-0.5,0-0.5,0-0.5,0c-0.5,0-1.5,0.5-2,1c-1,0.5-1.5,0.5-2.5,1c-0.5,0-0.5,0-1,0.5c-0.5,0-1,0.5-1,0.5s-0.5,0-1,0.5
            c-0.5,0.5-1,0-1.5,0.5c-0.5,0-1,0-1,0s-0.5,0-1,0c0,0-0.5,0-1.5,0s-1.5,0-2-0.5c-0.5-0.5-0.5-0.5-0.5-1c0,0-0.5-0.5-0.5-1
            c0,0-0.5-0.5-1-0.5c-0.5-0.5-0.5-0.5-1-0.5c-0.5-0.5-0.5-0.5-1-0.5s-0.5-0.5-0.5-1c0-0.5-0.5-0.5-0.5-1c-0.5-0.5-0.5-0.5-0.5-1
            c0,0-0.5-0.5-0.5-1s-0.5-1-0.5-1c-0.5-0.5-1-1-1-2c0,0,0-0.5,0-1s0-0.5,0-1v-2v-1c0,0,0,0,0-0.5v-1c0-0.5,0-0.5,0-1V346v-0.5
            c0,0,0-0.5,0.5-1c0,0,0,0,0-0.5c0,0,0,0,0-0.5c0-0.5,0,0,0,0l0.5-0.5c0,0,0.5-0.5,0.5-1l0.5-0.5c0.5-0.5,0.5-0.5,1-1
            c0,0,0-0.5,0.5-0.5s0.5-0.5,0.5-1c0.5-0.5,1-0.5,1-1c0.5,0,0.5-0.5,1-0.5l0.5-0.5c0.5-0.5,1.5-1,2-1c0.5-0.5,1.5-0.5,2.5-1
            c0.5,0,0.5-0.5,1-0.5s1-0.5,1-0.5c0.5,0,1.5,0,2-0.5c0.5-0.5,1.5-0.5,2-1l1-0.5h0.5l0,0l0,0c0,0,0,0,0.5,0l0,0h0.5v-0.5l0,0
            c0,0,0,0,0-0.5l0,0c0,0,0.5,0,0-0.5c0,0,0-0.5,0.5-0.5c0,0,0,0,0.5,0c0-0.5,0-0.5,0.5,0c0,0,0.5,0,0.5-0.5c0,0,0-0.5,0.5,0
            c0,0,0.5,0,1,0l0,0l0,0l0,0l0,0h0.5l0,0h0.5l0,0c0,0,0,0,0.5,0c0.5,0,0,0.5,0.5,0.5s0,0,0.5,0l0,0c0,0,0,0,0.5,0v0.5l0,0
            c0,0,0,0,0,0.5c0,0,0,0,0,0.5c0.5,0,0.5-0.5,1-0.5l0,0l0,0l0,0c0.5,0,1-0.5,1-1c0.5,0,1-0.5,1-0.5c0.5,0,0.5,0,1,0s1,0,1,0
            c0,0.5,0,0.5,0,0.5c0,0.5,0,0.5,0,0.5c0.5,0,0.5,0,1-0.5c0.5-0.5,1.5-0.5,2-1l0.5-0.5l0.5-0.5l0.5-0.5l0.5-0.5
            c0.5,0,0.5-0.5,0.5-0.5s0,0,0.5-0.5c0.5-0.5,1-0.5,1-0.5c0.5,0,0.5,0,1,0c0.5,0,0.5-0.5,1-1c0-0.5,0.5-0.5,1-1c0,0,0.5-0.5,1-1
            s1-0.5,1-1c0.5,0,0.5-0.5,1-0.5s0.5,0,1,0c0.5,0,0.5,0,0.5,0h0.5h1c0.5,0,1,0,1.5,0s1,0.5,1,0.5h0.5c0.5-0.5,1-0.5,1-0.5
            s0.5-0.5,1-0.5c0.5,0,1-0.5,1-0.5s0,0,0.5,0c0.5,0,0.5,0,0.5-0.5c0.5,0,0.5,0.5,0.5,1c-1,0.5-1.5,1-1.5,1l0,0l2.5,1
            c2,0.5,3.5,1.5,4.5,2c1,1,2,1.5,2,1.5c0,0.5,0.5,1,0.5,1s0.5,0.5,1,0.5c0,0,0.5,0.5,0.5,1c0,0.5,0.5,0.5,0.5,1s0,1,0,1
            c0,0.5-0.5,0.5-0.5,1c0.5,0,1,0.5,1,1.5c0,0.5,0,1.5,0.5,2c0,0,0,0.5-0.5,1v3.5H361z M300.5,466.5c0,0,0,0.5-0.5,1s-0.5,0.5-0.5,0
            S299.5,466.5,300.5,466.5c-0.5-0.5,0-0.5,0-0.5S300,466,300.5,466.5z M302,477c-0.5-0.5-0.5-0.5-0.5-1c0-0.5,0.5-0.5,1,0
            C303,476.5,303,477,302,477z M304.5,456.5c0-0.5,0.5-1,0-1.5c0-0.5,0-0.5-0.5,0l-0.5,1C304,456,304,456.5,304.5,456.5z M309,473
            c0,0,0-0.5,0.5-0.5c0.5-0.5,0.5-0.5,1-1c0,0.5,0,1-0.5,1S309.5,473,309,473z M311,470c0,0.5,0,0.5,0,0.5
            C310.5,470.5,310.5,470.5,311,470z M325,339.5L325,339.5L325,339.5v0.5c0.5-0.5,0.5-0.5,1-1C326,339,325.5,339,325,339.5
            C325.5,339,325.5,339.5,325,339.5C325.5,339.5,325.5,339.5,325,339.5z"/>
        <path fill="#ED1D24" d="M356,473c0-0.5,0.5-1,0.5-1c0.5,0,0.5,0,0.5,0.5C357,473,356.5,473,356,473z M481.5,393
            c0.5,1.5,0.5,3,1,4.5c0,1.5,0.5,3,0,4.5c0,0.5,0,1,0,2s0,2,0,2.5c0,1-0.5,1.5-0.5,2c0,0.5,0,1,0,1c0,0.5-0.5,1-0.5,2
            c0,0.5-0.5,1.5-0.5,2c0,0.5-0.5,1.5-0.5,2c-0.5,0.5-0.5,1.5-1,2c-0.5,0.5-0.5,1.5-1,2c-0.5,0.5-0.5,1.5-1,2c0,0-0.5,0.5-0.5,1
            c0,0.5-0.5,0.5-0.5,1c0,0-0.5,0.5-0.5,1s-0.5,0.5-0.5,1c-3,4-6,7-9,10c-3,3-6,5.5-9.5,7.5c-3,2.5-6.5,4.5-9.5,6
            c-1,0.5-1.5,1-2,1.5c-0.5,0.5-1,1-2,1.5c-0.5,0.5-1,1-2,1l-0.5,0.5c0,0,0,0-0.5,0c-1,1-2,1.5-2.5,1.5c-1,0.5-1.5,1-2.5,1.5
            c-0.5,0-1,0.5-1.5,0.5c-0.5,0-1,0.5-1.5,0.5c0,0-0.5,0-1,0s-0.5,0-1,0.5c-0.5,0-0.5,0.5-1,0.5c-1,0.5-1.5,1-2.5,1
            c-1,0.5-2,0.5-3,1c-1,0.5-2,1-2.5,1c-1,0.5-1.5,0.5-3,0.5c-1,0-1.5,0.5-2.5,0.5c-1,0.5-1.5,0.5-2,0.5c-0.5,0.5-1,0.5-1,0.5
            c-0.5,0-0.5,0-1,0s-0.5,0.5-1,1c0,0.5-0.5,0.5-0.5,0V464c0,0-0.5,0-1,0c-0.5,0-1,0.5-1.5,0.5s-1,0.5-1,0.5c-0.5,1-1.5,1.5-2.5,1.5
            c-1,0-2,0-3,0.5c-0.5,0-1,0.5-1,0.5s-0.5,0.5-1,0.5c-0.5,0-0.5,0.5-1,1c0,0.5-0.5,0.5-1,0.5c-0.5,0-1,0-1.5-0.5
            c-0.5-0.5-1,0-1,0.5c0,0.5-0.5,1-1,1s-1,0.5-1.5,0.5s-1,0.5-1.5,0.5c-0.5,0-1,0-1,0c-1,0-2,0-3,0.5c-0.5,0-0.5,0.5-0.5,0.5
            c0,0.5,0,0.5-0.5,0c0,0-0.5-0.5-1-0.5c-0.5,0-1,0-1,0.5c-0.5,0.5-1,0.5-2,1c-0.5,0-0.5,0.5-0.5,0.5c0,0.5-0.5,0.5-1,1
            c-0.5,0-1,0-1,0s-0.5-0.5-1-0.5c0,0.5-0.5,0.5-1,0.5v-0.5l0.5-0.5c-0.5-0.5-0.5-1,0-1s0.5-0.5,1-0.5c0,0,0,0,0.5,0c0,0,0,0,0.5,0
            l0,0c0.5,0,1,0,1.5-0.5s1-1,1.5-1c0.5,0,1,0.5,1,0.5s0.5,0,1-0.5c0,0,0.5,0,0.5-0.5c0.5-0.5,0.5-0.5,1-0.5c0.5,0,1,0,1-0.5
            c0-0.5,0-0.5-0.5-0.5s-0.5-0.5-0.5-0.5c0-0.5,0-0.5,0.5-1c0-0.5,0-0.5-0.5-1c-0.5,0-1,0.5-1,0.5s-0.5,0.5-1,0.5l-1-0.5
            c-0.5,0-1,0-1.5,0.5c-0.5,0-0.5,0.5-1,1c0,0-0.5,0-1,0c-0.5,0-1,0-1,0.5c0,0.5-0.5,0.5,0,1c0,0.5,0,1-1,1c-0.5,0-1,0-1-0.5
            c0-0.5,0.5-1,1-1c0,0,0.5-0.5,0.5-1s0-1-0.5-1c0,0-0.5,0.5-1.5,1c-0.5,0-1,0.5-1,0.5s-0.5,0.5-1,0.5c-0.5,0-1,0.5-1,0
            c-0.5,0-0.5,0-1,0.5c0,0.5,0,0.5,0.5,1c0.5,0,1,0,1.5,0c0.5-0.5,1-0.5,1.5-0.5s0.5,0,1,0c0.5,0.5,0,0.5-0.5,1s-1,0.5-1,0
            c-0.5,0-1,0-1,0.5c-0.5,0.5-0.5,0.5-0.5,1l0.5,0.5h0.5c0,0.5,0.5,0.5,1,0.5c0.5,0,1,0,1.5,0c0,0.5-0.5,0.5-0.5,0.5s0,0-0.5,0.5
            c0,0,0,0.5-0.5,0.5c-0.5,0.5-0.5,0.5-1,1c-1,0-2,0-2.5-0.5s-0.5-1-1-1l-0.5,0.5l-0.5,0.5c-0.5,0.5-0.5,0.5-1,0.5s-1,0-1,0
            c-0.5,0-0.5-0.5-0.5-0.5s0-0.5,0.5-0.5s1-0.5,1-0.5c0.5-0.5,0.5-0.5,1-0.5c0,0,0,0,0.5,0s0.5,0,1-0.5v-0.5l0,0l0,0V473
            c0,0,0-0.5,0-1c-0.5-0.5-1-1-1.5-0.5C370,472,370,472,370,472v0.5c0,0,0,0.5-0.5,0.5l-0.5-0.5c0,0,0-0.5-0.5-0.5c0,0-0.5,0-1-0.5
            H367l-0.5,0.5c-1,0.5-1.5,1-2,0.5s-1-0.5-1.5,0l-0.5,0.5c0,0,0,0-0.5,0.5c-0.5,0-1,0-1.5,0c-0.5,0-1,0-1.5,0c-0.5,0-0.5,0-1-0.5
            c-0.5-0.5-0.5,0-0.5,0.5c0,0.5-0.5,0.5-1,0.5s-0.5-0.5-0.5-1c0-0.5,0-0.5,0-0.5s0,0,0-0.5c0.5,0,0.5,0,0.5,0s0,0,0.5,0
            c0.5-0.5,0.5-0.5,0.5-1c0-0.5,0.5-0.5,1-1c0.5,0,1-0.5,1.5,0c0.5,0,0.5,0,1,0s1-0.5,1-0.5c0.5,0,0.5-0.5,1-0.5c0,0,0.5,0,1,0
            c0.5,0,1,0,1,0s0.5,0,1-0.5c0-0.5,0.5-0.5,0.5-0.5s0,0,0.5-0.5c0,0,0.5,0,1,0h1c0.5,0,1,0,1-0.5c0-0.5,0-1,0-1c0.5-0.5,0.5-1,0-1
            c-0.5,0-1,0-1.5,0c0,0-0.5,0-1,0.5c-0.5,0-1,0.5-1.5,0.5c-1,0-2,0.5-2.5,0.5c-0.5,0.5-1,0.5-1.5,0.5l0.5-0.5V466
            c0,0,0.5-0.5,1-0.5c0.5,0,1,0,1.5,0c0.5,0,0.5-0.5,1-0.5c0.5,0,0.5-0.5,1-0.5s1,0.5,1,0.5s0.5,0,1-0.5c0.5-1,1-1,1.5-1
            c0.5,0.5,0.5,1,0.5,1s0,0.5,0,1c0,0.5,0,0.5,0,0.5s0,0.5,0.5,0.5c0.5,0,1-0.5,1-0.5c0.5,0,0.5-0.5,1-0.5s1,0,1-0.5
            c0-0.5,0.5-0.5,0.5-0.5s0.5,0,1,0c0,0,0.5,0,0.5,0.5l0.5,0.5c0,0,0.5-0.5,1-1s0.5-1,0-1c0-0.5-0.5-0.5-0.5-1
            c-0.5,0-0.5-0.5-0.5-0.5c0-0.5,0.5-0.5,0.5-0.5c0.5-1,1-1.5,2-1c0,0,0.5,0,1,0.5c0.5,0.5,1,0,1,0c0-0.5,0.5-0.5,1-1
            c0.5,0,1-0.5,1.5-0.5c0.5,0,0.5,0,0.5,0s0-0.5,0.5-0.5s0.5-0.5,0.5,0c0,0,0,0,0.5,0c0.5,0,0.5-0.5,1-1s0.5-0.5,0.5-1
            c0.5-0.5,1-0.5,1-0.5s-0.5,0-1,0s-1,0.5-1,0.5c0,0.5-0.5,0.5-1,0c0,0-0.5-0.5,0-1c0.5-0.5,0-0.5,0.5-1c0,0,0.5-0.5,1-0.5
            s1-0.5,1-0.5l0.5-0.5c0,0,0,0,0-0.5c0-0.5,0-1,0.5-1.5c0.5-0.5,0.5-0.5,1,0c0.5,0.5,1.5,1,2,1h0.5c0,0,0,0,0.5-0.5
            c0.5,0,1-0.5,1-1c0-0.5,0.5-0.5,1-1c0.5,0,1,0,1-0.5s0.5-0.5,1-1c0.5,0,1-0.5,1-0.5s0.5,0,0.5,0.5c0.5,0.5,0.5,0.5,1,0.5
            c0,0,0.5-0.5,0.5-1v-0.5c0,0,0,0,0-0.5v-0.5V446h-0.5c-0.5,0-0.5,0.5-1,1c-0.5,0.5-0.5,0.5-1,0c-0.5-0.5-0.5-0.5-1-0.5H396V446
            c0.5,0,0.5,0,0.5,0h0.5c0.5-0.5,0.5-1,1-1c0,0,0.5,0,1,0c0.5,0,0.5-0.5,1-1l0.5-0.5l0.5-0.5c0.5,0,0.5-0.5,0.5-1s0-1,0-1.5
            c0,0,0,0,0-0.5v-0.5c-0.5,0-0.5,0-0.5-0.5s0.5-1,1-1s0.5-0.5,1-0.5c0,0,0.5-0.5,1-0.5c0.5-0.5,1-0.5,1-1c1-0.5,1.5-1,2.5-1.5
            c0.5-0.5,1.5-1,2.5-1c0.5,0,1-0.5,1-0.5c0.5,0,0.5-0.5,1-0.5c0.5,0,1-0.5,1.5-0.5c0.5,0,1-0.5,1-0.5s0.5-0.5,1-1
            c0.5-0.5,1-0.5,1-0.5c0.5-0.5,1.5-0.5,2-1c1-0.5,1.5-1,2.5-1.5c0,0,0.5-0.5,1-0.5c0.5-0.5,1-0.5,1-1l1-0.5l0.5-0.5h0.5l0.5-0.5
            c1-0.5,2.5-1.5,3.5-2c1-0.5,2.5-1.5,3.5-2.5c1-0.5,2-1.5,3.5-2c2-1.5,4-3,6-4.5c2-1.5,3.5-3,4.5-4.5c0.5-0.5,0.5-1,1-1l0.5-0.5
            l0,0c0,0,0,0,0-0.5l0,0l0,0l0,0v-0.5c0,0,0,0,0-0.5l0,0l0,0c0,0,0-0.5,0,0l0,0c0-0.5,0-0.5-0.5-0.5l0,0l0,0l0,0H447
            c-0.5,0-1,0-2,0c-0.5,0-1,0-2,0c-0.5,0-1,0-2,0h-2h-1.5c-1,0-2.5,0-4,0.5c-1.5,0-3,0.5-4.5,0.5s-3,0.5-4,0.5c-1.5,0-2.5,0.5-4,1
            c-1,0-1.5,0.5-2,0.5c-0.5,0-1.5,0-2,0.5c-1.5-4-2-4-3-4c-0.5,0-1.5,0.5-2,0.5c-1,0-1.5,0.5-2,0.5l-1.5,0.5H408c-0.5,0-0.5,0-0.5,0
            c-0.5,0-0.5,0-1,0c-1,0-2,0-2.5,0c-1,0-1.5,0.5-2.5,0.5c-1,0-1.5,0-2.5,0.5c-1,0.5-1.5,0-2.5,0c-0.5,0-1,0-1,0s-0.5,0-1,0h-1
            c-0.5,0-0.5-0.5-0.5-0.5h-0.5c-0.5,0-1-0.5-1-0.5L391,406l0,0l0,0c0,0-0.5,0-0.5-0.5H389c0,0-0.5,0-1.5-0.5l0,0c0,0,0,0.5-0.5,0.5
            c-0.5,0-0.5,0-0.5-0.5l0,0c0,0,0,0,0-0.5c-0.5-0.5-1-1-1-1.5c0-0.5-0.5-0.5-0.5-0.5s-0.5,0-0.5-0.5l-0.5-0.5l-0.5-0.5
            c0,0,0,0-0.5-0.5l0,0h-0.5c-0.5,0-0.5,0-1-0.5c0,0,0-0.5,0-1s0.5-0.5,1-0.5l0,0l0,0c-0.5-0.5-0.5-0.5-1-1c0,0-0.5-0.5-0.5-1l0,0
            c0,0-0.5,0.5-1,1c-0.5,0.5-0.5,0.5-1,0c-0.5,0-0.5-0.5-0.5-0.5s0-0.5,0,0c0,0.5,0.5,0,0.5,0s0-0.5-0.5-0.5c0,0,0-0.5-0.5-0.5
            c-0.5,0-1,0-1,0.5v0.5c0,0,0,0.5-0.5,0.5H376c-0.5,0-1,0-1.5-0.5v-0.5V396c0,0-0.5-0.5-0.5,0h-0.5c0,0-0.5,0-0.5-0.5
            c0,0,0,0-0.5,0L372,396c0,0-0.5,0.5,0,1c0,0-0.5,0.5-0.5,0c0,0-0.5,0-0.5-0.5V396v-0.5c0-0.5,0.5-1,1-1s0.5,0,1,0
            c0.5,0,0.5,0,1.5,0h0.5c0.5,0,0.5,0,0-0.5c-0.5,0-1-0.5-1-0.5s-1,1.5-1.5,1.5s-1,0-1,0s0,0,0-0.5c0,0,0.5-0.5,1,0s1,0,1,0
            c1,0,1,0,1-0.5H374h-0.5c0,0,0,0-0.5,0c0,0,0,0-0.5,0c0,0,0,0-0.5,0s-0.5,0-0.5,0v-0.5c0,0,0,0,0-0.5v-0.5c0,0,0-0.5,0.5-1V391
            v-0.5l0.5-0.5c0,0,0-0.5,0.5-0.5c0,0,0,0,0.5,0.5c0.5,0,1,0,1,0s0.5,0,0,0s0,0,0,0l0,0l0,0c0-0.5-0.5-0.5-1-0.5
            c-0.5,0-0.5,0-1-0.5s-0.5,0,0-0.5V388c0-0.5,0-0.5,0.5-0.5s0.5,0,1,0.5c0-0.5,0-1-0.5-1c-0.5,0-0.5-0.5-0.5-0.5s0.5-0.5,1,0
            c0.5,0,1,0,1-0.5c0-0.5,0.5-0.5,0-1v-0.5V384c0-0.5,0-0.5,0-0.5c0.5,0,0.5,0,1-0.5v-0.5V382c0,0,0-0.5-0.5-0.5
            c-0.5,0-0.5-0.5-1-0.5c0,0-0.5,0,0,0h0.5h1c0-0.5,0-1-1-1c-1,0-1.5,0-1.5-0.5L373,379c0,0,0-0.5,0.5-0.5c0,0,0,0,0-0.5
            c0-0.5,0-0.5,0-0.5s0.5,0,0.5-0.5c0,0,0,0-0.5,0H373c-0.5,0-0.5-0.5-0.5-0.5s0,0,0.5-0.5l0.5-0.5c0.5,0,0.5,0,0.5-0.5s0-0.5,0-0.5
            s0,0,0-0.5c0-0.5,1-1.5,1-2l-0.5-0.5c0-0.5,0-0.5,0.5-1l0,0V370c-0.5-0.5,0-0.5,0.5-1v-0.5c0-0.5,0-0.5,0-0.5c0-0.5,0-0.5,0-1
            c0,0,0-0.5,0-1c0-0.5,0.5-1,0.5-1.5c0-0.5,0.5-0.5,0.5-1l0.5-0.5v-0.5c0.5-1,1-1.5,1-2.5c0-0.5,0.5-1.5,1-2c0.5-0.5,0.5-1.5,0.5-2
            c0-1,0-1.5,0.5-2v-0.5l0,0c0-0.5,0.5-0.5,0-1c0,0,0-0.5,0-1l0,0l0,0V351h0.5v-0.5c0,0,0-0.5,0-1l0,0l0,0c-0.5-0.5-0.5-1,0.5-1l0,0
            c0-0.5,0.5-1,0.5-1c0-0.5,0-0.5,0.5-1c-1,0-1.5,0-2,0s-0.5,0-0.5,0H379c-0.5,0-1,0-1.5,0c-0.5,0-1,0-1.5,0V346c0,0,0.5-0.5,1-0.5
            c0.5,0,1,0,1.5,0.5s1,0,1,0s0.5,0,1.5-0.5c0.5,0,1.5-0.5,2-0.5h0.5l0,0v-0.5c0,0,0,0,0-0.5c-0.5,0-1,0-1.5-0.5c-0.5-0.5-1-0.5-1,0
            s-0.5,0.5-1,0.5s-0.5,0-1,0c-0.5,0-1,0-1.5-0.5h0.5c0.5,0,0.5,0,1-0.5c0.5,0,0.5-0.5,1-0.5s1,0,1.5,0c0,0,0.5,0,1-0.5
            c0,0,0.5,0,1,0h0.5c0.5,0,0.5,0,0.5,0h0.5l0,0l0.5-0.5V341c0,0,0,0,0-0.5c0,0,0,0,0-0.5s0,0,0-0.5l0,0l0,0l0,0l0,0l0,0
            c-0.5-0.5-0.5-0.5-0.5-1c0-0.5,0.5-0.5,1-0.5h1h0.5l0,0c0,0,0.5,0,0.5,0.5c0,0,0,0-0.5,0.5h0.5c1,0,1,0.5,1,1h0.5
            c0,0,0-0.5-0.5-0.5s-0.5-0.5-1-0.5c-0.5,0-0.5-0.5,0-1c0.5-0.5,1.5-0.5,2-0.5h0.5h0.5h0.5c0.5,0,0.5,0,0.5,0.5v0.5h-0.5v0.5v0.5
            l0.5-0.5c0-0.5,0-0.5,0.5-0.5l0,0h2.5h0.5h0.5c0.5,0,0.5,0,1,0c0,0,0.5,0,1,0c0,0,0,0,0,0.5c0,0,0.5,0.5,1,0.5h1h0.5
            c0.5,0,0.5,0,1,0.5c0.5,0.5,0.5,0.5,1,0.5h0.5l0,0V340c0-0.5,0.5,0,0.5,0.5c0-0.5,0-1,0-1.5c0-0.5,0-1,0-1.5v-1c0,0,0.5,0,0.5,0.5
            c0,0,0-0.5,0-1.5h0.5h0.5V335c0,0,0,0,0-0.5l0,0l0.5,0.5c0,0.5,0.5,1,0,1c0,0.5,0,0.5,0,1c0,0,0,0,0.5,0c0-0.5,0-0.5,0-1
            s0-1,0.5-1s0.5,0.5,0.5,1s0,1,0.5,0.5c0,0,0,0,0.5,0c0,0,0,0,0.5-0.5c0-0.5-0.5-0.5-0.5-0.5s0,0,0-0.5c0-0.5,0-1,0.5-1.5
            c0.5-0.5,1,0,1,1c0.5,0.5,0.5,1,0.5,0.5v-0.5c0,0,0,0,0-0.5s0,0,0-0.5c0.5-0.5,1-1,1-1c0,0.5,0.5,0.5,0.5,0.5s0.5,0,0.5,0.5
            c0,0,0,0,0,0.5s0,1,0.5,1h0.5c0,0.5,0.5,0.5,0.5,0.5c0.5,0,0.5,0,1,0c0,0,0,0,0.5,0.5c0,0,0,0,0-1c0,0,0.5-0.5,0.5,0
            c0.5,0,0.5,0,0.5,0c0-0.5,0-0.5,0-1s-0.5-0.5-0.5-0.5c-0.5,0-0.5-0.5,0-0.5c0-0.5,0.5-0.5,0.5-1c0,0,0-0.5,0.5-0.5
            c0.5,0,0.5-0.5,0.5-0.5c0.5,0,0.5,0,1,0c0.5-0.5,1-0.5,1.5,0c0.5,0.5,1,0,1-0.5c0.5,0,1,0,1-0.5c0,0,0.5-0.5,0.5,0h0.5
            c0.5,0,1-0.5,1.5,0c0.5,0,1,0,1-0.5c0.5-0.5,1-0.5,1.5-0.5c0.5,0,1,0,1-0.5h0.5h0.5h0.5h0.5c0,0,0.5,0,0.5-0.5s0.5,0,0.5,0.5
            c0,0.5,0.5,0.5,0.5,0c0.5,0,0.5-0.5,0.5-0.5s0.5,0,1,0s1,0,1.5-0.5h0.5c0,0,0.5,0,0.5-0.5c0.5-0.5,1.5-1,2.5-1c0,0,0.5-0.5,1-0.5
            c0.5,0,1,0,1.5,0c0.5,0,1,0,1.5-0.5l0,0c0,0,0,0,0.5,0h0.5h0.5c0,0,0,0,0.5,0c0,0,0,0,0.5,0s1,0,1,0c0.5,0,0.5,0,1,0
            c0.5,0,1.5,0,2.5-0.5c0.5,0,1,0,2,0c0.5,0,1,0,1.5,0c1,0,2.5-0.5,3.5-0.5c0.5,0,1,0,1.5,0c0.5,0,1,0,1.5,0c1-0.5,2-1,3-1
            c1,0,2,0,3,0c0.5,0,1,0,1,0c0.5,0,1,0,1.5,0c0.5,0,1,0.5,1,0.5s0.5,0.5,1,0.5c0.5,0.5,1,0.5,1.5,0.5c0.5,0,1,0,1,0
            c0.5,0,1,0.5,1,0.5c0.5,0,1,0.5,1.5,1c0,0,0.5,0.5,0.5,1c0.5,0.5,0.5,1,0.5,1c0,0.5,0.5,1,0.5,1.5c0.5,0.5,0.5,1,1,1.5
            c0.5,0,0.5,0.5,1,0.5c0.5,0,0.5,0.5,1,1c0,0,0.5,0.5,0.5,1c0,0.5,0.5,1,0.5,1.5c0,0.5,0.5,1,0.5,2c0,0.5,0,1,0,1c-0.5,0.5-1,1-1,1
            c1,0.5,1,1,1,1c-0.5,0.5-0.5,1-1,1c-0.5,0-0.5,0.5-1,1c0,0-0.5,0.5-0.5,1c0,0.5-0.5,1-1,1c0,0-0.5,0.5-1,1c-0.5,0.5-0.5,1-0.5,1
            c-0.5,0.5-1,0.5-1.5,0.5s-1,0-1.5,0c-1,0-2.5,0.5-3.5,1c0,0-0.5,0.5-1,0.5s-1,0.5-1,0.5c-0.5,0-1,0.5-2,0.5c-0.5,0-1,0-1.5,0.5
            c-0.5,0.5-1,0.5-1,1c-0.5,0.5-1,0.5-1.5,0.5c-0.5,0-1,0-1.5,0c-0.5,0-1-0.5-1.5-0.5c-0.5,0-1,0-1.5,0c-0.5,0-1,0-1.5,0.5
            c-1.5,0.5-2.5,1-3.5,1c-0.5,0-1,0.5-1,0.5c-0.5,0-1,0-1,0c-0.5,0-1,0.5-1.5,0.5c0,0-0.5,0.5-0.5,0h-0.5l-0.5,0.5
            c0,0-0.5,0-0.5,0.5c0,0-0.5,0.5-0.5,1s0,0.5,0,1c0,0-0.5,0-1-0.5c-0.5,0-0.5,0.5-0.5,0.5H443l-0.5,0.5L442,357c-0.5,0.5-1,0.5-1,1
            c-0.5,0.5-0.5,0.5-1,0.5h-0.5c0,0-0.5,0-0.5,0.5s-0.5,0.5-1,1c0,0-0.5,0-0.5-0.5c0-0.5-0.5-0.5-0.5-0.5c0,0.5,0,0.5,0,0.5v0.5
            l-0.5,0.5c-1,0.5-1.5,1-2.5,1.5c-0.5,0-0.5,0.5-1,0.5c-0.5,0-1,0.5-1.5,0.5c-0.5,0-0.5,0.5-1.5,0.5h-0.5c-0.5,0-0.5,0-0.5,0l0,0
            c-0.5,0-0.5,0-0.5-1V362l0,0l0,0c0,0.5,0,1,0,1c0,0.5,0,0.5,0,0.5c-0.5,0-1,0.5-1.5,0.5s-1,0-1-1c0-0.5,0.5-0.5,0-1
            c-0.5-0.5,0-1-0.5-1.5c0-0.5,0.5-0.5,0.5,0c0,0,0.5,0.5,0.5,1.5c0,0.5,0.5,1,0.5,1s0.5,0,0.5-0.5c-0.5-1-0.5-2,0-2.5v-0.5
            c-0.5,0-0.5-0.5-0.5,0c-0.5,0-1,0-1.5,0.5c0,0.5,0,0.5,0,1s0.5,1,0.5,1v0.5c0,0,0,0.5,0.5,0.5c0,0.5,0,0.5-0.5,0.5
            c-0.5,0-1-0.5-1-0.5v-2.5c0-0.5,0-1,0-1c0-0.5-0.5-0.5-0.5-0.5s-0.5,0.5,0,1.5c0,0.5,0,1-0.5,0.5h-0.5l0,0c0,0,0,0-0.5,0
            c0,0,0,0-0.5,0H422c-0.5,0-0.5,0-0.5,0c-0.5,0-0.5-0.5-1-0.5L420,361c0,0.5-0.5,0.5-0.5,0c-0.5-0.5-1-0.5-1-0.5s-0.5,0-0.5,0.5
            l-0.5,0.5c-0.5,0-0.5,0-0.5,0c0-0.5-0.5-0.5-0.5,0c-0.5,0.5-0.5,0.5-1,0.5c-0.5,0-1,0-1,0c0,0.5-0.5,1.5-0.5,2s-0.5,1.5-0.5,2
            s0,1-0.5,1.5c-0.5,0.5-0.5,0.5-0.5,1s-0.5,0.5-0.5,1c0,0.5-0.5,0.5-0.5,1c0,0,0,0-0.5,0.5c0,0.5,0,0.5,0,0.5s0,0.5-0.5,0.5
            c0,0,0,0-0.5,0.5c0,0,0,0,0.5,0c2-0.5,3.5-0.5,5-0.5s3-0.5,4-1h0.5c0,0,0.5,0,1,0c1,0,2,0,2.5-0.5c1,0,2,0,3,0c1,0,1.5,0,2,0
            c0.5,0,1,0,2-0.5c2-0.5,3.5-0.5,5.5,0c0,0,1,0,2,0s2,0,2.5,0c1.5-0.5,3.5-0.5,5.5,0c2,0.5,4.5,0.5,6.5,0.5c1,0,2.5,0.5,3,0.5
            s2,0.5,4,1c3,1,6,2,8.5,3s5,3,7,5C477.5,382.5,480.5,387,481.5,393z M364,466c-0.5,0-1,0.5-1,0.5h-0.5c0,0,0,0,0-0.5
            C362.5,465.5,363,465.5,364,466c0-0.5,0.5-0.5,0.5-0.5S364,465.5,364,466z M363,476c0,0,0,0,0.5,0c0.5,0,1,0,1,0s-0.5,0.5-1,0.5
            C364,477,363.5,477,363,476z M366,341C366,341.5,365.5,341.5,366,341C365.5,341,365.5,341,366,341z M366.5,476
            c0,0.5-0.5,0.5-0.5,0C366,476,366,476,366.5,476z M368,349C367.5,349.5,367.5,349.5,368,349C367.5,349,367.5,349,368,349z
             M371,385v0.5c-0.5,0-0.5,0-0.5,0C370.5,385,370.5,385,371,385z M371.5,384C371,384,371,384,371.5,384C371,384,371,384,371.5,384
            c0-0.5,0-0.5,0-1v-0.5c0-0.5,1-0.5,1.5,0l0,0l0,0c-0.5,0.5-0.5,1-0.5,1c0,0.5,0,0.5-0.5,1c0,0,0-0.5,0-1c0,0,0.5,0,0.5-0.5
            C372,383.5,372,383.5,371.5,384L371.5,384z M371.5,400L371.5,400C371,400,371.5,400,371.5,400z M372.5,381v0.5c-0.5,0-0.5,0-0.5,0
            C372,381,372,380.5,372.5,381z M372,386L372,386L372,386L372,386z M373,395.5C373,396,373,396,373,395.5
            C373,396,373,396,373,395.5C372.5,396,372.5,395.5,373,395.5C372.5,395.5,372.5,395.5,373,395.5z M374,353.5c-0.5,0-1-0.5-1.5-0.5
            c-0.5-0.5-0.5-0.5,0-1c0.5,0,1,0,1,0h0.5h0.5c0.5,0,1,0,0.5,0.5C375,352,375,352.5,374,353.5L374,353.5L374,353.5z M373,349
            c-0.5,0-0.5-0.5,0-1s1-0.5,1,0C374.5,348.5,374,349,373,349L373,349C373.5,349.5,373,349,373,349z M374,380L374,380
            c-1,0-1-0.5-1-0.5C373,379.5,373.5,379.5,374,380C373.5,379.5,373.5,379.5,374,380z M374,459.5C374,460,374,460,374,459.5
            c-1,0.5-1,0.5-1,0.5l0,0C373,460,373.5,460,374,459.5L374,459.5z M373,391.5c0.5,0.5,1,0.5,1,0.5l0,0v-0.5c0,0-0.5-0.5-0.5,0
            C373,391,373,391.5,373,391.5z M373.5,377L373.5,377L373.5,377z M373.5,376.5C373.5,376.5,373.5,376,373.5,376.5
            C373.5,376,373.5,376.5,373.5,376.5C373.5,377,373.5,377,373.5,376.5z M374.5,389L374.5,389c-1,0-1,0-1-0.5
            C374,388.5,374,388.5,374.5,389z M375,379.5c-0.5,0-0.5,0-1,0c-0.5,0-0.5-0.5-0.5-0.5s0-0.5,0.5,0C374.5,379,374.5,379,375,379.5
            C375.5,379,375.5,379.5,375,379.5z M374.5,399h0.5c0.5,0,0.5,0.5,1,0.5l0,0c0,0.5-0.5,0.5-1.5,0
            C374.5,399.5,374.5,399.5,374.5,399z M375.5,401L375.5,401C374.5,400.5,374.5,400.5,375.5,401z M376,349c0,0-0.5,0-1,0
            s0-0.5,0.5-0.5C376,348.5,376,348.5,376,349z M376,462.5c-0.5,0-1,0-1-0.5s0-0.5,0.5-0.5c0,0,0.5-0.5,1-1c0.5-0.5,1-0.5,1.5-0.5
            c0,0,0.5,0,1,0c0.5,0,0.5,0,1,0c0.5,0.5,0.5,1,0,1c-0.5,0-0.5,0.5-1,1l-0.5,0.5C378.5,462.5,377,462,376,462.5z M375.5,392.5
            c0,0.5,0.5,0.5,0.5,0l0,0C375.5,392,375.5,392,375.5,392.5z M376,458.5c0,0,0.5-0.5,1,0c0.5,0,1,0,1,0.5c0,0-0.5,0.5-1,0.5
            C376,459.5,376,459,376,458.5z M376,397.5L376,397.5L376,397.5z M377,351.5c0,0,0.5-0.5,1-0.5s1,0,0,1h-0.5L377,351.5z M377.5,402
            c0.5,0,1,0,1,0S378.5,401.5,377.5,402c0-1-0.5-1,0-1h0.5c0.5,0,0.5,0,0.5,0c0-0.5,0-0.5,0-0.5c-0.5-0.5-0.5-1,0.5-1
            c0.5,0,1,0,1.5,0.5c0,0-0.5,0.5,0,0.5s0,0.5,0,0.5s0,0,0,0.5l0,0l0,0l0,0c-0.5,0.5-0.5,0.5-0.5,1s0,0.5,0,0.5v0.5v0.5
            c0,0-0.5,0-1,0c-0.5,0-0.5,0-0.5-0.5c0,0,0.5-0.5,0-1C377.5,402.5,377.5,402.5,377.5,402C377,402,377,402,377.5,402z M378.5,348.5
            c0,0.5-0.5,0.5-0.5,0.5c-0.5,0-0.5-0.5,0-0.5C377.5,348.5,377.5,348.5,378.5,348.5C378,348,378,348.5,378.5,348.5z M378.5,395.5
            C378.5,395,378.5,395,378.5,395.5c0.5-0.5,0.5-0.5,0.5-0.5s-0.5,0-0.5-0.5c-0.5,0-0.5,0-0.5,0l-0.5,0.5c0,0,0,0,0,0.5
            C377.5,395.5,378,395.5,378.5,395.5C378.5,395.5,379,395.5,378.5,395.5z M378,406.5C378,407,378,406.5,378,406.5l-0.5-0.5
            c0-0.5,0.5-0.5,1,0l0,0C378,406,378,406.5,378,406.5z M379.5,458C379,458,379,458,379.5,458C379.5,457,380,457,379.5,458
            C380,458,379.5,458,379.5,458z M379.5,393.5L379.5,393.5L379.5,393.5z M380.5,405v-0.5c0-0.5,0-0.5,0-0.5l0,0l0,0
            c0.5,0,0.5,0,1,0.5v0.5v0.5C381.5,405,381,405.5,380.5,405z M382,470L382,470c-0.5,0-0.5,0-0.5,0l0,0c-0.5-0.5-0.5-1,0-1
            C382,469,382,469.5,382,470z M381.5,402L381.5,402L381.5,402C381.5,402.5,381.5,402.5,381.5,402z M382.5,401.5
            C383,401.5,382.5,402,382.5,401.5L382.5,401.5z M388.5,459l0.5-0.5l0.5-0.5c-0.5,0-1,0-1.5,0c-0.5,0.5-1.5,0.5-2.5,1
            c-1,0-1.5,0.5-2.5,1c0,0,0,0.5,0,1c0.5,0.5,0.5,0.5,1-0.5h0.5c0.5,0.5,0.5,0.5,1,0.5l0.5-0.5c0,0,0,0,0-0.5c0.5,0,1-0.5,1-1
            C388,459.5,388,459.5,388.5,459z M383.5,454.5c0.5-1,1-1.5,2-1c0,0.5,0,1,0,1c-0.5,0.5-0.5,0.5-1,0.5l0,0
            C383.5,456,383.5,456,383.5,454.5z M386.5,464.5c0,0-0.5,0-1,0C385,465,385,465,385,465s-0.5,0-0.5,0.5c-0.5,0-0.5,0.5,0,0.5
            s1,0,1.5,0h0.5l0,0C386.5,465,386.5,465,386.5,464.5z M385,409C384.5,409,384.5,409,385,409C384.5,409,384.5,409,385,409L385,409z
             M386.5,406.5L386.5,406.5C386,406.5,386,406.5,386.5,406.5C386,406,386,406,386.5,406.5z M388.5,409.5c-0.5,0-0.5,0-0.5-0.5
            C388,409,388.5,409,388.5,409.5C389,409.5,389,409.5,388.5,409.5z M388.5,407.5C388,407,388.5,407,388.5,407.5c1,0,1,0,1,0.5v0.5
            H389C388.5,408,388.5,407.5,388.5,407.5z M389.5,406.5C389,406.5,389,406.5,389.5,406.5c-0.5-0.5-0.5-0.5-1-0.5c0,0,0,0,0.5,0
            c0.5,0,0.5,0,1,0v0.5C390,406,389.5,406,389.5,406.5z M390,467c0-0.5,0-0.5,0-0.5s0,0-0.5-0.5H389c0,0,0,0.5,0,1
            S389.5,467.5,390,467z M391,337c0,0.5,0,0.5,0,0.5v0.5l0,0l0,0h1c0,0,0,0,0-0.5C391.5,337.5,391.5,337,391,337L391,337z
             M391.5,466c0,0,0.5,0.5,0.5,1c0.5,0.5,0.5,0.5,1,0.5v-1c0-0.5-0.5-1-1-1S391.5,465.5,391.5,466z M393,463c0.5-0.5,0.5-1-0.5-1
            s-1,0-1,0C391.5,463,392,463.5,393,463L393,463L393,463z M393,452.5c-0.5,0-0.5,0.5-0.5,1c0,0.5,0.5,0.5,1,0.5l0.5-0.5
            c0,0,0,0,0.5,0C393.5,453,393.5,453,393,452.5L393,452.5z M394,446.5c-0.5,0-0.5-0.5-0.5-0.5C394,445.5,394,446,394,446.5z
             M394.5,459L394.5,459c0.5-0.5,0.5-0.5,0.5-1c0,0,0-0.5-0.5-1c0-0.5,0-1,0.5-1l0.5,0.5c0,0,0,0,0.5,0c0,0,0-0.5,0-1s0-0.5,0-1
            c0,0-0.5,0-1,0s-0.5,0.5-1,0.5c0,0-0.5,0.5,0,1c0,0.5,0,1,0,1.5s0,1,0,1C393.5,459.5,394,459.5,394.5,459z M398.5,451
            c0.5-0.5,0.5-1,0.5-1c0-0.5-0.5,0-1,0.5c0,0,0,0.5-0.5,0.5s0,0,0,0.5H397c-0.5,0-0.5,0-0.5,0c-0.5,0.5-1,1-1,1
            c-0.5,0-0.5,0.5-1,0.5v0.5c0.5,0.5,0.5,0.5,1,0c0,0,0,0,0.5,0c0,0,0.5-0.5,1-0.5c0,0,0.5-0.5,1-0.5
            C398,451.5,398.5,451.5,398.5,451z M394.5,442C394.5,442.5,394.5,442.5,394.5,442L394.5,442z M395.5,466c0,0,0.5-0.5,1-1
            c0.5-0.5,0.5-0.5,0.5-0.5c0-0.5-0.5-0.5-1-0.5c-0.5,0-0.5,0.5-1,1c0,0.5,0,0.5-0.5,1c0,0.5,0,0.5,0,0.5L395.5,466z M401,440.5
            c0,0-0.5,0-1,0s-1,0.5-1.5,0.5s-1,0.5-1,0.5c-0.5,0.5-0.5,0.5-1,0.5c0,0-0.5,0.5-0.5,0c0,0-0.5,0-1,0c0,0,0,0,0.5-0.5
            c0.5-0.5,1-0.5,1-0.5c0.5,0,1-0.5,1-1l0.5-0.5c0.5-0.5,0.5-0.5,1-1c0,0,0.5-0.5,1-0.5c0.5,0,1-0.5,1.5-0.5s1,0,1,0.5s0,0.5-0.5,1
            C401.5,440,401.5,440.5,401,440.5z M396,445C396.5,444.5,396.5,444.5,396,445C396.5,445,396.5,445,396,445c0,0.5,0,0.5,0,0.5V445z
             M398,460c0,0-0.5,0-1,0.5s-0.5,0.5-0.5,0.5C397,461,397.5,460.5,398,460L398,460z M398,463.5C398,463.5,397.5,463,398,463.5
            C397.5,463,397.5,463.5,398,463.5z M401,336.5L401,336.5c-0.5-0.5-1-0.5-1-1s0.5-0.5,0.5,0C401,335.5,401,336,401,336.5z
             M402.5,462v-0.5c0,0-0.5-0.5-1,0c0,0-0.5,0.5,0,0.5C401.5,462,401.5,462,402.5,462z M402.5,335.5c0,0.5-0.5,0.5-0.5,0.5
            s-0.5-0.5,0-1v-0.5l0.5-0.5C402.5,335,402.5,335,402.5,335.5z M402.5,334L402.5,334c-0.5,0.5-1,0-1-1c0-0.5,0-0.5,0.5,0
            C402.5,333,402.5,333.5,402.5,334z M403,341C403,341,402.5,341,403,341L403,341L403,341z M404.5,338.5c0,0.5-0.5,1-0.5,1l0,0l0,0
            c0-0.5,0.5-0.5,0.5-0.5h0.5c0.5,0,0.5-1,0-2c-0.5-0.5-1-1-1-1s-0.5,0.5,0,1C404.5,337.5,404.5,338.5,404.5,338.5z M406,439
            C406.5,439,406,439,406,439C405.5,439.5,405.5,439.5,406,439z M409,455.5C409,455.5,408.5,455.5,409,455.5c-1,0-1.5,0-1,0.5
            C408.5,456.5,408,456,409,455.5L409,455.5z M408,465L408,465c0.5,0,0.5,0,1,0c0.5,0,0,0.5,0,0.5l0,0C408,465.5,408,465.5,408,465z
             M409.5,437.5c0.5,0,1,0,1,0.5c0.5,0.5,0.5,0.5,1,0c0,0,0,0,0-0.5c0,0,0,0,0-0.5c0,0,0-0.5,0-1c0-0.5-0.5-0.5-1,0
            c-0.5,0-1,0.5-1,0.5C408,438,408,438,409.5,437.5z M413.5,333C413.5,333.5,413.5,333.5,413.5,333L413.5,333z M415.5,362
            C415.5,362,415,362,415.5,362C415,361.5,415,361.5,415.5,362z M416.5,461.5c0-0.5,0-0.5-0.5-1c-0.5,0-1,0.5-0.5,0.5
            C415.5,461.5,416,461.5,416.5,461.5z M416.5,364c0-0.5,0-0.5,0-1C416.5,363,417,363,416.5,364L416.5,364L416.5,364z M418,333
            c0,0.5,0,1,0.5,1L418,333C418.5,333,418.5,333,418,333z M421.5,459v-0.5H421C420.5,459,421,459,421.5,459z M421.5,363.5
            c0,0,0.5,0,1,0s0.5,0,0.5,0.5l0,0C422,364,421.5,364,421.5,363.5z M428.5,361c0,0-0.5,0.5-0.5,1s0,0.5,0.5,0.5V362
            c0-0.5,0.5-0.5,1-0.5c0,0.5,0.5,0.5,1,0c0.5,0,0.5,0,0.5-0.5l0.5-0.5c0,0,0.5-0.5,1-0.5h0.5c0.5,0.5,1,0,1-0.5c0.5-0.5,0.5-1,0-1
            c-0.5,0-1,0-1,0c0,0.5-0.5,0.5-0.5,0.5H432c-0.5,0-1,0-1.5,0l0,0H430c0,0,0,0-0.5,0s0,0-0.5,0c0,0-0.5,0-0.5,0.5
            C429,360.5,428.5,360.5,428.5,361z"/>
    </clipPath>
</defs>
<g class="e3">
<path clip-path="url(#clip-path-e3)" fill="none" d="M113,27.3C88,88.8,30,230,7,292.5"/>
<path clip-path="url(#clip-path-e3)" fill="none" d="M60.5,84.5c60-3.5,155-33,214-43"/>
<path clip-path="url(#clip-path-e3)" fill="none" d="M30.5,159c63.6-3.5,158.5-15,219.5-27.5"/>
<path clip-path="url(#clip-path-e3)" fill="none" d="M24,245.5c58,1,157-27,212.5-44"/>
<path clip-path="url(#clip-path-e3)" fill="none" d="M285,69.5c77-2.5,146-20,222-33.5"/>
<path clip-path="url(#clip-path-e3)" fill="none" d="M479,49c-50,28-131,79.1-181,106.6c37.5,1.5,156-24.1,116,52.4c-22.5,51-131.5,67.7-177.5,54.2"/>
</g>
<g class="_2015">
<path clip-path="url(#clip-path-e3)" fill="none" d="M28.5,370c16.5-12.5,114.8-57.5,111.8-15C137.8,381,45,437.5,28,459.5c45,1.9,81.5-0.5,119.5-12"/>
<path clip-path="url(#clip-path-e3)" fill="none" d="M251.5,342c-52.5-13-105,95.5-46.5,118.1c56,18,88-87.1,48-116.6"/>
<path clip-path="url(#clip-path-e3)" fill="none" d="M293,352c16,1.5,39-9,52-18.5c-12.6,48.6-37,107.5-49,153"/>
<path clip-path="url(#clip-path-e3)" fill="none" d="M468.5,333.5c-21,4.5-61,9-72.5,27.5c-26,44,12.7,26,27.2,27.5c21,2.5,43.8-18.5,48.3,18c3,25-88.5,52.5-105,60.5"/>
</g>
</svg>


